<svg width="58" height="26" viewBox="0 0 58 26" fill="none" xmlns="http://www.w3.org/2000/svg">
<g clip-path="url(#clip0_1001_279)">
<path d="M50.9544 14.9941V25.7645H57.0162V24.4115H52.524V20.8935H56.5832V19.5404H52.524V16.3472H57.0162V14.9941H50.9544Z" fill="white"/>
<path d="M44.8927 14.9941H42.0783V25.7645H43.6478V21.4347H45.1633C47.1117 21.4347 48.9519 20.5688 48.9519 18.1874C48.9519 15.806 47.1117 14.9941 44.8927 14.9941ZM45.1091 20.1358H43.5937V16.4013H44.8927C45.8669 16.4013 47.2741 16.8884 47.2741 18.2415C47.2741 19.6487 46.0834 20.1358 45.1091 20.1358Z" fill="white"/>
<path d="M36.1789 14.9941H33.3645V25.7645H34.9341V21.4347H36.4495C38.3979 21.4347 40.2381 20.5688 40.2381 18.1874C40.184 15.806 38.3438 14.9941 36.1789 14.9941ZM36.3954 20.1358H34.88V16.4013H36.1789C37.1531 16.4013 38.5603 16.8884 38.5603 18.2415C38.5603 19.6487 37.3696 20.1358 36.3954 20.1358Z" fill="white"/>
<path d="M30.496 14.9941H28.9265V21.11C28.9265 23.1667 28.277 24.5739 26.2745 24.5739C24.2719 24.5739 23.6224 23.1667 23.6224 21.11V14.9941H22.0529V21.3265C22.0529 24.3574 23.5683 25.981 26.2203 25.981C28.8723 25.981 30.3878 24.3574 30.3878 21.3265V14.9941H30.496Z" fill="white"/>
<path d="M18.102 21.4889C17.7772 20.8394 17.5066 20.5688 17.0736 20.4064V20.3523C18.3185 20.1358 19.2927 19.2157 19.2927 17.9168C19.2927 15.3189 17.236 14.9941 15.1252 14.9941H12.4732V25.7645H14.0428V21.0018H14.9628C15.7747 21.0018 16.3159 21.0018 16.7489 22.0301L18.4267 25.7645H20.1586L18.102 21.4889ZM15.2876 19.6487H13.9886V16.4013H15.45C16.8571 16.4013 17.6149 16.9967 17.6149 17.9709C17.6149 18.9992 16.803 19.6487 15.2876 19.6487Z" fill="white"/>
<path d="M9.55054 15.3733C8.63046 15.0485 7.98098 14.832 6.41143 14.832C3.10994 14.832 0.728546 17.0511 0.728546 20.3525C0.728546 23.7623 3.0017 25.9813 6.41143 25.9813C8.08923 25.9813 9.11756 25.7107 9.71291 25.4942V19.8654H5.92432V21.1103H8.19747V24.3576C7.81862 24.4117 7.548 24.52 6.46555 24.52C4.24652 24.52 2.40635 22.8422 2.40635 20.2984C2.40635 17.917 4.08415 16.0769 6.51967 16.0769C7.92686 16.0769 8.7387 16.3475 9.49642 16.8346L9.55054 15.3733Z" fill="white"/>
<path d="M32.2821 0.868117C31.4702 0.597503 30.6043 0.489258 29.6842 0.489258C27.7899 0.489258 25.8956 1.35522 25.8956 3.79074C25.8956 7.36283 30.6043 6.49687 30.6043 8.55353C30.6043 9.52774 29.5218 9.96072 28.71 9.96072C27.844 9.96072 27.0322 9.69011 26.2745 9.31125L26.058 11.2597C27.1404 11.5303 27.6275 11.6926 28.8182 11.6926C30.9831 11.6926 32.8774 10.7726 32.8774 8.44529C32.8774 4.81907 28.1688 5.63091 28.1688 3.73662C28.1688 2.54592 29.143 2.22118 29.8466 2.22118C30.6043 2.22118 31.362 2.38355 32.0115 2.70829L32.2821 0.868117Z" fill="white"/>
<path d="M21.7823 5.84714C23.0812 5.57653 23.9472 4.71057 23.9472 3.41162C23.9472 1.03023 21.8905 0.651367 20.4833 0.651367H16.6947V11.4218H20.4833C21.8364 11.4218 24.2719 11.0429 24.2719 8.28266C24.2719 6.98372 23.2977 6.00951 21.7823 5.84714ZM18.8596 2.38329H19.6715C20.6457 2.38329 21.7281 2.49154 21.7281 3.73636C21.7281 4.87293 20.5916 5.0353 19.6715 5.0353H18.8055V2.38329H18.8596ZM19.888 9.74397H18.8596V6.60486H19.888C20.9704 6.60486 22.107 6.82135 22.107 8.22854C22.107 9.47336 20.9163 9.74397 19.888 9.74397Z" fill="white"/>
<path d="M2.89349 11.4218H5.70787L7.60217 2.81627L9.55058 11.4218H12.365L15.1793 0.651367H13.0686L11.0119 9.25687L9.1176 0.651367H6.19497L4.35481 9.25687H4.30068L2.29814 0.651367H0.0249939L2.89349 11.4218Z" fill="white"/>
</g>
<defs>
<clipPath id="clip0_1001_279">
<rect width="56.9911" height="25.4918" fill="white" transform="translate(0.0249939 0.489258)"/>
</clipPath>
</defs>
</svg>
