<svg width="33" height="33" viewBox="0 0 33 33" fill="none" xmlns="http://www.w3.org/2000/svg">
<g clip-path="url(#clip0_1001_17178)">
<path d="M32.9606 24.0843C32.9606 23.5431 32.9065 23.0018 32.8524 22.4606C32.7441 21.2158 32.5276 19.971 32.3112 18.7261C31.9864 16.886 31.5534 15.0458 31.0663 13.2598C30.6875 11.9067 30.3086 10.5536 29.8756 9.20056C29.4968 8.06398 28.7932 4.81662 27.1154 5.08724C27.1154 5.08724 27.0613 5.08724 26.953 5.08724C27.4401 6.60267 27.9813 8.3346 28.4684 10.2289C29.172 12.8809 29.7674 15.5329 30.3086 18.1849C30.6334 19.7545 30.904 21.2699 31.1205 22.8395C31.1746 23.2725 31.1746 23.8137 30.8498 24.1925C30.5792 24.5714 30.0921 24.7338 29.6591 24.842C28.4143 25.3291 27.2236 25.8162 25.9788 26.2492C21.0536 28.0352 15.912 29.3883 10.7703 30.4708C10.175 30.579 9.57964 30.6873 8.93017 30.8496C7.84772 31.0661 6.76526 31.2826 5.68281 31.445C5.30395 31.4991 4.81685 31.5532 4.43799 31.445C4.49211 31.6073 4.60036 31.7697 4.7086 31.9321C4.97921 32.3651 5.35807 32.8522 5.8993 32.9063C6.22404 32.9604 6.60289 32.8522 6.92763 32.798C7.30649 32.7439 7.73947 32.6898 8.11833 32.6357C9.09254 32.4733 10.0126 32.3109 10.9868 32.1486C12.2858 31.878 13.5847 31.6615 14.8295 31.3367C16.345 31.012 17.8604 30.6331 19.3758 30.2001C22.082 29.4966 24.734 28.6306 27.3319 27.7105C28.4143 27.3316 29.4968 26.8987 30.5792 26.5198C30.7957 26.4657 30.9581 26.3574 31.1746 26.3033C31.7699 26.0868 32.4735 25.8162 32.7983 25.2209C32.9606 24.842 32.9606 24.4631 32.9606 24.0843Z" fill="white"/>
<path d="M23.814 3.41017C23.814 3.95139 23.381 4.4385 22.7857 4.4385C22.2444 4.4385 21.7573 4.00552 21.7573 3.41017C21.7573 2.86894 22.1903 2.38184 22.7857 2.38184C23.3269 2.38184 23.814 2.81482 23.814 3.41017Z" fill="white"/>
<path d="M27.0615 1.56935C27.0615 2.11057 26.6286 2.59768 26.0332 2.59768C25.492 2.59768 25.0049 2.1647 25.0049 1.56935C25.0049 1.02812 25.4379 0.541016 26.0332 0.541016C26.5744 0.541016 27.0615 0.973997 27.0615 1.56935Z" fill="white"/>
<path d="M25.1129 19.5385C24.3552 14.2886 22.948 9.09283 20.9996 4.16767C20.6749 3.35583 20.2419 2.97697 19.3759 2.92285C19.2677 2.92285 19.1594 2.92285 19.0512 2.97697C18.9971 2.97697 18.943 2.97697 18.8888 2.97697C13.7472 3.62645 8.71378 5.03363 3.95098 6.98205C3.40975 7.19854 2.81441 7.46915 2.54379 8.0645C2.38142 8.44336 2.43555 8.87634 2.48967 9.30933C3.30151 14.5051 4.76282 19.5926 6.71124 24.4637C6.81948 24.7884 6.98185 25.1673 7.30659 25.3838C7.68544 25.6544 8.22667 25.6002 8.71378 25.5461C13.9637 24.7343 19.1053 23.3271 24.0305 21.3787C24.4635 21.2163 24.8964 20.9998 25.0588 20.621C25.2212 20.2421 25.1671 19.8632 25.1129 19.5385ZM12.773 8.01038C13.3142 8.01038 13.8013 8.44336 13.8013 9.03871C13.8013 9.57994 13.3683 10.067 12.773 10.067C12.2317 10.067 11.7446 9.63406 11.7446 9.03871C11.7446 8.44336 12.2317 8.01038 12.773 8.01038ZM8.28079 24.1931C7.73957 24.1931 7.25246 23.7601 7.25246 23.1647C7.25246 22.6235 7.68544 22.1364 8.28079 22.1364C8.82202 22.1364 9.30912 22.5694 9.30912 23.1647C9.30912 23.7601 8.87614 24.1931 8.28079 24.1931ZM11.5282 22.407C10.9869 22.407 10.4998 21.974 10.4998 21.3787C10.4998 20.8375 10.9328 20.3503 11.5282 20.3503C12.0694 20.3503 12.5565 20.7833 12.5565 21.3787C12.5565 21.9199 12.1235 22.407 11.5282 22.407ZM12.4482 12.5026C12.4482 11.9613 12.8812 11.4742 13.4766 11.4742C14.0178 11.4742 14.5049 11.9072 14.5049 12.5026C14.5049 13.0438 14.0719 13.5309 13.4766 13.5309C12.9353 13.5309 12.4482 13.0979 12.4482 12.5026ZM13.1518 16.0205C13.1518 15.4793 13.5848 14.9922 14.1802 14.9922C14.7214 14.9922 15.2085 15.4252 15.2085 16.0205C15.2085 16.5618 14.7755 17.0489 14.1802 17.0489C13.5848 17.0489 13.1518 16.6159 13.1518 16.0205ZM14.7755 20.5668C14.2343 20.5668 13.7472 20.1339 13.7472 19.5385C13.7472 18.9973 14.1802 18.5102 14.7755 18.5102C15.3167 18.5102 15.8038 18.9432 15.8038 19.5385C15.8038 20.1339 15.3709 20.5668 14.7755 20.5668ZM16.0203 8.22687C15.4791 8.22687 14.992 7.79389 14.992 7.19854C14.992 6.65731 15.425 6.17021 16.0203 6.17021C16.6157 6.17021 17.0487 6.60319 17.0487 7.19854C17.0487 7.79389 16.6157 8.22687 16.0203 8.22687ZM19.2677 6.3867C18.7265 6.3867 18.2394 5.95372 18.2394 5.35837C18.2394 4.81714 18.6723 4.33004 19.2677 4.33004C19.8089 4.33004 20.296 4.76302 20.296 5.35837C20.296 5.95372 19.863 6.3867 19.2677 6.3867Z" fill="white"/>
<path d="M3.78857 25.167C3.78857 24.6258 4.22156 24.1387 4.8169 24.1387C5.35813 24.1387 5.84524 24.5717 5.84524 25.167C5.84524 25.7082 5.41225 26.1953 4.8169 26.1953C4.22156 26.1953 3.78857 25.7624 3.78857 25.167Z" fill="white"/>
<path d="M0.541016 27.0068C0.541016 26.4656 0.973997 25.9785 1.56935 25.9785C2.11057 25.9785 2.59768 26.4115 2.59768 27.0068C2.59768 27.5481 2.1647 28.0352 1.56935 28.0352C0.973997 28.0352 0.541016 27.5481 0.541016 27.0068Z" fill="white"/>
</g>
<defs>
<clipPath id="clip0_1001_17178">
<rect width="32.4194" height="32.3801" fill="white" transform="translate(0.541016 0.541016)"/>
</clipPath>
</defs>
</svg>
