<svg width="58" height="26" viewBox="0 0 58 26" fill="none" xmlns="http://www.w3.org/2000/svg">
<g clip-path="url(#clip0_1001_17168)">
<path d="M50.9541 14.9941V25.7645H57.0158V24.4115H52.5237V20.8935H56.5829V19.5404H52.5237V16.3472H57.0158V14.9941H50.9541Z" fill="white"/>
<path d="M44.8925 14.9941H42.0781V25.7645H43.6477V21.4347H45.1631C47.1115 21.4347 48.9517 20.5688 48.9517 18.1874C48.9517 15.806 47.1115 14.9941 44.8925 14.9941ZM45.109 20.1358H43.5936V16.4013H44.8925C45.8667 16.4013 47.2739 16.8884 47.2739 18.2415C47.2739 19.6487 46.0832 20.1358 45.109 20.1358Z" fill="white"/>
<path d="M36.1786 14.9941H33.3643V25.7645H34.9338V21.4347H36.4493C38.3977 21.4347 40.2378 20.5688 40.2378 18.1874C40.1837 15.806 38.3435 14.9941 36.1786 14.9941ZM36.3951 20.1358H34.8797V16.4013H36.1786C37.1529 16.4013 38.56 16.8884 38.56 18.2415C38.56 19.6487 37.3693 20.1358 36.3951 20.1358Z" fill="white"/>
<path d="M30.4959 14.9941H28.9263V21.11C28.9263 23.1667 28.2768 24.5739 26.2743 24.5739C24.2718 24.5739 23.6223 23.1667 23.6223 21.11V14.9941H22.0527V21.3265C22.0527 24.3574 23.5682 25.981 26.2202 25.981C28.8722 25.981 30.3876 24.3574 30.3876 21.3265V14.9941H30.4959Z" fill="white"/>
<path d="M18.1019 21.4889C17.7772 20.8394 17.5066 20.5688 17.0736 20.4064V20.3523C18.3184 20.1358 19.2926 19.2157 19.2926 17.9168C19.2926 15.3189 17.2359 14.9941 15.1252 14.9941H12.4731V25.7645H14.0427V21.0018H14.9628C15.7746 21.0018 16.3158 21.0018 16.7488 22.0301L18.4266 25.7645H20.1586L18.1019 21.4889ZM15.2875 19.6487H13.9886V16.4013H15.4499C16.8571 16.4013 17.6148 16.9967 17.6148 17.9709C17.6148 18.9992 16.803 19.6487 15.2875 19.6487Z" fill="white"/>
<path d="M9.55051 15.3733C8.63043 15.0485 7.98095 14.832 6.41139 14.832C3.10991 14.832 0.728516 17.0511 0.728516 20.3525C0.728516 23.7623 3.00167 25.9813 6.41139 25.9813C8.0892 25.9813 9.11753 25.7107 9.71288 25.4942V19.8654H5.92429V21.1103H8.19744V24.3576C7.81859 24.4117 7.54797 24.52 6.46552 24.52C4.24649 24.52 2.40632 22.8422 2.40632 20.2984C2.40632 17.917 4.08412 16.0769 6.51964 16.0769C7.92683 16.0769 8.73867 16.3475 9.49639 16.8346L9.55051 15.3733Z" fill="white"/>
<path d="M32.282 0.868117C31.4701 0.597503 30.6042 0.489258 29.6841 0.489258C27.7898 0.489258 25.8955 1.35522 25.8955 3.79074C25.8955 7.36284 30.6042 6.49687 30.6042 8.55353C30.6042 9.52774 29.5217 9.96072 28.7099 9.96072C27.8439 9.96072 27.0321 9.69011 26.2744 9.31125L26.0579 11.2597C27.1403 11.5303 27.6274 11.6926 28.8181 11.6926C30.983 11.6926 32.8773 10.7726 32.8773 8.44529C32.8773 4.81907 28.1687 5.63091 28.1687 3.73662C28.1687 2.54592 29.1429 2.22118 29.8465 2.22118C30.6042 2.22118 31.3619 2.38355 32.0114 2.70829L32.282 0.868117Z" fill="white"/>
<path d="M21.7819 5.84714C23.0808 5.57653 23.9468 4.71057 23.9468 3.41162C23.9468 1.03023 21.8901 0.651367 20.4829 0.651367H16.6943V11.4218H20.4829C21.836 11.4218 24.2715 11.0429 24.2715 8.28266C24.2715 6.98372 23.2973 6.00951 21.7819 5.84714ZM18.8592 2.38329H19.6711C20.6453 2.38329 21.7277 2.49154 21.7277 3.73636C21.7277 4.87293 20.5912 5.0353 19.6711 5.0353H18.8051V2.38329H18.8592ZM19.8876 9.74397H18.8592V6.60486H19.8876C20.97 6.60486 22.1066 6.82135 22.1066 8.22854C22.1066 9.47336 20.9159 9.74397 19.8876 9.74397Z" fill="white"/>
<path d="M2.8934 11.4218H5.70778L7.60207 2.81627L9.55049 11.4218H12.3649L15.1792 0.651367H13.0685L11.0118 9.25687L9.11751 0.651367H6.19488L4.35471 9.25687H4.30059L2.29805 0.651367H0.0249023L2.8934 11.4218Z" fill="white"/>
</g>
<defs>
<clipPath id="clip0_1001_17168">
<rect width="56.9911" height="25.4918" fill="white" transform="translate(0.0249023 0.489258)"/>
</clipPath>
</defs>
</svg>
