<svg width="94" height="67" viewBox="0 0 94 67" fill="none" xmlns="http://www.w3.org/2000/svg">
<g clip-path="url(#clip0_845_28926)">
<rect width="93.1616" height="66.1937" transform="translate(0 0.439453)" fill="white"/>
<path d="M34.1554 21.7161C34.1554 21.9323 34.1339 22.1275 34.0692 22.3005C34.026 22.4736 33.9397 22.6036 33.8534 22.7335C33.7729 22.8548 33.6611 22.952 33.5298 23.0149C33.4044 23.0818 33.2745 23.1398 33.141 23.1885V23.2101C33.3136 23.2317 33.4646 23.2969 33.5945 23.3832C33.7455 23.47 33.8534 23.5783 33.9613 23.7083C34.0692 23.8382 34.1554 23.9897 34.2202 24.1628C34.2849 24.3359 34.3065 24.531 34.3065 24.7257C34.3065 24.964 34.2633 25.2023 34.177 25.419C34.0907 25.6352 33.9613 25.8088 33.7887 25.9603C33.6161 26.1123 33.3783 26.2202 33.1194 26.307C32.8389 26.3933 32.5153 26.4369 32.1486 26.4369H30.8752V20.1348H32.0838C32.4506 20.1348 32.7742 20.1784 33.0331 20.2431C33.292 20.3299 33.5082 20.4383 33.6803 20.5682C33.8534 20.6982 33.9829 20.8712 34.0476 21.0664C34.1123 21.2611 34.1554 21.4778 34.1554 21.7161ZM33.3567 21.7377C33.3567 21.4341 33.2488 21.1958 33.0547 21.0228C32.8605 20.8281 32.5153 20.7413 32.0838 20.7413H31.6739V22.9071H32.0838C32.5153 22.9071 32.8389 22.7987 33.0547 22.6036C33.2488 22.3873 33.3567 22.1054 33.3567 21.7377ZM33.4862 24.6394C33.4862 24.2927 33.3783 24.0329 33.1625 23.8382C32.9468 23.6431 32.6232 23.5347 32.2133 23.5347H31.6739V25.7436H32.1701C32.6448 25.7436 32.9684 25.6573 33.1841 25.4622C33.3999 25.2675 33.4862 25.0076 33.4862 24.6394ZM38.3634 26.4149H37.6946V25.9172H37.673C37.6515 25.9603 37.6083 26.0035 37.5436 26.0687C37.4736 26.1439 37.3937 26.2094 37.3063 26.2633C37.22 26.3286 37.0905 26.3933 36.9606 26.4369C36.814 26.4827 36.661 26.5045 36.5075 26.5016C36.3134 26.5016 36.1408 26.4801 35.9898 26.4149C35.8394 26.354 35.7061 26.2574 35.6014 26.1334C35.4843 25.9883 35.403 25.8176 35.3641 25.6352C35.2994 25.4406 35.2778 25.1807 35.2778 24.8777V21.9975H36.0113V24.8125C36.0113 25.1807 36.076 25.4401 36.1839 25.5921C36.3134 25.7441 36.486 25.8304 36.7449 25.8304C36.9606 25.8304 37.1337 25.7872 37.2842 25.6784C37.4357 25.5705 37.5436 25.4626 37.6299 25.3754V22.0191H38.3634V26.4149ZM41.881 26.4149V23.5999C41.881 23.2322 41.8163 22.9723 41.6868 22.7987C41.5574 22.6251 41.3632 22.5604 41.1259 22.5604C40.9102 22.5604 40.7155 22.6251 40.5865 22.7335C40.4566 22.8419 40.3272 22.9502 40.2409 23.0586V26.4369H39.5073V22.0622H40.1761V22.5604H40.1977C40.2193 22.5173 40.2624 22.4736 40.3056 22.4084C40.3703 22.3437 40.435 22.279 40.5429 22.2138C40.6508 22.149 40.7586 22.0838 40.8881 22.0407C41.0175 21.9975 41.169 21.9755 41.3416 21.9755C41.5358 21.9755 41.7084 21.9975 41.881 22.0622C42.032 22.1275 42.183 22.2142 42.2909 22.3437C42.3988 22.4736 42.4851 22.6472 42.5498 22.8419C42.6145 23.037 42.6361 23.2969 42.6361 23.5999V26.4801L41.881 26.4149ZM43.5211 24.2927C43.5211 23.8382 43.5858 23.47 43.6937 23.1885C43.8016 22.885 43.9526 22.6472 44.1468 22.4736C44.3409 22.3005 44.5351 22.1706 44.7724 22.0838C45.0102 21.9975 45.226 21.9759 45.4633 21.9759C45.5927 21.9759 45.7222 21.9975 45.8301 21.9975C45.9379 22.0191 46.0242 22.0407 46.089 22.0838V19.9833L46.823 19.897V26.4369H46.1537V25.9387H46.1321C46.1059 25.9956 46.0694 26.0469 46.0242 26.0903C45.9811 26.155 45.9164 26.2202 45.8301 26.2849C45.7323 26.3598 45.623 26.4185 45.5064 26.4585C45.3599 26.5042 45.2069 26.5261 45.0534 26.5232C44.8376 26.5232 44.643 26.4801 44.4704 26.3933C44.2762 26.307 44.1252 26.177 43.9742 26.0035C43.8232 25.8304 43.7153 25.5921 43.6506 25.3106C43.5858 25.0292 43.5211 24.683 43.5211 24.2927ZM45.2471 25.852C45.3549 25.852 45.4628 25.8304 45.5496 25.8088C45.6359 25.7872 45.7222 25.7436 45.7869 25.7004C45.8516 25.6573 45.9164 25.6137 45.9595 25.5705C46.0027 25.5274 46.0458 25.4837 46.0674 25.4406V22.734C45.9948 22.6849 45.9146 22.6481 45.8301 22.6251C45.7244 22.5973 45.6157 22.5828 45.5064 22.582C45.3339 22.582 45.1828 22.6036 45.0318 22.6688C44.8808 22.7335 44.7513 22.8203 44.643 22.9502C44.5351 23.0802 44.4488 23.2532 44.3841 23.47C44.3194 23.6867 44.2978 23.9466 44.2978 24.2496C44.2978 24.5526 44.3194 24.8125 44.3841 25.0076C44.4488 25.2023 44.5135 25.3754 44.5998 25.5053C44.6866 25.6352 44.7945 25.722 44.9024 25.7652C44.9887 25.8304 45.1176 25.852 45.2471 25.852ZM50.7289 23.5131C50.7289 23.7083 50.7289 23.8598 50.7073 24.0113C50.6857 24.1412 50.6857 24.2712 50.6642 24.379H48.441C48.4626 24.8988 48.5705 25.2675 48.7647 25.5274C48.9593 25.7652 49.2398 25.8951 49.6065 25.8951C49.736 25.8951 49.8439 25.8735 49.9517 25.852C50.0596 25.8304 50.1459 25.7872 50.2106 25.7441C50.2969 25.7 50.3401 25.6573 50.4053 25.6137L50.5131 25.5058L50.7936 26.0255L50.6642 26.155C50.5994 26.2202 50.5131 26.2633 50.4268 26.3286C50.3401 26.3933 50.189 26.4364 50.038 26.4801C49.887 26.5232 49.7144 26.5448 49.4987 26.5448C49.2182 26.5448 48.9809 26.5016 48.7651 26.4149C48.543 26.3227 48.3493 26.1733 48.2037 25.9819C48.0349 25.7625 47.9103 25.5124 47.837 25.2454C47.7507 24.9424 47.7075 24.5958 47.7075 24.1844C47.7075 23.7946 47.7507 23.4484 47.837 23.1669C47.9233 22.885 48.0527 22.6472 48.2037 22.4736C48.3547 22.3005 48.5273 22.149 48.7431 22.0622C48.9474 21.9736 49.1681 21.9293 49.3908 21.9323C49.8007 21.9323 50.1459 22.0622 50.3832 22.3221C50.5994 22.582 50.7289 22.9718 50.7289 23.5136V23.5131ZM49.3476 22.5173C49.0888 22.5173 48.873 22.6251 48.722 22.8419C48.5705 23.0586 48.4842 23.3832 48.441 23.7946H50.038C50.038 23.773 50.038 23.7298 50.0596 23.6646V23.47C50.0596 23.1669 49.9949 22.9286 49.887 22.7551C49.7576 22.6036 49.585 22.5173 49.3476 22.5173ZM53.5988 22.9071C53.5556 22.8634 53.4693 22.7771 53.3399 22.6904C53.193 22.592 53.0204 22.5391 52.8437 22.5383C52.6495 22.5383 52.4985 22.5825 52.3906 22.6688C52.3412 22.7068 52.3017 22.7561 52.2753 22.8126C52.2489 22.8691 52.2365 22.9311 52.2391 22.9934C52.2391 23.1669 52.2822 23.2969 52.369 23.4052C52.4553 23.5131 52.6063 23.6215 52.8005 23.7514L53.081 23.9245C53.383 24.0981 53.6203 24.2927 53.7713 24.4879C53.9439 24.6825 54.0302 24.964 54.0302 25.2675C54.0302 25.6137 53.9008 25.9172 53.6635 26.155C53.4262 26.3933 53.081 26.5016 52.6279 26.5016C52.4553 26.5016 52.3043 26.4801 52.1744 26.4585C52.0567 26.4224 51.9414 26.379 51.8292 26.3286C51.7213 26.2849 51.635 26.2202 51.5703 26.1766C51.5056 26.1118 51.4408 26.0687 51.3977 26.025L51.7429 25.4406L51.8723 25.5705C51.9155 25.6137 51.9802 25.6573 52.0665 25.7004C52.1312 25.7436 52.2175 25.7872 52.3043 25.8083C52.3906 25.8304 52.4985 25.8525 52.6279 25.8525C52.8437 25.8525 53.0162 25.8083 53.1241 25.7004C53.1767 25.659 53.2195 25.6065 53.2494 25.5465C53.2792 25.4866 53.2954 25.4207 53.2967 25.3538C53.2967 25.2459 53.2751 25.1591 53.2536 25.0939C53.237 25.0148 53.1906 24.9452 53.1241 24.8993C53.0594 24.8556 52.9947 24.7693 52.93 24.7257C52.8437 24.6825 52.7574 24.6178 52.6495 24.5526L52.369 24.3795C52.0881 24.2059 51.8723 24.0113 51.7213 23.8166C51.5703 23.6215 51.484 23.3616 51.484 23.0586C51.484 22.885 51.5056 22.7551 51.5919 22.6036C51.6566 22.4736 51.7429 22.3437 51.8507 22.2574C51.9586 22.149 52.0881 22.0838 52.2607 22.0191C52.4122 21.9539 52.5848 21.9323 52.7574 21.9323C52.93 21.9323 53.081 21.9539 53.1888 21.9755C53.2967 21.9975 53.4046 22.0622 53.5125 22.1054C53.5988 22.149 53.6851 22.2138 53.7282 22.2574C53.7816 22.2891 53.8262 22.3338 53.8576 22.3873L53.5988 22.9071ZM57.2026 26.3933V23.5783C57.2026 23.2101 57.1595 22.9502 57.0516 22.7987C56.9437 22.6467 56.7927 22.5604 56.5554 22.5604C56.426 22.5604 56.3181 22.582 56.2318 22.6036C56.1417 22.6303 56.0548 22.6667 55.9724 22.7119C55.9026 22.7557 55.8375 22.8066 55.7782 22.8639C55.7135 22.9286 55.6704 22.9718 55.6488 23.0149V26.3933H54.9153V22.0191H55.5841V22.5173H55.6056C55.6272 22.4736 55.6919 22.4089 55.7351 22.3437C55.7998 22.279 55.8645 22.2138 55.9724 22.149C56.0587 22.0838 56.1671 22.0407 56.2965 21.997C56.426 21.9539 56.5554 21.9323 56.7064 21.9323C57.2026 21.9323 57.5478 22.1275 57.7636 22.5173C57.8067 22.4521 57.8714 22.3873 57.9362 22.3221C58.0014 22.2574 58.0877 22.1922 58.1955 22.1275C58.3034 22.0622 58.4113 22.0191 58.5192 21.9975C58.6486 21.9539 58.778 21.9539 58.9291 21.9539C59.8136 21.9539 60.2672 22.4736 60.2672 23.5131V26.4585H59.5331V23.6431C59.5331 23.2753 59.4684 23.0154 59.339 22.8634C59.2095 22.7119 59.0154 22.6251 58.778 22.6251C58.5623 22.6251 58.3897 22.6688 58.2603 22.7771C58.1308 22.885 58.0229 22.9718 57.9362 23.0586C57.9577 23.1233 57.9577 23.1885 57.9577 23.2748V26.4585L57.2026 26.3933ZM62.0583 26.3933H61.3243V22.0191H62.0583V26.3933ZM61.6911 20.958C61.54 20.958 61.4106 20.9144 61.3243 20.806C61.238 20.6982 61.1949 20.5898 61.1949 20.4167C61.1949 20.2431 61.238 20.1348 61.3243 20.0485C61.4106 19.9617 61.54 19.8965 61.6911 19.8965C61.8426 19.8965 61.9504 19.9401 62.0583 20.0485C62.1446 20.1348 62.1878 20.2647 62.1878 20.4162C62.1878 20.5682 62.1446 20.6982 62.0583 20.806C61.972 20.9144 61.8426 20.958 61.6911 20.958ZM65.5759 26.3933V23.5783C65.5759 23.2101 65.5107 22.9502 65.3812 22.7771C65.2518 22.6036 65.0576 22.5388 64.8203 22.5388C64.6046 22.5388 64.4104 22.6036 64.2809 22.7119C64.1299 22.8198 64.0221 22.9286 63.9358 23.037V26.4153H63.2017V22.0407H63.871V22.5388H63.8926C63.9142 22.4952 63.9573 22.4521 64.0005 22.3868C64.0652 22.3221 64.1299 22.2574 64.2378 22.1922C64.3457 22.1275 64.4535 22.0622 64.583 22.0191C64.7124 21.9755 64.8635 21.9539 65.0361 21.9539C65.2302 21.9539 65.4028 21.9755 65.5543 22.0407C65.7053 22.1059 65.8564 22.1927 65.9642 22.3221C66.0721 22.4521 66.1584 22.6251 66.2231 22.8203C66.2878 23.0149 66.3094 23.2748 66.3094 23.5783V26.4585L65.5759 26.3933ZM68.1437 26.3933H67.4097V22.0191H68.1437V26.3933ZM67.777 20.958C67.6259 20.958 67.4965 20.9144 67.4097 20.806C67.3234 20.7197 67.2803 20.5898 67.2803 20.4167C67.2803 20.2431 67.3234 20.1348 67.4097 20.0485C67.4965 19.9617 67.6259 19.8965 67.777 19.8965C67.928 19.8965 68.0359 19.9401 68.1437 20.0485C68.23 20.1348 68.2732 20.2647 68.2732 20.4162C68.2732 20.5682 68.23 20.6982 68.1437 20.806C68.0574 20.9144 67.928 20.958 67.777 20.958ZM71.1646 22.9071C71.1215 22.8634 71.0352 22.7771 70.9057 22.6904C70.7589 22.592 70.5863 22.5391 70.4095 22.5383C70.2153 22.5383 70.0643 22.5825 69.9564 22.6688C69.9072 22.7069 69.8678 22.7563 69.8415 22.8127C69.8153 22.8692 69.8029 22.9311 69.8054 22.9934C69.8054 23.1669 69.8486 23.2969 69.9349 23.4052C70.0212 23.5131 70.1722 23.6215 70.3664 23.7514L70.6468 23.9245C70.9489 24.0981 71.1867 24.2927 71.3377 24.4879C71.5103 24.6825 71.5966 24.964 71.5966 25.2675C71.5966 25.6137 71.4671 25.9172 71.2298 26.155C70.992 26.3933 70.6468 26.5016 70.1938 26.5016C70.0212 26.5016 69.8702 26.4801 69.7407 26.4585C69.6231 26.4224 69.5078 26.379 69.3955 26.3286C69.3064 26.2826 69.2198 26.2319 69.1361 26.1766C69.0714 26.1118 69.0067 26.0687 68.9635 26.025L69.3092 25.4406L69.4387 25.5705C69.4818 25.6137 69.5465 25.6573 69.6328 25.7004C69.6976 25.7436 69.7839 25.7872 69.8702 25.8083C69.9565 25.8304 70.0643 25.8525 70.1938 25.8525C70.4095 25.8525 70.5821 25.8083 70.69 25.7004C70.7978 25.5926 70.8626 25.4837 70.8626 25.3538C70.8626 25.2459 70.841 25.1591 70.8194 25.0939C70.8028 25.0148 70.7565 24.9452 70.69 24.8993C70.6468 24.834 70.5605 24.7693 70.4958 24.7257C70.4311 24.6825 70.3232 24.6178 70.2153 24.5526L69.9349 24.3795C69.6544 24.2059 69.4387 24.0113 69.2872 23.8166C69.1361 23.6215 69.0498 23.3616 69.0498 23.0586C69.0498 22.885 69.0714 22.7551 69.1361 22.6036C69.2009 22.4736 69.2872 22.3437 69.3955 22.2574C69.5034 22.149 69.6544 22.0838 69.8054 22.0191C69.9564 21.9539 70.129 21.9323 70.3016 21.9323C70.4742 21.9323 70.6252 21.9539 70.7331 21.9755C70.8626 21.9975 70.9489 22.0622 71.0567 22.1054C71.143 22.149 71.2082 22.2138 71.273 22.2574C71.3264 22.2891 71.3709 22.3338 71.4024 22.3873L71.1646 22.9071ZM74.337 22.6251H73.3877V25.0508C73.3877 25.3538 73.4309 25.5705 73.4956 25.6784C73.5819 25.7872 73.7113 25.852 73.9055 25.852C74.0134 25.852 74.1213 25.8304 74.186 25.8088C74.2723 25.7872 74.3154 25.7436 74.3586 25.722L74.4664 26.307C74.4449 26.3286 74.3586 26.3717 74.2507 26.4149C74.1428 26.4585 73.9918 26.5016 73.7976 26.5016C73.4309 26.5016 73.1504 26.3938 72.9558 26.1986C72.7616 26.0035 72.6753 25.6352 72.6753 25.1591V22.6251H72.1575V22.1275L72.6753 22.0191L72.7616 20.806H73.4093V22.0191H74.4664L74.337 22.6251ZM77.9193 23.4915C77.9193 23.6867 77.9193 23.8382 77.8977 23.9897C77.8977 24.1196 77.8762 24.2496 77.8546 24.3575H75.6319C75.6535 24.8772 75.7614 25.2454 75.9556 25.5053C76.1497 25.7436 76.4302 25.8735 76.797 25.8735C76.9269 25.8735 77.0348 25.852 77.1426 25.8304C77.2505 25.8088 77.3368 25.7652 77.4015 25.7225C77.4878 25.6784 77.531 25.6352 77.5957 25.5921L77.7036 25.4842L77.984 26.004L77.8546 26.1334C77.7899 26.1986 77.7036 26.2418 77.6173 26.307C77.5094 26.3717 77.38 26.4149 77.2289 26.4585C77.0779 26.5016 76.9053 26.5232 76.6891 26.5232C76.4086 26.5232 76.1713 26.4801 75.9556 26.3933C75.7336 26.3011 75.54 26.1517 75.3946 25.9603C75.2258 25.7409 75.1012 25.4908 75.0279 25.2239C74.9411 24.9208 74.8979 24.5742 74.8979 24.1628C74.8979 23.773 74.9411 23.4268 75.0279 23.1449C75.1142 22.8634 75.2436 22.6251 75.3946 22.4521C75.5457 22.279 75.7182 22.1275 75.9124 22.0407C76.1165 21.952 76.3371 21.9077 76.5596 21.9107C76.97 21.9107 77.3152 22.0407 77.5525 22.3005C77.7899 22.582 77.8977 22.9723 77.9193 23.4915ZM76.5165 22.5173C76.2576 22.5173 76.0419 22.6251 75.8908 22.8419C75.7398 23.0586 75.632 23.3832 75.6104 23.7946H77.2074C77.2074 23.773 77.2289 23.7298 77.2289 23.6646V23.47C77.2289 23.1669 77.1642 22.9286 77.0348 22.7551C76.9053 22.582 76.7538 22.5173 76.5165 22.5173ZM80.8112 22.6688C80.7897 22.6472 80.7465 22.6472 80.7034 22.6251C80.6386 22.6036 80.5519 22.6036 80.4656 22.6036C80.2282 22.6036 80.0557 22.6688 79.9262 22.7987C79.7968 22.9286 79.7105 23.0586 79.6457 23.2101V26.4364H78.9122V22.0627H79.581V22.6472H79.6026C79.6242 22.5604 79.6673 22.4736 79.7105 22.3873C79.7536 22.3005 79.8183 22.2353 79.8831 22.1706C79.9694 22.1054 80.0341 22.0627 80.142 22.0186C80.2498 21.9755 80.3577 21.9539 80.5087 21.9539C80.6166 21.9539 80.7034 21.9539 80.7681 21.9755C80.8328 21.9975 80.876 21.9975 80.9191 22.0191L80.8112 22.6688ZM82.2783 26.3933H81.5448V22.0191H82.2783V26.3933ZM81.9115 20.958C81.7605 20.958 81.6311 20.9144 81.5448 20.806C81.4585 20.6982 81.4153 20.5898 81.4153 20.4167C81.4153 20.2431 81.4585 20.1348 81.5448 20.0485C81.6311 19.9617 81.7605 19.8965 81.9115 19.8965C82.0625 19.8965 82.1704 19.9401 82.2567 20.0485C82.343 20.1564 82.3862 20.2647 82.3862 20.4162C82.3862 20.5682 82.343 20.6982 82.2567 20.806C82.1704 20.9144 82.0625 20.958 81.9115 20.958ZM86.4652 26.3933H85.7959V25.8951H85.7743C85.7527 25.9387 85.7096 25.9819 85.6664 26.0471C85.6017 26.1118 85.537 26.177 85.4291 26.2418C85.3428 26.307 85.2134 26.3717 85.0839 26.4149C84.9374 26.4608 84.7844 26.4828 84.6309 26.4801C84.4367 26.4801 84.2636 26.4585 84.1126 26.3933C83.9622 26.3324 83.8289 26.2358 83.7243 26.1118C83.6164 25.9819 83.5301 25.8088 83.4654 25.6137C83.4006 25.419 83.3791 25.1591 83.3791 24.8556V21.9759H84.1126V24.7909C84.1126 25.1586 84.1773 25.4185 84.2852 25.5705C84.3931 25.7225 84.5877 25.8088 84.8466 25.8088C85.0624 25.8088 85.2349 25.7652 85.386 25.6568C85.537 25.5489 85.6449 25.4406 85.7311 25.3538V21.9975H86.4652V26.3933ZM89.896 26.3933V23.5783C89.896 23.2101 89.8528 22.9502 89.7449 22.7987C89.6371 22.6467 89.4861 22.5604 89.2487 22.5604C89.1193 22.5604 89.0114 22.582 88.9251 22.6036C88.8406 22.6264 88.7604 22.663 88.6878 22.7119C88.618 22.7557 88.5529 22.8066 88.4936 22.8639C88.4289 22.9286 88.3858 22.9718 88.3642 23.0149V26.3933H87.6302V22.0191H88.2995V22.5173H88.321C88.3426 22.4736 88.4073 22.4089 88.4505 22.3437C88.5152 22.279 88.5799 22.2138 88.6878 22.149C88.7741 22.0838 88.882 22.0407 89.0114 21.997C89.1409 21.9539 89.2703 21.9323 89.4213 21.9323C89.9175 21.9323 90.2632 22.1275 90.479 22.5173C90.5221 22.4521 90.5868 22.3873 90.6516 22.3221C90.7163 22.2574 90.8026 22.1922 90.9104 22.1275C91.0183 22.0622 91.1262 22.0191 91.2341 21.9975C91.3419 21.9755 91.4929 21.9539 91.644 21.9539C92.529 21.9539 92.9821 22.4736 92.9821 23.5131V26.4585H92.2485V23.6431C92.2485 23.2753 92.1838 23.0154 92.0544 22.8634C91.9244 22.7119 91.7303 22.6251 91.4929 22.6251C91.2772 22.6251 91.1046 22.6688 90.9752 22.7771C90.8457 22.885 90.7378 22.9718 90.6516 23.0586C90.6516 23.1233 90.6731 23.1885 90.6731 23.2748V26.4585L89.896 26.3933ZM32.5585 31.8295H31.6739V35.6192H30.9394V31.829H30.4216V31.3313L30.9394 31.2235V30.334C30.9394 30.0962 30.961 29.9011 31.0473 29.728C31.1023 29.5733 31.1907 29.4327 31.3062 29.3161C31.414 29.2082 31.544 29.1214 31.695 29.0783C31.8422 29.0355 31.9947 29.0135 32.1481 29.0131C32.2991 29.0131 32.4501 29.0347 32.558 29.0783C32.6658 29.1214 32.7306 29.1646 32.7737 29.1862L32.6227 29.7927C32.5795 29.7711 32.5364 29.7495 32.4717 29.7064C32.3953 29.6795 32.3153 29.6648 32.2344 29.6628C32.0618 29.6628 31.9323 29.7064 31.8244 29.8363C31.7166 29.9658 31.695 30.1394 31.695 30.4424V31.222H32.6874L32.558 31.8285L32.5585 31.8295ZM36.3349 35.6192H35.6661V35.121H35.6446C35.623 35.1642 35.5798 35.2078 35.5151 35.2726C35.4451 35.348 35.3653 35.4136 35.2778 35.4677C35.191 35.5324 35.0621 35.5976 34.9321 35.6408C34.7856 35.6866 34.6326 35.7084 34.4791 35.7055C34.2849 35.7055 34.1123 35.6839 33.9613 35.6192C33.8108 35.5582 33.6776 35.4614 33.5729 35.3373C33.4651 35.2078 33.3783 35.0343 33.3136 34.8396C33.2488 34.6444 33.2273 34.3846 33.2273 34.0816V31.2014H33.9613V34.0163C33.9613 34.3846 34.026 34.6444 34.1339 34.796C34.2633 34.948 34.4359 35.0343 34.6948 35.0343C34.9105 35.0343 35.0831 34.9911 35.2342 34.8827C35.3857 34.7749 35.4935 34.666 35.5798 34.5582V31.2014H36.3134L36.3349 35.6192ZM34.5222 29.9663C34.5222 30.0967 34.4791 30.2261 34.3928 30.3129C34.3536 30.3536 34.3067 30.386 34.2548 30.4083C34.203 30.4306 34.1472 30.4423 34.0907 30.4429C34.0343 30.4423 33.9785 30.4306 33.9266 30.4083C33.8748 30.386 33.8279 30.3536 33.7887 30.3129C33.7024 30.2266 33.6592 30.1183 33.6592 29.9668C33.6592 29.8148 33.7024 29.7069 33.7887 29.6201C33.8279 29.5795 33.8748 29.5471 33.9266 29.5247C33.9785 29.5024 34.0343 29.4907 34.0907 29.4902C34.1986 29.4902 34.3065 29.5333 34.3928 29.6201C34.4791 29.7064 34.5222 29.8363 34.5222 29.9663ZM35.9245 29.9663C35.9245 30.0967 35.8819 30.2261 35.7956 30.3129C35.7564 30.3536 35.7095 30.386 35.6576 30.4083C35.6058 30.4306 35.55 30.4423 35.4935 30.4429C35.437 30.4424 35.3811 30.4307 35.3292 30.4084C35.2772 30.3861 35.2303 30.3536 35.191 30.3129C35.1047 30.2266 35.0616 30.1183 35.0616 29.9668C35.0616 29.8148 35.1047 29.7069 35.191 29.6201C35.2303 29.5794 35.2772 29.547 35.3292 29.5247C35.3811 29.5023 35.437 29.4906 35.4935 29.4902C35.6014 29.4902 35.7093 29.5333 35.7956 29.6201C35.8819 29.7064 35.9245 29.8363 35.9245 29.9663ZM39.3995 31.8722C39.3779 31.8506 39.3347 31.8506 39.2916 31.829C39.2269 31.8074 39.1406 31.8074 39.0543 31.8074C38.8165 31.8074 38.6439 31.8722 38.5149 32.0021C38.385 32.132 38.2992 32.262 38.234 32.414V35.6403H37.5004V31.2656H38.1692V31.8506H38.1908C38.2124 31.7638 38.2555 31.6775 38.2987 31.6123C38.3418 31.5255 38.4066 31.4603 38.4713 31.3956C38.536 31.3308 38.6223 31.2877 38.7302 31.2441C38.838 31.2009 38.9459 31.2009 39.0969 31.2009C39.2048 31.2009 39.2916 31.2225 39.3563 31.2225C39.421 31.2441 39.4642 31.2441 39.5073 31.2656L39.3995 31.8722ZM45.2907 30.9195C45.2907 31.1357 45.2691 31.3308 45.2044 31.5039C45.1613 31.6775 45.075 31.8074 44.9887 31.9374C44.9081 32.0586 44.7963 32.1559 44.6651 32.2188C44.5396 32.2855 44.4097 32.3433 44.2762 32.3919V32.4135C44.4488 32.435 44.5998 32.5003 44.7298 32.5866C44.8808 32.6733 44.9887 32.7817 45.0965 32.9116C45.2044 33.0416 45.2907 33.1931 45.3554 33.3662C45.4201 33.5397 45.4417 33.7344 45.4417 33.9296C45.4417 34.1679 45.3986 34.4057 45.3123 34.6224C45.226 34.8391 45.0965 35.0122 44.9239 35.1637C44.7513 35.3157 44.5135 35.4236 44.2546 35.5104C43.9742 35.5971 43.6506 35.6403 43.2838 35.6403H42.0104V29.3387H43.2191C43.5858 29.3387 43.9095 29.3818 44.1684 29.4465C44.4272 29.5333 44.6435 29.6417 44.8156 29.7716C44.9887 29.9015 45.1181 30.0746 45.1828 30.2698C45.2476 30.4644 45.2907 30.6812 45.2907 30.9195ZM44.492 30.941C44.492 30.638 44.3841 30.3997 44.1899 30.2266C43.9742 30.0315 43.6506 29.9447 43.2191 29.9447H42.8087V32.1105H43.2191C43.6506 32.1105 43.9742 32.0026 44.1899 31.8074C44.3841 31.5907 44.492 31.3093 44.492 30.941ZM44.6214 33.8428C44.6214 33.4961 44.5135 33.2362 44.2978 33.0416C44.0821 32.8464 43.7584 32.7386 43.3485 32.7386H42.8092V34.9475H43.3054C43.78 34.9475 44.1036 34.8607 44.3194 34.6655C44.5351 34.4709 44.5998 34.211 44.6214 33.8428ZM47.1682 35.6187H46.4336V31.2441H47.1677L47.1682 35.6187ZM46.8014 30.1614C46.6499 30.1614 46.5204 30.1183 46.4341 30.0094C46.3478 29.9015 46.3047 29.7937 46.3047 29.6201C46.3047 29.4465 46.3478 29.3387 46.4341 29.2519C46.5204 29.1651 46.6499 29.0999 46.8014 29.0999C46.9524 29.0999 47.0603 29.144 47.1466 29.2519C47.2329 29.3597 47.276 29.4686 47.276 29.6196C47.276 29.7716 47.2329 29.9015 47.1466 30.0099C47.0603 30.1178 46.9524 30.1614 46.8014 30.1614ZM49.024 34.5792C49.024 34.7523 49.0456 34.8823 49.1103 34.969C49.1535 35.0338 49.2398 35.0769 49.3692 35.0769C49.4339 35.0769 49.4987 35.0769 49.5418 35.0553C49.585 35.0338 49.6281 35.0338 49.6497 35.0122L49.7144 35.5535C49.6713 35.5751 49.6065 35.5971 49.5202 35.6187C49.4124 35.6403 49.2829 35.6619 49.1319 35.6619C48.8946 35.6619 48.6788 35.5751 48.5273 35.4236C48.3763 35.2721 48.3116 34.9906 48.3116 34.6008V29.1004L49.0456 29.0136L49.024 34.5792ZM50.1675 33.4745C50.1675 33.02 50.2322 32.6518 50.3401 32.3703C50.4484 32.0668 50.5994 31.829 50.7936 31.6554C50.9712 31.4813 51.1847 31.3483 51.4193 31.2656C51.6566 31.1793 51.8723 31.1578 52.1096 31.1578C52.2391 31.1578 52.369 31.1793 52.4769 31.1793C52.5848 31.2009 52.6711 31.2225 52.7358 31.2656V29.1651L53.4693 29.0788V35.6187H52.8005V35.1637H52.7574C52.7358 35.2073 52.7142 35.2505 52.6495 35.3157C52.6063 35.3804 52.5416 35.4451 52.4553 35.5104C52.369 35.5751 52.2607 35.6182 52.1312 35.6834C51.9847 35.7294 51.8317 35.7514 51.6782 35.7487C51.4624 35.7487 51.2682 35.705 51.0956 35.6187C50.9059 35.5328 50.7422 35.3983 50.621 35.2289C50.4665 35.0225 50.3562 34.7865 50.2969 34.5356C50.2106 34.2326 50.1675 33.8859 50.1675 33.4745ZM51.8939 35.0774C52.0018 35.0774 52.1096 35.0553 52.1959 35.0338C52.2822 35.0122 52.369 34.969 52.4337 34.9259C52.4985 34.8823 52.5632 34.8391 52.6063 34.7739C52.6495 34.7307 52.6926 34.6876 52.7142 34.644V31.9374C52.6416 31.8884 52.5614 31.8518 52.4769 31.829C52.3711 31.801 52.2622 31.7863 52.1528 31.7854C51.9802 31.7854 51.8292 31.8074 51.6782 31.8722C51.5271 31.9374 51.3977 32.0242 51.2898 32.1536C51.1819 32.2835 51.0956 32.4566 51.0309 32.6733C50.9573 32.9266 50.921 33.1892 50.9231 33.453C50.9231 33.756 50.9446 34.0159 51.0094 34.211C51.0741 34.4057 51.1388 34.5787 51.2251 34.7092C51.3114 34.8391 51.4193 34.9254 51.5271 34.969C51.635 35.0122 51.7645 35.0558 51.8939 35.0774ZM57.6341 35.6187H56.9653V35.1206H56.9437C56.9222 35.1637 56.879 35.2073 56.8359 35.2721C56.7659 35.3475 56.6861 35.4131 56.5986 35.4672C56.5123 35.5319 56.3828 35.5971 56.2534 35.6403C56.1066 35.6861 55.9535 35.7079 55.7998 35.705C55.6056 35.705 55.4331 35.6834 55.282 35.6187C55.1316 35.5577 54.9983 35.4609 54.8937 35.3368C54.7858 35.2073 54.6995 35.0338 54.6348 34.8391C54.5701 34.644 54.5485 34.3841 54.5485 34.0811V31.2009H55.282V34.0159C55.282 34.3841 55.3468 34.644 55.4546 34.7955C55.5625 34.9475 55.7567 35.0338 55.994 35.0338C56.2102 35.0338 56.3828 34.9906 56.5338 34.8823C56.6849 34.7744 56.7927 34.6655 56.879 34.5577V31.2009H57.6125L57.6341 35.6187ZM61.1517 35.6187V32.8033C61.1517 32.4355 61.087 32.1757 60.9575 32.0021C60.8281 31.829 60.6339 31.7638 60.3966 31.7638C60.1809 31.7638 59.9867 31.8074 59.8568 31.9374C59.7057 32.0452 59.5979 32.1536 59.5116 32.262V35.6403H58.778V31.2656H59.4468V31.7638H59.4684C59.49 31.7206 59.5331 31.6775 59.5763 31.6123C59.6194 31.5476 59.7057 31.4823 59.8136 31.4176C59.922 31.3524 60.0298 31.2877 60.1593 31.2441C60.2887 31.2009 60.4398 31.1793 60.6123 31.1793C60.8065 31.1793 60.9791 31.2009 61.1517 31.2656C61.3027 31.3308 61.4322 31.4176 61.5616 31.5476C61.6695 31.6775 61.7563 31.8506 61.821 32.0452C61.8857 32.2404 61.9073 32.5003 61.9073 32.8033V35.6834L61.1517 35.6187ZM66.1368 31.8074H65.5975C65.7269 32.0452 65.8132 32.3051 65.8132 32.5871C65.8132 32.8249 65.7701 33.02 65.7053 33.2147C65.619 33.4098 65.5327 33.5613 65.3812 33.6913C65.2518 33.8212 65.0792 33.908 64.9066 33.9943C64.7124 34.0595 64.5183 34.1026 64.3025 34.1026H64.0868C64.0221 34.1242 63.9358 34.1894 63.8495 34.2546C63.7632 34.3194 63.7416 34.4057 63.7416 34.5145C63.7416 34.6008 63.7847 34.6876 63.8495 34.7303C63.9142 34.7955 64.0436 34.8175 64.1947 34.8175H64.7556C64.9713 34.8175 65.1439 34.8391 65.3381 34.8823C65.5107 34.9254 65.6622 34.9901 65.7916 35.0774C65.9211 35.1637 66.029 35.2936 66.0937 35.4451C66.1584 35.5971 66.2016 35.7702 66.2016 35.9649C66.2016 36.2032 66.1584 36.4199 66.0505 36.6146C65.9427 36.8097 65.8132 36.9828 65.619 37.1127C65.4244 37.2427 65.2086 37.3726 64.9498 37.4378C64.6708 37.5264 64.3795 37.5703 64.0868 37.5678C63.6117 37.5678 63.2665 37.4594 63.0292 37.2642C62.7918 37.0696 62.6624 36.7661 62.6624 36.3768C62.6624 36.2032 62.684 36.0733 62.7487 35.9433C62.8134 35.8134 62.8781 35.7271 62.9644 35.6403C63.0507 35.5535 63.1154 35.4883 63.2017 35.4236C63.288 35.3804 63.3528 35.3373 63.3959 35.2936V35.2721C63.2018 35.1421 63.1155 34.9254 63.1155 34.6655C63.1155 34.5577 63.137 34.4493 63.1802 34.3625C63.2233 34.2757 63.288 34.2105 63.3312 34.1458C63.3959 34.1026 63.4391 34.0379 63.5038 34.0159C63.5685 33.9943 63.6117 33.9511 63.6332 33.9511V33.9296C63.4175 33.8212 63.2233 33.6697 63.0939 33.4314C62.9644 33.2147 62.8781 32.9332 62.8781 32.5866C62.8781 32.3488 62.9213 32.132 62.986 31.9374C63.0723 31.7422 63.1802 31.5907 63.3096 31.4823C63.4391 31.3524 63.5901 31.2656 63.7847 31.2009C63.9573 31.1357 64.1515 31.1141 64.3672 31.1141C64.583 31.1141 64.7772 31.1578 64.9498 31.2225H66.2878L66.1368 31.8074ZM64.0868 35.4672C63.9573 35.4672 63.8495 35.4672 63.7416 35.4451C63.6984 35.4667 63.6337 35.5104 63.5901 35.5535C63.5469 35.5971 63.4822 35.6403 63.4391 35.7055C63.3959 35.7702 63.3528 35.835 63.3312 35.9217C63.3096 36.0085 63.288 36.0948 63.288 36.2032C63.288 36.6798 63.5469 36.896 64.0652 36.896C64.5183 36.896 64.8419 36.8097 65.0576 36.6361C65.2734 36.4631 65.3812 36.2684 65.3812 36.0301C65.3812 35.7918 65.3165 35.6619 65.1871 35.5751C65.0576 35.4888 64.8635 35.4451 64.6477 35.4451L64.0868 35.4672ZM65.0792 32.5871C65.0792 32.262 64.9929 32.0452 64.8635 31.9153C64.7209 31.7886 64.5364 31.7193 64.3457 31.7206C64.1299 31.7206 63.9573 31.7854 63.8063 31.9153C63.6553 32.0452 63.5685 32.2835 63.5685 32.5871C63.5685 32.8901 63.6553 33.1284 63.8063 33.2583C63.9573 33.3882 64.1299 33.453 64.3241 33.453C64.5398 33.453 64.7124 33.3882 64.8635 33.2583C64.9929 33.1284 65.0576 32.9121 65.0792 32.5871ZM33.7671 44.8221H33.0978V44.3239H33.0762C33.0547 44.3676 33.0115 44.4107 32.9468 44.4759C32.8821 44.5407 32.8174 44.6054 32.7095 44.6706C32.6232 44.7353 32.4937 44.8005 32.3643 44.8437C32.2178 44.8896 32.0648 44.9116 31.9112 44.9089C31.7171 44.9089 31.5445 44.8873 31.393 44.8221C31.2426 44.7612 31.1093 44.6646 31.0046 44.5407C30.8968 44.4107 30.8105 44.2376 30.7457 44.0425C30.681 43.8478 30.6594 43.588 30.6594 43.2844V40.4043H31.393V43.2197C31.393 43.5875 31.4577 43.8473 31.5656 43.9993C31.6955 44.1508 31.8681 44.2376 32.127 44.2376C32.3427 44.2376 32.5153 44.194 32.6663 44.0856C32.8174 43.9778 32.9252 43.8694 33.0115 43.761V40.4043H33.7455L33.7671 44.8221ZM37.2847 44.8221V42.0067C37.2847 41.6389 37.22 41.379 37.09 41.2055C36.9606 41.0324 36.788 40.9672 36.5291 40.9672C36.3134 40.9672 36.1192 41.0108 35.9898 41.1408C35.86 41.2322 35.7438 41.3414 35.6446 41.4653V44.8437H34.9105V40.4695H35.5798V40.9672H35.6014C35.623 40.924 35.6661 40.8809 35.7093 40.8157C35.7524 40.7509 35.8387 40.6857 35.9466 40.621C36.0329 40.5558 36.1623 40.4911 36.2918 40.4479C36.4212 40.4043 36.5723 40.3827 36.7449 40.3827C36.939 40.3827 37.1121 40.4043 37.2626 40.4695C37.4141 40.5342 37.5652 40.621 37.673 40.7509C37.7809 40.8809 37.8672 41.054 37.9319 41.2491C37.9966 41.4438 38.0182 41.7036 38.0182 42.0072V44.8868L37.2847 44.8221ZM38.9243 42.7C38.9243 42.245 38.9891 41.8772 39.0969 41.5953C39.2048 41.3138 39.3563 41.054 39.5505 40.8809C39.7231 40.7073 39.9388 40.5558 40.1761 40.4911C40.4135 40.4043 40.6292 40.3832 40.8665 40.3832C40.996 40.3832 41.1259 40.3832 41.2338 40.4043C41.3416 40.4259 41.4279 40.4479 41.4927 40.4911V38.39L42.2262 38.3032V44.8432H41.5358V44.3887H41.5142C41.4927 44.4318 41.4711 44.475 41.4064 44.5402C41.3632 44.6049 41.2985 44.6701 41.2122 44.7348C41.1259 44.8 41.0175 44.8432 40.8886 44.9084C40.7419 44.9542 40.5887 44.9761 40.435 44.9731C40.2193 44.9731 40.0251 44.93 39.8525 44.8432C39.6584 44.7564 39.5073 44.627 39.3563 44.4534C39.2021 44.2471 39.0919 44.0112 39.0327 43.7605C38.9615 43.4113 38.9253 43.0559 38.9248 42.6995L38.9243 42.7ZM40.6508 44.2808C40.7586 44.2808 40.8665 44.2592 40.9528 44.2376C41.0391 44.2156 41.1259 44.1724 41.1906 44.1293C41.2553 44.0856 41.3201 44.0425 41.3632 43.9773C41.4064 43.9341 41.4495 43.891 41.4711 43.8478V41.1408C41.3985 41.0918 41.3183 41.0552 41.2338 41.0324C41.1281 41.0045 41.0194 40.99 40.9101 40.9892C40.7371 40.9892 40.5865 41.0108 40.435 41.0755C40.284 41.1407 40.1546 41.2275 40.0467 41.3575C39.9388 41.4869 39.8525 41.6605 39.7878 41.8772C39.7231 42.0935 39.7015 42.3533 39.7015 42.6568C39.7015 42.9599 39.7231 43.2197 39.7878 43.4144C39.8309 43.6095 39.9172 43.7826 40.0035 43.9126C40.0898 44.0425 40.1977 44.1293 40.3056 44.1724C40.4135 44.2156 40.5213 44.2808 40.6508 44.2808ZM45.4202 44.8221V38.5205H48.5063L48.4626 39.1481H46.2184V41.4869H48.29V42.115H46.2184V44.8221H45.4202ZM49.0672 42.6353C49.0672 42.2234 49.1103 41.8767 49.2182 41.5958C49.3045 41.2923 49.4339 41.054 49.6065 40.8809C49.7791 40.7073 49.9517 40.5558 50.1675 40.469C50.38 40.3825 50.6073 40.3386 50.8368 40.3396C51.0741 40.3396 51.3114 40.3827 51.5056 40.4695C51.7213 40.5558 51.8939 40.6857 52.0449 40.8809C52.1959 41.0755 52.3259 41.3138 52.4122 41.5953C52.4985 41.8772 52.5416 42.245 52.5416 42.6348C52.5416 43.0246 52.4985 43.3928 52.4122 43.6958C52.3356 43.9594 52.203 44.2033 52.0233 44.4107C51.8769 44.596 51.6831 44.7381 51.4624 44.8221C51.2467 44.9089 51.0309 44.952 50.7936 44.952C50.5563 44.952 50.3185 44.9089 50.1243 44.8221C49.9099 44.7373 49.7232 44.5947 49.585 44.4102C49.4204 44.1963 49.2962 43.9542 49.2182 43.6958C49.1103 43.3928 49.0672 43.0466 49.0672 42.6353ZM51.7645 42.6353C51.7645 42.0503 51.6782 41.6169 51.5056 41.357C51.333 41.0971 51.0957 40.9677 50.7936 40.9677C50.4916 40.9677 50.2538 41.0971 50.0812 41.357C49.9086 41.6169 49.8223 42.0503 49.8223 42.6348C49.8223 43.2197 49.9086 43.6311 50.0812 43.891C50.2538 44.1509 50.4916 44.2808 50.7936 44.2808C51.0957 44.2808 51.333 44.1509 51.5056 43.891C51.6782 43.6311 51.7645 43.2197 51.7645 42.6353ZM55.3683 41.0971C55.3468 41.0755 55.3036 41.0755 55.2605 41.054C55.1957 41.0324 55.1094 41.0324 55.0231 41.0324C54.7858 41.0324 54.6132 41.0971 54.4838 41.227C54.364 41.3445 54.2687 41.4845 54.2033 41.6389V44.8653H53.4693V40.4474H54.1381V41.0324H54.1597C54.1813 40.9456 54.2249 40.8593 54.268 40.7725C54.3112 40.6857 54.3759 40.6205 54.4406 40.5558C54.5054 40.4911 54.5917 40.4479 54.6995 40.4043C54.8074 40.3611 54.9153 40.3611 55.0663 40.3611C55.1742 40.3611 55.2605 40.3611 55.3252 40.3827C55.3899 40.4043 55.4331 40.4043 55.4762 40.4259L55.3683 41.0971ZM57.9577 41.3354C57.9146 41.2923 57.8283 41.2055 57.6988 41.1192C57.5694 41.0324 57.3968 40.9892 57.2026 40.9892C57.0085 40.9892 56.8574 41.0324 56.7496 41.1192C56.7003 41.1573 56.6609 41.2067 56.6347 41.2631C56.6084 41.3196 56.596 41.3815 56.5986 41.4438C56.5986 41.6169 56.6417 41.7468 56.7496 41.8556C56.8359 41.9635 56.9869 42.0719 57.1811 42.2018L57.4615 42.3749C57.7636 42.5485 58.0014 42.7431 58.174 42.9383C58.3466 43.1329 58.4329 43.3928 58.4329 43.7179C58.4329 44.0641 58.3034 44.3676 58.0661 44.5838C57.8283 44.8221 57.4831 44.9305 57.03 44.9305C56.8781 44.9288 56.7265 44.9142 56.577 44.8868C56.4475 44.8437 56.3181 44.8005 56.2318 44.7569C56.1427 44.7111 56.0561 44.6605 55.9724 44.6054C55.9077 44.5407 55.843 44.4975 55.7998 44.4539L56.1455 43.8694L56.2749 43.9993C56.3181 44.0425 56.3828 44.1072 56.4691 44.1509C56.5338 44.194 56.6201 44.2376 56.7064 44.2587C56.7927 44.2808 56.9006 44.3024 57.03 44.3024C57.2458 44.3024 57.4184 44.2592 57.5262 44.1504C57.6341 44.0425 57.6988 43.9346 57.6988 43.8042C57.6988 43.6963 57.6773 43.6095 57.6557 43.5443C57.6391 43.4652 57.5927 43.3956 57.5262 43.3497C57.4831 43.2844 57.3968 43.2413 57.3321 43.1761C57.2458 43.1329 57.1595 43.0682 57.0516 43.003L56.7711 42.8299C56.4907 42.6563 56.2965 42.4617 56.1239 42.2665C55.9724 42.0719 55.8861 41.812 55.8861 41.509C55.8861 41.3354 55.9077 41.1839 55.9724 41.054C56.0371 40.924 56.1239 40.7941 56.2318 40.7073C56.3397 40.5994 56.4691 40.5342 56.6417 40.4695C56.7927 40.4043 56.9653 40.3827 57.1379 40.3827C57.3105 40.3827 57.4615 40.4043 57.5694 40.4259C57.6988 40.4479 57.7851 40.5126 57.893 40.5558C57.9798 40.5994 58.0661 40.6642 58.1092 40.7078C58.174 40.7509 58.2171 40.8157 58.2387 40.8372L57.9577 41.3354ZM61.6695 41.2923L61.5832 41.2055C61.54 41.1623 61.4969 41.1407 61.4322 41.0976C61.3674 41.054 61.3027 41.0324 61.2164 40.9892C61.1252 40.9625 61.031 40.9478 60.936 40.9456C60.7849 40.9456 60.6339 40.9672 60.5045 41.0324C60.375 41.0971 60.2456 41.1844 60.1593 41.3138C60.0514 41.4438 59.9867 41.6169 59.922 41.812C59.8572 42.0287 59.8352 42.2665 59.8352 42.5485C59.8352 42.8731 59.8572 43.1329 59.922 43.3712C59.9651 43.588 60.0514 43.761 60.1377 43.891C60.224 44.0209 60.3319 44.1077 60.4613 44.1724C60.5908 44.2376 60.7418 44.2592 60.8928 44.2592C61.1086 44.2592 61.2812 44.2156 61.4106 44.1509C61.5185 44.0641 61.6048 43.9988 61.6695 43.9557L61.972 44.4754C61.9504 44.5191 61.8857 44.5622 61.8426 44.6054C61.7778 44.649 61.7126 44.7137 61.6263 44.7574C61.5216 44.808 61.4135 44.8512 61.3027 44.8868C61.1532 44.9142 61.0016 44.9288 60.8497 44.9305C60.6123 44.9305 60.375 44.8868 60.1593 44.8221C59.944 44.7384 59.7516 44.6048 59.5979 44.4323C59.4468 44.2592 59.3174 44.0204 59.2311 43.7179C59.1448 43.4144 59.1017 43.0682 59.1017 42.6348C59.1017 42.2018 59.1448 41.8552 59.2743 41.5737C59.4037 41.2923 59.5331 41.054 59.7057 40.8593C59.8714 40.6909 60.0698 40.5583 60.2887 40.4695C60.4941 40.3849 60.7139 40.3408 60.936 40.3396C61.1086 40.3396 61.238 40.3611 61.3674 40.3827C61.4969 40.4043 61.6048 40.4479 61.6911 40.4906C61.7778 40.5347 61.8426 40.5779 61.9073 40.6426C61.972 40.6857 62.0152 40.7294 62.0583 40.7725L61.6695 41.2923ZM65.1439 44.8221V42.0067C65.1439 41.6389 65.0792 41.379 64.9498 41.2055C64.8203 41.0324 64.6261 40.9672 64.3888 40.9672C64.1731 40.9672 63.9789 41.0108 63.8495 41.1408C63.6984 41.2486 63.5901 41.357 63.5038 41.4653V44.8437H62.7703V38.3905L63.5038 38.3037V40.9025H63.5254C63.5469 40.8593 63.5901 40.8157 63.6332 40.7505C63.6769 40.6857 63.7632 40.621 63.8495 40.5779C63.9358 40.5126 64.0436 40.4695 64.1731 40.4259C64.3025 40.3827 64.4535 40.3611 64.6261 40.3611C65.0145 40.3611 65.3165 40.4911 65.5327 40.7289C65.7485 40.9887 65.8779 41.4006 65.8779 41.9635V44.8437L65.1439 44.8221ZM70.0428 44.8221H69.3739V44.3239H69.3524C69.3308 44.3676 69.2872 44.4107 69.244 44.4759C69.1793 44.5407 69.1146 44.6054 69.0067 44.6706C68.9204 44.7353 68.791 44.8005 68.6615 44.8437C68.515 44.8896 68.362 44.9116 68.2084 44.9089C68.0143 44.9089 67.8417 44.8873 67.6907 44.8221C67.5401 44.7612 67.4067 44.6646 67.3018 44.5407C67.194 44.4107 67.1077 44.2376 67.0429 44.0425C66.9782 43.8478 66.9566 43.588 66.9566 43.2844V40.4479H67.6907V43.2629C67.6907 43.6306 67.7554 43.8905 67.8633 44.0425C67.9711 44.1945 68.1653 44.2808 68.4026 44.2808C68.6184 44.2808 68.7909 44.2376 68.942 44.1288C69.093 44.0209 69.2009 43.9126 69.2872 43.8042V40.4479H70.0212L70.0428 44.8221ZM73.5603 44.8221V42.0067C73.5603 41.6389 73.4956 41.379 73.3662 41.2055C73.2367 41.0324 73.0421 40.9672 72.8047 40.9672C72.589 40.9672 72.3948 41.0108 72.2654 41.1408C72.1144 41.2486 72.0065 41.357 71.9202 41.4653V44.8437H71.1862V40.4479H71.8555V40.9456H71.8771C71.8986 40.9025 71.9418 40.8593 71.9849 40.7941C72.0496 40.7294 72.1144 40.6642 72.2222 40.5994C72.3301 40.5342 72.438 40.4695 72.5674 40.4259C72.6969 40.3827 72.8479 40.3611 73.0205 40.3611C73.2151 40.3611 73.3877 40.3827 73.5603 40.4479C73.7114 40.5126 73.8624 40.5994 73.9702 40.7294C74.0781 40.8593 74.1644 41.0324 74.2291 41.227C74.2939 41.4222 74.3154 41.6821 74.3154 41.9851V44.8653L73.5603 44.8221ZM78.5234 41.0108H77.984C78.1135 41.2491 78.1998 41.509 78.1998 41.7904C78.1998 42.0287 78.1566 42.2234 78.0919 42.418C78.0056 42.6132 77.9193 42.7647 77.7683 42.8946C77.6388 43.0246 77.4663 43.1114 77.2937 43.1982C77.0995 43.2629 76.9053 43.306 76.6891 43.306H76.4733C76.387 43.3281 76.3223 43.3928 76.236 43.458C76.1497 43.5227 76.1282 43.6095 76.1282 43.7179C76.1282 43.8042 76.1713 43.891 76.236 43.9341C76.3008 43.9993 76.4302 44.0209 76.5812 44.0209H77.1426C77.3584 44.0209 77.5526 44.0425 77.7251 44.0856C77.8977 44.1293 78.0488 44.194 78.1782 44.2808C78.3076 44.3676 78.4155 44.4975 78.4802 44.6485C78.545 44.8005 78.5881 44.9736 78.5881 45.1683C78.5881 45.4066 78.545 45.6233 78.4371 45.8184C78.3292 46.0131 78.1998 46.1862 78.0056 46.3161C77.833 46.4461 77.5957 46.5544 77.3368 46.6412C77.0779 46.728 76.7754 46.7491 76.4733 46.7491C75.9987 46.7491 75.6535 46.6412 75.4162 46.4461C75.1789 46.2514 75.0494 45.9484 75.0494 45.5586C75.0494 45.385 75.071 45.2551 75.1357 45.1251C75.2005 45.0173 75.2652 44.9089 75.3515 44.8221C75.4378 44.7353 75.5025 44.6701 75.5888 44.6054C75.6751 44.5622 75.7398 44.5191 75.783 44.4754V44.4539C75.5888 44.3239 75.5025 44.1077 75.5025 43.8478C75.5025 43.7395 75.5241 43.6311 75.5672 43.5443C75.6104 43.4575 75.6751 43.3928 75.7182 43.3281C75.783 43.2844 75.8261 43.2197 75.8908 43.1982C75.9556 43.1761 75.9987 43.1329 76.0203 43.1329V43.1114C75.8045 43.0035 75.6104 42.8515 75.4809 42.6132C75.3515 42.3965 75.2652 42.115 75.2652 41.7468C75.2652 41.509 75.3083 41.2923 75.3731 41.0971C75.4594 40.9025 75.5672 40.7509 75.6967 40.6426C75.8261 40.5347 75.9987 40.4259 76.1713 40.3611C76.3439 40.2959 76.5381 40.2743 76.7538 40.2743C76.97 40.2743 77.1642 40.318 77.3368 40.3827H78.6744L78.5234 41.0108ZM76.4949 44.6922C76.3655 44.6922 76.2576 44.6922 76.1497 44.6706C76.085 44.6922 76.0419 44.7353 75.9987 44.7785C75.9556 44.8221 75.8908 44.8652 75.8693 44.9305C75.8261 44.9952 75.783 45.0604 75.7614 45.1467C75.7348 45.2384 75.7203 45.3332 75.7182 45.4286C75.7182 45.9047 75.9771 46.1215 76.4949 46.1215C76.9485 46.1215 77.2721 46.0347 77.4878 45.8616C77.7036 45.6885 77.8114 45.4938 77.8114 45.2551C77.8114 45.0168 77.7467 44.8873 77.6173 44.8005C77.4878 44.7137 77.3152 44.6706 77.0779 44.6706H76.4949V44.6922ZM77.4663 41.7904C77.4663 41.4653 77.4015 41.2491 77.2505 41.1187C77.1078 40.9919 76.9231 40.9226 76.7322 40.924C76.5165 40.924 76.3439 40.9892 76.1929 41.1192C76.0419 41.2491 75.9556 41.4869 75.9556 41.7904C75.9556 42.0934 76.0419 42.3317 76.1929 42.4617C76.3439 42.5916 76.5165 42.6563 76.7107 42.6563C76.9269 42.6563 77.0995 42.5916 77.2505 42.4617C77.4015 42.3538 77.4663 42.1155 77.4663 41.7904Z" fill="#181716"/>
<path d="M24.0347 50.9727H25.1786V66.3262H22.5029V50.9727H24.0347Z" fill="#F8D200"/>
<path d="M24.0347 35.5547H25.1786V50.9734H22.5029V35.5547H24.0347Z" fill="#E3000B"/>
<path d="M15.532 25.6364C16.3092 26.8706 16.9349 26.849 17.863 26.849C17.0859 26.264 16.5897 25.5065 16.3524 25.1167L14.928 22.821C14.7951 22.0988 14.4225 21.4427 13.8703 20.9587C14.065 20.8935 14.216 20.8067 14.3018 20.742C13.3741 20.742 12.4464 20.2659 11.9287 20.2659C11.605 20.2659 11.3893 20.4606 11.3893 20.7204C11.4104 21.0019 11.7129 21.3049 12.2523 21.3049C12.3817 21.3049 12.5327 21.2833 12.7053 21.2617C13.0074 21.6736 13.2447 22.0414 13.2447 22.5827C13.2447 23.579 12.0365 24.3802 10.8274 24.3802H10.6337C10.5258 24.1419 10.1591 23.7085 10.1591 23.2328C10.1591 22.4312 10.6769 21.7815 10.6769 20.9803C10.6769 20.4821 10.4395 20.1791 10.3532 20.0487C10.5043 19.9192 10.6553 19.7462 10.6984 19.6157C10.6121 19.6594 10.5043 19.6594 10.3532 19.6594C9.77025 19.6594 9.29561 19.5074 8.84255 19.5074C8.58366 19.5074 8.51894 19.5942 8.51894 19.6594C8.51894 19.6809 8.51894 19.7241 8.54051 19.7241C8.44294 19.6854 8.34177 19.6565 8.23847 19.6378C8.09608 19.6115 7.95177 19.5969 7.80699 19.5941C7.24557 19.5941 7.0514 19.8324 7.0514 20.0276C7.0514 20.2007 7.18085 20.5037 7.33187 20.742C7.54761 20.6341 7.8065 20.5473 7.93595 20.5473C8.23847 20.5473 8.49737 20.8288 8.62681 21.175C8.43264 21.197 8.38949 21.197 8.19533 21.197C7.65597 21.197 7.28872 21.0019 7.20242 21.0019C7.20242 21.0019 7.18085 21.0019 7.18085 21.0234C7.18085 21.1102 7.33187 21.3049 7.63391 21.4133C8.04382 21.5653 8.62681 21.63 8.73468 21.63C8.73468 21.6515 8.62681 21.8462 8.51894 21.8683H8.45422C8.04382 21.7815 7.91486 21.7599 7.39659 21.5432C7.37501 21.5432 7.37501 21.5432 7.37501 21.5648C7.37501 21.7815 7.91437 22.2365 8.41107 22.4096C8.00067 22.9293 7.50446 23.4707 7.24557 24.2718H7.0514C5.84275 24.2718 4.6341 23.4922 4.6341 22.4743C4.6341 21.933 4.87191 21.5648 5.17346 21.1534C5.34654 21.175 5.49756 21.197 5.62701 21.197C6.16637 21.197 6.4689 20.8935 6.48998 20.6121C6.48998 20.3522 6.27424 20.1575 5.95062 20.1575C5.43284 20.1575 4.52672 20.6336 3.57746 20.6336C3.66326 20.6989 3.81428 20.7856 4.00894 20.8504C3.47159 21.3462 3.10194 21.9971 2.95131 22.7126L1.52692 25.0083C1.2896 25.3981 0.771822 26.1557 0.0167236 26.7406C0.944416 26.7406 1.5485 26.7622 2.34674 25.528L3.08076 24.3586C3.12391 24.5101 3.2102 24.6616 3.27493 24.8132L1.80739 27.152C1.57007 27.5418 1.07386 28.2783 0.297189 28.8843C1.22488 28.8843 1.82896 28.9059 2.6277 27.6717L3.87901 25.658C3.9653 25.7659 4.07317 25.8526 4.18104 25.961L2.41147 28.798C2.17415 29.1878 1.67794 29.9238 0.901268 30.5303C1.82896 30.5303 2.43304 30.5519 3.23178 29.3178L4.95772 26.5455C5.06559 26.6107 5.19552 26.6975 5.3034 26.7622L3.18863 30.1405C2.95131 30.5303 2.45461 31.2668 1.67843 31.8728C2.60612 31.8728 3.2102 31.8944 4.00845 30.6603L6.18794 27.1741L6.57677 27.3035L4.11632 31.2447C3.87901 31.6345 3.36122 32.3926 2.60612 32.9775C3.53382 32.9775 4.1379 32.9991 4.93663 31.7645L7.54761 27.5634C7.56918 27.5634 7.59076 27.5634 7.63391 27.585C7.69863 27.8233 7.76335 28.0184 7.76335 28.2346C7.76335 29.5556 6.90038 30.7255 5.86433 31.613C5.92905 31.6345 6.03692 31.6566 6.14479 31.6566C6.36053 31.6566 6.49047 31.6345 6.59834 31.6345C6.36102 32.1759 5.84324 32.8908 5.58386 33.259C5.20631 33.1917 4.82389 33.1555 4.44043 33.1506C4.11681 33.1506 4.07317 33.3453 4.07317 33.5184C4.07317 33.8219 4.22419 34.0817 4.3757 34.2117C4.44043 34.0597 4.56987 33.8439 5.19552 33.8439H5.26025C5.08765 34.0386 4.50515 34.5147 4.50515 34.8834C4.50515 35.1212 4.76404 35.511 5.1308 35.511C5.10923 35.4243 5.10923 35.359 5.10923 35.2943C5.10923 34.9913 5.36812 34.6446 5.60544 34.3848V34.5368C5.60544 35.2512 5.67016 35.5763 6.12322 35.5763C6.33896 35.5763 6.49047 35.4458 6.5547 35.4243C6.25266 35.1428 6.25266 34.9482 6.25266 34.5368V34.1901C6.25266 34.1033 6.25266 33.9734 6.23158 33.8871C6.40417 33.865 6.4689 33.865 6.57677 33.865C6.57677 33.865 7.224 33.8219 7.37501 34.147C7.54761 33.995 7.8065 33.7567 7.8065 33.5189C7.8065 33.3453 7.7202 33.1722 7.39659 33.1722C7.26714 33.1722 6.87881 33.259 6.55519 33.259C6.64149 33.0638 7.02983 32.4794 7.37501 32.0675C7.41816 32.2411 7.50446 32.4142 7.67705 32.5441C7.69863 32.2842 7.84965 31.4183 8.28162 30.9201C8.32477 31.2663 8.38949 31.613 8.38949 32.3274C8.38949 34.1033 7.95801 35.4243 7.05091 35.6626C7.15927 35.8577 7.41865 36.0524 7.67705 36.0524C8.00067 36.0524 8.19484 35.6846 8.36792 35.3159C8.45422 35.5758 8.73468 36.2254 8.99357 36.2254C9.25246 36.2254 9.51136 35.5758 9.61923 35.3159C9.79182 35.6626 9.98599 36.0524 10.3101 36.0524C10.569 36.0524 10.8063 35.8577 10.9357 35.6626C10.0291 35.4243 9.59765 34.1033 9.59765 32.3279C9.59765 31.5914 9.66238 31.2447 9.70552 30.9201C10.137 31.4183 10.2885 32.2626 10.3101 32.5441C10.4827 32.3926 10.569 32.2195 10.6121 32.068C10.9573 32.4794 11.3457 33.0638 11.432 33.259C11.1083 33.259 10.6984 33.1722 10.5906 33.1722C10.2669 33.1722 10.1806 33.3669 10.1806 33.5189C10.1806 33.7572 10.4395 33.995 10.6121 34.1465C10.7632 33.8219 11.4104 33.865 11.4104 33.865C11.5398 33.865 11.6045 33.865 11.7556 33.8866C11.734 33.9734 11.734 34.1033 11.734 34.1901V34.5368C11.734 34.9482 11.7124 35.1428 11.432 35.4243C11.4751 35.4679 11.6261 35.5763 11.8634 35.5763C12.317 35.5763 12.3817 35.2512 12.3817 34.5368V34.3848C12.5975 34.6231 12.8779 34.9913 12.8779 35.2943C12.8779 35.338 12.8779 35.4243 12.8563 35.511C13.2015 35.511 13.482 35.1433 13.482 34.8834C13.482 34.5147 12.9211 34.0386 12.7269 33.8439H12.7916C13.4173 33.8439 13.5467 34.0597 13.6114 34.2117C13.784 34.0817 13.914 33.8219 13.914 33.5189C13.914 33.3453 13.8708 33.1506 13.5467 33.1506C13.2231 33.1506 12.7269 33.1938 12.3817 33.2585C12.1228 32.8908 11.6045 32.1979 11.3672 31.6345C11.4535 31.6561 11.6045 31.6561 11.8208 31.6561C11.9287 31.6561 12.0365 31.6561 12.1012 31.613C11.0652 30.7255 10.2022 29.5556 10.2022 28.2346C10.2022 28.0184 10.2454 27.8233 10.3317 27.585C10.3532 27.585 10.3748 27.585 10.418 27.5634L13.0289 31.7645C13.8061 32.9991 14.4313 32.9775 15.3595 32.9775C14.6044 32.3926 14.0866 31.6345 13.8493 31.2447L11.3241 27.3687L11.7124 27.2388L13.8919 30.725C14.6691 31.9596 15.2947 31.9381 16.2229 31.9381C15.4457 31.3531 14.9495 30.5951 14.7122 30.2053L12.5975 26.8269C12.7269 26.7622 12.8348 26.6975 12.9426 26.6107L14.6691 29.3825C15.4457 30.6166 16.0714 30.5951 16.9996 30.5951C16.2229 30.0106 15.7267 29.2526 15.4894 28.8627L13.7193 26.0257C13.8272 25.9394 13.914 25.8311 14.0218 25.7227L15.2732 27.737C16.0503 28.9711 16.676 28.9495 17.6042 28.9495C16.827 28.3646 16.3308 27.6065 16.0935 27.2172L14.6259 24.8784C14.7122 24.7264 14.7769 24.5749 14.8201 24.4234L15.532 25.6364ZM3.81477 22.9504C3.81477 22.084 4.44092 21.3912 4.67774 21.1965C4.72138 21.2181 4.78561 21.2181 4.82925 21.2397C4.59194 21.5427 4.18203 22.0193 4.18203 22.669C4.18203 23.9468 5.5412 25.051 7.09504 25.051C7.07347 25.1588 7.07347 25.2677 7.07347 25.3976C7.07347 25.5923 7.09504 25.7654 7.09504 25.9174C5.36861 25.8953 3.81477 24.466 3.81477 22.9504ZM6.18843 33.4316L6.16735 33.4532H6.18843C6.68513 33.4532 6.92245 33.41 7.07347 33.3884C7.15976 33.3884 7.22449 33.3669 7.28921 33.3669C7.41865 33.3669 7.50495 33.3884 7.50495 33.5399C7.50495 33.6478 7.3755 33.8214 7.26763 33.9077C7.09504 33.7346 6.83615 33.713 6.46939 33.713C6.29679 33.713 6.08056 33.7346 5.95111 33.7562H5.90797V33.8214C5.92954 33.9293 5.95111 34.0597 5.95111 34.2333V34.5794C5.95111 34.9908 6.01584 35.2291 6.14528 35.4238C6.10213 35.4453 6.03741 35.4453 6.01584 35.4453C5.75695 35.4453 5.67065 35.3375 5.67065 34.5794C5.67065 34.4274 5.67065 34.2764 5.64907 34.1896V34.0597L5.60593 34.0813C5.21759 34.3843 4.82925 34.904 4.80768 35.2938C4.69981 35.2075 4.57036 35.0555 4.57036 34.9261C4.57036 34.7094 4.89398 34.3843 5.26074 34.0165L5.47648 33.7998L5.49805 33.7782L5.43333 33.7567C5.34703 33.7346 5.19601 33.6915 5.08814 33.6915C4.67823 33.6915 4.41934 33.7782 4.24626 33.9513C4.18153 33.8645 4.13839 33.6699 4.13839 33.5615C4.13839 33.4963 4.15996 33.4316 4.18153 33.4095C4.22468 33.3664 4.26783 33.3664 4.33255 33.3664H4.35413C4.80768 33.3664 5.36861 33.4532 5.58484 33.4747H5.60593C5.64907 33.4316 6.51253 32.2622 6.74985 31.6341C6.8093 31.6019 6.87654 31.5869 6.94402 31.5909C7.11661 31.5909 7.15976 31.6988 7.20291 31.8939C6.66355 32.5657 6.31788 33.0854 6.18843 33.4316ZM10.9147 31.5909C11.001 31.5909 11.0441 31.6125 11.1088 31.6341C11.3461 32.2622 12.2096 33.4316 12.2528 33.4747V33.4963H12.2743C12.4901 33.4532 13.0294 33.3669 13.5041 33.3669H13.5256C13.5688 33.3669 13.6335 33.3669 13.6767 33.41C13.6982 33.4316 13.7198 33.4968 13.7198 33.5615C13.7198 33.6694 13.6767 33.8645 13.6119 33.9513C13.4393 33.7782 13.1805 33.6915 12.7705 33.6915C12.6411 33.6915 12.4901 33.7346 12.4254 33.7567H12.4038L12.3606 33.7782L12.5979 34.0165C12.9647 34.3843 13.2883 34.7094 13.2883 34.9256C13.2883 35.0555 13.1589 35.2291 13.051 35.2938C13.0294 34.904 12.6411 34.3843 12.2528 34.0813L12.2312 34.0597V34.1896C12.2312 34.2764 12.2096 34.4279 12.2096 34.5794C12.2096 35.3154 12.1233 35.4453 11.886 35.4453C11.8428 35.4453 11.7781 35.4238 11.7561 35.4238C11.9071 35.2507 11.9502 35.0124 11.9502 34.5794V34.2328C11.9502 34.0597 11.9723 33.9298 11.9723 33.8214V33.7567H11.9291C11.7577 33.7295 11.5845 33.7149 11.4109 33.713C11.0441 33.713 10.7852 33.7346 10.6126 33.9082C10.4832 33.8214 10.3753 33.6483 10.3753 33.5399C10.3753 33.3879 10.4616 33.3669 10.591 33.3669C10.6558 33.3669 10.7205 33.3669 10.8068 33.3884C10.9578 33.41 11.1951 33.4532 11.6913 33.4532H11.7129V33.4316C11.5835 33.0849 11.2383 32.5652 10.6989 31.8939C10.6989 31.7208 10.7421 31.5909 10.9147 31.5909ZM8.88619 21.3912C8.84304 21.1529 8.7136 20.9367 8.56258 20.7636C8.43313 20.6116 8.19582 20.4169 7.89329 20.4169C7.76384 20.4169 7.52652 20.4816 7.3755 20.5468C7.31078 20.4385 7.20291 20.2002 7.20291 20.0918C7.20291 19.984 7.39708 19.8751 7.74227 19.8751C8.54101 19.8751 8.99406 20.2218 8.99406 20.8283C9.03721 21.023 8.95092 21.2181 8.88619 21.3912ZM9.23138 20.6116C9.2123 20.4444 9.14482 20.2864 9.03721 20.157C9.03721 20.005 9.10194 19.8535 9.36083 19.9835C9.23138 20.1134 9.33925 20.3733 9.33925 20.3733C9.33925 20.3733 9.61972 20.2433 9.55499 20.0703C9.9654 20.1355 9.66287 20.6979 9.23138 20.6116ZM10.7852 25.8953C10.8068 25.7222 10.8068 25.5491 10.8068 25.3756C10.8068 25.2677 10.8068 25.1593 10.7852 25.0294C12.3175 25.0078 13.6551 23.9031 13.6551 22.6474C13.6551 21.9977 13.2452 21.5211 13.0079 21.2181C13.051 21.1965 13.1157 21.1965 13.1805 21.1745C13.3962 21.3696 14.0434 22.0624 14.0434 22.9288C14.0223 24.4665 12.5116 25.8737 10.7852 25.8953ZM25.1787 20.2659V35.6194H22.503V20.2659H25.1787ZM30.811 4.95553V0.949582H32.1055C32.6669 0.949582 32.8395 1.14424 32.9905 1.36047C33.12 1.5772 33.1415 1.81549 33.1415 1.88022C33.1415 2.37839 32.9689 2.70298 32.4512 2.83292V2.85498C33.0121 2.9197 33.271 3.26636 33.271 3.80768C33.271 4.82559 32.5375 4.93346 32.0628 4.93346H30.811V4.95553ZM31.3288 2.63826H32.0628C32.4512 2.63826 32.6453 2.37839 32.6453 2.01064C32.6453 1.68556 32.4512 1.40411 32.0413 1.40411H31.3288V2.63826ZM31.3288 4.50051H32.0413C32.5806 4.50051 32.7748 4.1107 32.7748 3.82925C32.7748 3.20164 32.3864 3.09279 31.8682 3.09279H31.3288V4.50051ZM34.134 4.95553V0.949582H36.184V1.40411H34.6302V2.68141H36.0766V3.11485H34.6302V4.50051H36.2056V4.95553H34.134ZM37.7815 0.949582H38.4287L39.7232 4.93346H39.1622L38.8818 3.98076H37.3495L37.0475 4.93346H36.5297L37.7815 0.949582ZM38.0835 1.4252L37.4579 3.5483H38.7307L38.0835 1.4252ZM40.2409 0.949582H40.7592V3.50417C40.7592 4.37057 41.0181 4.60887 41.5143 4.60887C42.0105 4.60887 42.2694 4.39215 42.2694 3.50466V0.949092H42.7877V3.4826C42.7877 4.5873 42.3773 5.02025 41.5359 5.02025C40.6945 5.02025 40.2841 4.5873 40.2841 3.4826L40.2409 0.949582ZM43.5864 4.95553V0.949582H45.5502V1.40411H44.1037V2.68141H45.4854V3.11485H44.1042V4.95553H43.5864ZM48.3117 0.949582V1.40411H47.2545V4.95553H46.7583V1.40411H45.7007V0.949092H48.3122L48.3117 0.949582ZM49.3262 3.11485V4.95553H48.8084V0.949582H50.1896C50.9016 0.949582 51.1389 1.44726 51.1389 1.94494C51.1389 2.42153 50.88 2.76819 50.4054 2.85498V2.87656C50.8584 2.94128 51.031 3.11485 51.0526 3.91604C51.0526 4.08913 51.1173 4.71723 51.182 4.95553H50.6427C50.4916 4.67408 50.5348 4.15434 50.4916 3.6346C50.4485 3.158 50.0602 3.13643 49.8876 3.13643L49.3262 3.11485ZM49.3262 2.65983H50.0817C50.4485 2.65983 50.6211 2.35681 50.6211 1.98858C50.6211 1.70713 50.4701 1.38205 50.0817 1.38205H49.3262V2.65983ZM52.8006 0.949582H53.4483L54.7433 4.93346H54.1818L53.9014 3.98076H52.3691L52.0671 4.93346H51.5493L52.8006 0.949582ZM53.1031 1.4252L52.477 3.54781H53.7503L53.1031 1.4252ZM57.1811 2.01015C57.1811 1.53356 56.987 1.29526 56.4692 1.29526C56.3182 1.29526 55.7352 1.31733 55.7352 2.16166V3.50417C55.7352 4.37057 55.9946 4.60887 56.4692 4.60887C56.836 4.60887 57.0733 4.50051 57.1811 4.4353V3.2443H56.4476V2.78977H57.6994V4.73881C57.3287 4.94054 56.9128 5.04481 56.4908 5.04183C55.6489 5.04183 55.239 4.60887 55.239 3.50417V2.18324C55.239 1.38205 55.6489 0.883879 56.4908 0.883879C57.3322 0.883879 57.7641 1.18739 57.721 2.03173H57.1811V2.01015ZM60.8718 0.949582V1.40411H59.8142V4.95553H59.318V1.40411H58.2603V0.949092L60.8718 0.949582ZM64.0006 4.95553H63.3965L62.231 0.949582H62.7919L63.6985 4.45736H63.7201L64.6478 0.949092H65.1661L64.0006 4.95553ZM65.6623 3.4826V2.16166C65.6623 1.36047 66.0722 0.862305 66.9141 0.862305C67.7555 0.862305 68.1654 1.36047 68.1654 2.16166V3.4826C68.1654 4.5873 67.7555 5.02025 66.9141 5.02025C66.0722 5.02025 65.6623 4.5873 65.6623 3.4826ZM67.6476 3.50417V2.16166C67.6476 1.31733 67.0651 1.29575 66.9141 1.29575C66.763 1.29575 66.1801 1.31733 66.1801 2.16166V3.50417C66.1801 4.37057 66.4389 4.60887 66.9141 4.60887C67.3887 4.60887 67.6476 4.37057 67.6476 3.50417ZM69.525 4.95553H69.0504V0.949582H69.8707L70.8847 4.30585L71.8992 0.949092H72.7406V4.95504H72.2228V1.4046L71.1005 4.95602H70.6258L69.5466 1.4046H69.525V4.95553Z" fill="#181716"/>
</g>
<defs>
<clipPath id="clip0_845_28926">
<rect width="93.1616" height="66.1937" fill="white" transform="translate(0 0.439453)"/>
</clipPath>
</defs>
</svg>
