<svg width="60" height="60" viewBox="0 0 60 60" fill="none" xmlns="http://www.w3.org/2000/svg">
<circle cx="30.0925" cy="29.9075" r="29.9075" fill="white"/>
<path fill-rule="evenodd" clip-rule="evenodd" d="M22.4799 28.6975L22.3857 28.6143C22.0252 28.2539 21.9975 27.6866 22.3025 27.2943L22.3857 27.2001L29.3857 20.2001L29.4296 20.1587V20.1587L29.4975 20.1036V20.1036L29.6087 20.0319V20.0319L29.7214 19.9785V19.9785L29.8268 19.9431V19.9431L29.9747 19.9141V19.9141L30.0928 19.9072V19.9072L30.168 19.91V19.91L30.2935 19.9275V19.9275L30.4049 19.957V19.957L30.516 20.0009V20.0009L30.6135 20.0532V20.0532L30.7182 20.1269V20.1269L30.7999 20.2001L37.7999 27.2001C38.1904 27.5906 38.1904 28.2238 37.7999 28.6143C37.4394 28.9748 36.8722 29.0025 36.4799 28.6975L36.3857 28.6143L31.0928 23.3232L31.0928 38.9072C31.0928 39.4595 30.6451 39.9072 30.0928 39.9072C29.5405 39.9072 29.0928 39.4595 29.0928 38.9072L29.0928 23.3212L23.7999 28.6143C23.4394 28.9748 22.8722 29.0025 22.4799 28.6975L22.3857 28.6143L22.4799 28.6975Z" fill="#ECECEC" stroke="#FF2C00" stroke-width="2"/>
</svg>
