<svg width="60" height="61" viewBox="0 0 60 61" fill="none" xmlns="http://www.w3.org/2000/svg">
<circle cx="30.0925" cy="30.4729" r="29.9075" fill="white"/>
<path fill-rule="evenodd" clip-rule="evenodd" d="M22.4796 29.263L22.3854 29.1798C22.0249 28.8193 21.9972 28.252 22.3022 27.8598L22.3854 27.7656L29.3854 20.7655L29.4294 20.7242V20.7242L29.4972 20.669V20.669L29.6085 20.5973V20.5973L29.7212 20.5439V20.5439L29.8265 20.5085V20.5085L29.9744 20.4796V20.4796L30.0925 20.4727V20.4727L30.1678 20.4754V20.4754L30.2933 20.4929V20.4929L30.4047 20.5224V20.5224L30.5157 20.5663V20.5663L30.6132 20.6187V20.6187L30.718 20.6923V20.6923L30.7996 20.7655L37.7996 27.7655C38.1902 28.1561 38.1902 28.7892 37.7996 29.1798C37.4392 29.5402 36.8719 29.568 36.4796 29.263L36.3854 29.1798L31.0925 23.8887L31.0925 39.4727C31.0925 40.0249 30.6448 40.4727 30.0925 40.4727C29.5402 40.4727 29.0925 40.0249 29.0925 39.4727L29.0925 23.8867L23.7996 29.1798C23.4392 29.5402 22.8719 29.568 22.4796 29.263L22.3854 29.1798L22.4796 29.263Z" fill="#ECECEC" stroke="#FA7268" stroke-width="2"/>
</svg>
