<svg width="116" height="26" viewBox="0 0 116 26" fill="none" xmlns="http://www.w3.org/2000/svg">
<g clip-path="url(#clip0_845_28932)">
<rect width="115.226" height="25.4968" transform="translate(0.199951 0.136719)" fill="white"/>
<path d="M38.3334 0.136719H0.199951V25.6336H38.3334V0.136719Z" fill="white"/>
<path d="M37.5838 0.836914H0.924194V24.9079H37.5838V0.836914Z" fill="#034EA2"/>
<path d="M18.4782 6.08116L19.2539 5.52071L20.0296 6.08116L19.7319 5.177L20.5076 4.6298H19.5515L19.2539 3.71289L18.9567 4.6298H17.9869L18.7753 5.177L18.4782 6.08116ZM14.4708 7.1378L15.2465 6.57785L16.0222 7.1378L15.725 6.24688L16.5135 5.68644H15.5441L15.2465 4.77003L14.9493 5.68693H13.98L14.7684 6.24688L14.4708 7.1378ZM12.3124 7.65951L12.0147 8.57592H11.0586L11.8338 9.13587L11.5494 10.0273L12.3124 9.46684L13.0881 10.0273L12.7904 9.13587L13.5789 8.57592H12.61L12.3129 7.65902L12.3124 7.65951ZM11.239 13.413L12.0147 13.9729L11.7176 13.0693L12.506 12.5093H11.5362L11.2386 11.6056L10.9414 12.5093H9.97205L10.7605 13.0693L10.4629 13.9729L11.239 13.413ZM12.61 16.4554L12.3124 15.5518L12.0147 16.4554H11.0586L11.8338 17.0154L11.5494 17.919L12.3124 17.3591L13.0881 17.919L12.7904 17.0154L13.5789 16.4554H12.61ZM15.5441 19.3449L15.2465 18.4412L14.9621 19.3449H13.9927L14.7684 19.9053L14.484 20.809L15.2465 20.2491L16.0222 20.809L15.7378 19.9053L16.5135 19.3449H15.5441ZM19.551 20.4016L19.2539 19.4847L18.9567 20.4016H17.9869L18.7753 20.9492L18.4782 21.8529L19.2539 21.2925L20.0296 21.8529L19.7319 20.9492L20.5209 20.4016H19.551ZM23.5457 19.3449L23.2485 18.4412L22.9509 19.3449H21.9815L22.77 19.9053L22.4729 20.809L23.2485 20.2491L24.0237 20.809L23.7266 19.9053L24.5151 19.3449H23.5457ZM26.4798 16.4554L26.1826 15.5518L25.8855 16.4554H24.9156L25.7041 17.0154L25.407 17.919L26.1826 17.3591L26.9583 17.919L26.6607 17.0154L27.4492 16.4554H26.4798ZM28.5092 12.497H27.5394L27.2422 11.5929L26.9451 12.497H25.9752L26.7637 13.057L26.4793 13.9607L27.2422 13.4007L28.0179 13.9607L27.7203 13.057L28.5092 12.497ZM25.407 10.0145L26.1826 9.46733L26.9583 10.0145L26.6607 9.12362L27.4492 8.56367H26.4798L26.1826 7.64676L25.8855 8.56367H24.9156L25.7041 9.12362L25.407 10.0145ZM23.2613 4.77003L22.9637 5.68693H21.9948L22.7832 6.24688L22.4861 7.1378L23.2618 6.57785L24.0375 7.1378L23.7399 6.24688L24.5283 5.68644H23.5589L23.2613 4.77003Z" fill="#FFF200"/>
<path d="M42.1212 6.20841V0.836914H45.8697V1.74009H43.2328V3.01297H45.5079V3.91713H43.2328V6.20841H42.1212ZM46.7749 1.79157V0.836914H47.8222V1.79157H46.7749ZM46.7749 6.20841V2.31377H47.8222V6.2089L46.7749 6.20841ZM52.4886 6.2089H51.4413V4.22309C51.4413 3.80288 51.4153 3.53566 51.3766 3.40817C51.3338 3.29108 51.2574 3.18925 51.1569 3.11545C51.0534 3.03896 50.9372 3.01346 50.795 3.01346C50.6141 3.01346 50.4459 3.06446 50.3037 3.15369C50.1639 3.24327 50.059 3.37809 50.0066 3.53566C49.9546 3.68815 49.9291 3.99362 49.9291 4.42658V6.19615H48.8818V2.31377H49.8512V2.88647C50.2003 2.44076 50.6269 2.22453 51.1569 2.22453C51.3898 2.22453 51.5962 2.26278 51.7904 2.35202C51.9841 2.42802 52.1263 2.54275 52.2297 2.66974C52.3332 2.79723 52.3979 2.93746 52.4367 3.1027C52.4754 3.26843 52.5014 3.49741 52.5014 3.79014L52.4886 6.2089ZM54.3239 3.51016L53.3678 3.34443C53.4707 2.96247 53.6522 2.69524 53.9233 2.50402C54.1817 2.32603 54.5696 2.23679 55.0869 2.23679C55.5522 2.23679 55.9013 2.28778 56.1337 2.40252C56.3666 2.51676 56.5215 2.64425 56.6122 2.80949C56.7025 2.97522 56.7544 3.28069 56.7544 3.72639L56.7412 4.92278C56.7412 5.26601 56.7544 5.52098 56.7932 5.68671C56.8319 5.85195 56.8834 6.02993 56.9869 6.20841H55.9528C55.9125 6.10865 55.8779 6.00666 55.8493 5.90294C55.8423 5.85888 55.8292 5.81599 55.8106 5.77546C55.6419 5.93161 55.45 6.06063 55.2418 6.15791C55.0349 6.24617 54.8152 6.2849 54.5955 6.2849C54.195 6.2849 53.8718 6.18292 53.6262 5.95394C53.3933 5.73721 53.2771 5.45724 53.2771 5.12627C53.2771 4.91003 53.3286 4.70655 53.432 4.54082C53.5355 4.37558 53.6909 4.23535 53.8846 4.14611C54.0787 4.05736 54.3499 3.96812 54.7118 3.90438C55.2031 3.81514 55.5394 3.72639 55.7331 3.64941V3.5739C55.7331 3.37042 55.6816 3.23068 55.5909 3.15369C55.4874 3.06495 55.3065 3.02621 55.0221 3.02621C54.8412 3.02621 54.6863 3.06495 54.5828 3.14095C54.4793 3.21744 54.3886 3.31942 54.3239 3.51016ZM55.7331 4.33734C55.525 4.40014 55.3135 4.45105 55.0996 4.48983C54.8152 4.55357 54.6215 4.61731 54.5308 4.66831C54.3886 4.7698 54.3239 4.88454 54.3239 5.02477C54.3239 5.16451 54.3759 5.292 54.4921 5.39398C54.5955 5.49548 54.7377 5.54648 54.9059 5.54648C55.0996 5.54648 55.2805 5.48273 55.4487 5.36849C55.5782 5.27925 55.6556 5.16451 55.6944 5.02477C55.7203 4.93553 55.7331 4.7698 55.7331 4.51532V4.33734ZM61.3816 6.2089H60.3348V4.22309C60.3348 3.80288 60.3088 3.53566 60.2701 3.40817C60.2273 3.29108 60.1509 3.18925 60.0504 3.11545C59.9469 3.03896 59.8307 3.01346 59.6885 3.01346C59.5076 3.01346 59.3394 3.06446 59.1972 3.15369C59.055 3.24293 58.9516 3.38268 58.8996 3.53566C58.8481 3.68815 58.8221 3.99362 58.8221 4.42658V6.19615H57.788V2.31377H58.7574V2.88647C59.1065 2.44076 59.5331 2.22453 60.0631 2.22453C60.2961 2.22453 60.503 2.26278 60.6966 2.35202C60.8903 2.42802 61.0325 2.54275 61.136 2.66974C61.2394 2.79723 61.3042 2.93746 61.3429 3.1027C61.3816 3.26843 61.4076 3.49741 61.4076 3.79014L61.3816 6.2089ZM62.0284 6.20841V5.40673L63.5145 3.72639C63.7602 3.45917 63.9411 3.25568 64.0578 3.14095C63.9411 3.15369 63.7734 3.15369 63.5793 3.15369L62.1833 3.16644V2.31328H65.4538V3.03896L63.9411 4.75754L63.4116 5.33024C63.696 5.31749 63.8769 5.30475 63.9544 5.30475H65.57V6.2089L62.0284 6.20841ZM66.2555 1.79157V0.836914H67.3023V1.79157H66.2555ZM66.2555 6.20841V2.31377H67.3023V6.2089L66.2555 6.20841ZM70.6762 4.97378L71.7231 5.13902C71.6105 5.48826 71.3883 5.79191 71.0896 6.00493C70.8052 6.20841 70.4433 6.29765 70.004 6.29765C69.3185 6.29765 68.8017 6.08093 68.4786 5.63571C68.2202 5.27925 68.0907 4.83354 68.0907 4.29909C68.0907 3.6499 68.2589 3.1532 68.6075 2.78399C68.9566 2.41527 69.3832 2.23679 69.9005 2.23679C70.482 2.23679 70.9474 2.42802 71.2965 2.80949C71.6456 3.19194 71.8005 3.7769 71.7878 4.56632H69.1636C69.1763 4.87179 69.2543 5.11352 69.422 5.27925C69.5774 5.44449 69.7843 5.53422 70.0295 5.53422C70.1977 5.53422 70.3271 5.49548 70.4433 5.40673C70.5595 5.31749 70.6115 5.16451 70.6762 4.97378ZM70.7277 3.92988C70.7149 3.63715 70.6375 3.40817 70.4953 3.25519C70.3531 3.1027 70.1717 3.02621 69.952 3.02621C69.7196 3.02621 69.5387 3.1027 69.3832 3.26794C69.2283 3.43367 69.1636 3.6499 69.1636 3.92988H70.7277ZM73.6235 6.2089H72.5762V2.31377H73.5461V2.87372C73.7138 2.61875 73.856 2.44076 73.9982 2.35152C74.1276 2.27552 74.2825 2.22404 74.4507 2.22404C74.6836 2.22404 74.916 2.28778 75.1357 2.41527L74.8126 3.31893C74.6317 3.20469 74.4767 3.15369 74.3213 3.15369C74.1663 3.15369 74.0501 3.19194 73.9467 3.26843C73.8432 3.34443 73.7657 3.49741 73.701 3.7009C73.6363 3.90487 73.6103 4.33734 73.6103 5.01202L73.6235 6.2089ZM77.3981 2.31377V3.12771H76.6871V4.69331C76.6871 5.01202 76.6871 5.20276 76.7126 5.25375C76.7386 5.30426 76.7518 5.35525 76.8033 5.38124C76.8584 5.41304 76.9206 5.43042 76.9842 5.43174C77.0877 5.43174 77.2171 5.39349 77.4108 5.32975L77.5015 6.13192C77.2559 6.23342 76.9842 6.28441 76.6739 6.28441C76.4802 6.28441 76.312 6.25941 76.1571 6.19566C76.0016 6.13192 75.8986 6.05543 75.8207 5.95344C75.7447 5.82955 75.6962 5.69076 75.6785 5.54648C75.653 5.43174 75.6398 5.19001 75.6398 4.8208V3.14095H75.1617V2.31377H75.6398V1.5371L76.6871 0.938901V2.31377H77.3981ZM81.3408 6.20841L79.7506 2.31328H80.8494L81.5992 4.29909L81.8188 4.96103C81.8708 4.79579 81.9095 4.68154 81.9223 4.63006C81.961 4.51581 81.9998 4.41383 82.039 4.29909L82.7887 2.31328H83.8615L82.2841 6.20841H81.3408ZM84.2494 4.21034C84.2494 3.86663 84.3401 3.53566 84.5078 3.21744C84.6729 2.90657 84.9244 2.65012 85.232 2.47901C85.5543 2.30822 85.9141 2.22058 86.2788 2.22404C86.8736 2.22404 87.3649 2.41527 87.7527 2.79772C88.1401 3.17919 88.3215 3.66265 88.3215 4.24859C88.3215 4.83403 88.1273 5.33024 87.7395 5.71221C87.3516 6.09417 86.8603 6.29765 86.2788 6.29765C85.9169 6.29765 85.5678 6.22165 85.2447 6.05592C84.9216 5.89068 84.6632 5.66121 84.495 5.34299C84.3401 5.03752 84.2494 4.65556 84.2494 4.21034ZM85.3222 4.26134C85.3222 4.64281 85.4129 4.94828 85.6066 5.15226C85.8007 5.35574 86.0204 5.45773 86.2916 5.45773C86.5632 5.45773 86.7961 5.35574 86.977 5.15226C87.158 4.94828 87.2614 4.64281 87.2614 4.26134C87.2614 3.87888 87.1707 3.58665 86.977 3.38268C86.8922 3.2846 86.7868 3.20639 86.6683 3.1536C86.5499 3.1008 86.4212 3.07472 86.2916 3.0772C86.0204 3.0772 85.7875 3.17919 85.6066 3.38268C85.4256 3.58665 85.3222 3.87937 85.3222 4.26134ZM92.7418 6.2089H91.6949V4.22309C91.6949 3.80288 91.6689 3.53566 91.6302 3.40817C91.5915 3.28069 91.514 3.19194 91.4105 3.11545C91.3071 3.03896 91.1909 3.01346 91.0487 3.01346C90.8678 3.01346 90.6996 3.06446 90.5574 3.15369C90.4152 3.25568 90.3117 3.38268 90.2597 3.53566C90.2083 3.68815 90.1823 3.99362 90.1823 4.42658V6.19615H89.1354V2.31377H90.1048V2.88647C90.4539 2.44076 90.8805 2.22453 91.4105 2.22453C91.6429 2.22453 91.8499 2.26278 92.044 2.35202C92.2377 2.42802 92.3799 2.54275 92.4834 2.66974C92.5868 2.79723 92.6515 2.93746 92.6903 3.1027C92.729 3.26843 92.755 3.49741 92.755 3.79014L92.7418 6.2089ZM99.5543 6.20841H98.5845V5.63571C98.4406 5.84697 98.2449 6.0178 98.0162 6.13192C97.796 6.23391 97.5764 6.29765 97.3567 6.29765C96.9041 6.29765 96.5163 6.11966 96.1932 5.7632C95.87 5.40673 95.7019 4.89729 95.7019 4.26085C95.7019 3.62441 95.8573 3.1027 96.1804 2.75898C96.5035 2.41527 96.8914 2.23679 97.3694 2.23679C97.8093 2.23679 98.1971 2.41527 98.5202 2.78448V0.836914H99.5671L99.5543 6.20841ZM96.7619 4.18436C96.7619 4.60456 96.8267 4.89729 96.9301 5.08851C97.0983 5.35574 97.3307 5.49548 97.6411 5.49548C97.8867 5.49548 98.0937 5.39398 98.2613 5.19001C98.4295 4.98653 98.5202 4.68105 98.5202 4.28634C98.5202 3.84113 98.4423 3.52291 98.2746 3.31893C98.1064 3.11545 97.8995 3.02621 97.6411 3.02621C97.3827 3.02621 97.1885 3.1282 97.0208 3.31893C96.8526 3.51016 96.7619 3.78964 96.7619 4.18436ZM102.877 4.97378L103.924 5.13902C103.811 5.48826 103.589 5.79191 103.29 6.00493C103.006 6.20841 102.644 6.29765 102.205 6.29765C101.519 6.29765 101.002 6.08093 100.679 5.63571C100.42 5.27925 100.291 4.83354 100.291 4.29909C100.291 3.6499 100.459 3.1532 100.808 2.78399C101.157 2.41527 101.584 2.23679 102.101 2.23679C102.683 2.23679 103.148 2.42802 103.497 2.80949C103.846 3.19194 104.001 3.7769 103.988 4.56632H101.351C101.364 4.87179 101.442 5.11352 101.61 5.27925C101.765 5.44449 101.972 5.53422 102.217 5.53422C102.385 5.53422 102.514 5.49548 102.631 5.40673C102.747 5.31749 102.812 5.16451 102.877 4.97378ZM102.928 3.92988C102.916 3.63715 102.838 3.40817 102.695 3.25519C102.553 3.1027 102.372 3.02621 102.153 3.02621C101.92 3.02621 101.739 3.1027 101.584 3.26794C101.429 3.43367 101.364 3.6499 101.364 3.92988H102.928ZM105.824 6.2089H104.776V2.31377H105.746V2.87372C105.914 2.61875 106.056 2.44076 106.198 2.35152C106.328 2.27552 106.483 2.22404 106.651 2.22404C106.884 2.22404 107.116 2.28778 107.336 2.41527L107.013 3.31893C106.832 3.20469 106.677 3.15369 106.521 3.15369C106.366 3.15369 106.25 3.19194 106.147 3.26843C106.043 3.34443 105.966 3.49741 105.901 3.7009C105.836 3.90487 105.81 4.33734 105.81 5.01202L105.824 6.2089ZM42.1212 15.2211V9.85005H46.1674V10.7537H43.22V11.9501H45.9605V12.8538H43.22V14.3179H46.2708V15.2215L42.1212 15.2211ZM49.7997 15.2206V14.6356C49.6575 14.8396 49.4638 15.0048 49.2309 15.1323C48.9983 15.2494 48.7416 15.3103 48.4812 15.3103C48.2101 15.3103 47.9772 15.2593 47.7702 15.1451C47.5704 15.0379 47.4114 14.8678 47.3182 14.6611C47.2274 14.4576 47.176 14.1649 47.176 13.7957V11.3259H48.2228V13.1205C48.2228 13.6682 48.2356 13.9992 48.2875 14.1267C48.339 14.2541 48.3905 14.3429 48.4944 14.4194C48.5974 14.4959 48.7269 14.5214 48.8818 14.5214C49.0632 14.5214 49.2182 14.4704 49.3604 14.3811C49.5026 14.2919 49.5933 14.1649 49.6447 14.0247C49.6967 13.8849 49.7222 13.5285 49.7222 12.9808V11.3259H50.7695V15.2211L49.7997 15.2206ZM52.8632 15.2211H51.8164V11.3259H52.7858V11.8731C52.9539 11.6059 53.0961 11.4407 53.2383 11.3514C53.3673 11.2622 53.5227 11.2239 53.6904 11.2239C53.9233 11.2239 54.1557 11.2877 54.3759 11.4152L54.0523 12.3188C53.8713 12.2041 53.7164 12.1536 53.5615 12.1536C53.406 12.1536 53.2898 12.1913 53.1864 12.2678C53.0829 12.3443 53.0054 12.4968 52.9407 12.7008C52.876 12.9043 52.8505 13.35 52.8505 14.0119L52.8632 15.2211ZM54.5823 13.2225C54.5823 12.8788 54.673 12.5478 54.8407 12.2296C55.0058 11.9187 55.2573 11.6623 55.5649 11.4912C55.8872 11.3204 56.247 11.2327 56.6118 11.2362C57.2065 11.2362 57.6978 11.4274 58.0857 11.8094C58.4735 12.1913 58.6544 12.6748 58.6544 13.2607C58.6544 13.8462 58.4603 14.3424 58.0724 14.7244C57.6846 15.1063 57.1938 15.3098 56.6118 15.3098C56.2499 15.3098 55.9008 15.2338 55.5777 15.0681C55.2545 14.9023 54.9961 14.6734 54.828 14.3551C54.673 14.0497 54.5823 13.6677 54.5823 13.2225ZM55.6551 13.2735C55.6551 13.655 55.7458 13.9604 55.9395 14.1644C56.1337 14.3679 56.3534 14.4699 56.625 14.4699C56.8961 14.4699 57.129 14.3679 57.31 14.1644C57.4909 13.9604 57.5811 13.655 57.5811 13.273C57.5811 12.8915 57.4909 12.5988 57.31 12.3953C57.2252 12.2972 57.12 12.2189 57.0016 12.166C56.8832 12.1132 56.7546 12.087 56.625 12.0894C56.3534 12.0894 56.1205 12.1913 55.9395 12.3948C55.7458 12.5988 55.6551 12.892 55.6551 13.2735ZM59.4561 11.3259H60.4255V11.8986C60.5584 11.6998 60.7352 11.5342 60.9423 11.4147C61.1625 11.2872 61.3949 11.2367 61.6665 11.2367C62.1186 11.2367 62.5197 11.4147 62.8296 11.7711C63.1532 12.1276 63.3081 12.6243 63.3081 13.2475C63.3081 13.8717 63.1532 14.4061 62.8296 14.7626C62.5064 15.1191 62.1186 15.2971 61.6533 15.2971C61.4336 15.2971 61.2399 15.2588 61.059 15.1696C60.8781 15.0808 60.6966 14.9406 60.503 14.7244V16.6847H59.4561V11.3259ZM60.4902 13.2097C60.4902 13.6422 60.5804 13.9732 60.7486 14.1772C60.9296 14.3806 61.1365 14.4954 61.3949 14.4954C61.6533 14.4954 61.8474 14.3934 62.0024 14.2027C62.1578 14.0114 62.248 13.6932 62.248 13.2603C62.248 12.8533 62.1706 12.5478 62.0024 12.3566C61.929 12.2627 61.8347 12.1874 61.727 12.1365C61.6193 12.0857 61.5012 12.0608 61.3821 12.0639C61.1365 12.0639 60.9168 12.1658 60.7486 12.3566C60.5804 12.5478 60.4902 12.8273 60.4902 13.2097ZM64.9242 12.5223L63.9676 12.3566C64.0711 11.9746 64.252 11.6946 64.5231 11.5167C64.782 11.3382 65.1699 11.2489 65.6867 11.2489C66.152 11.2489 66.5011 11.2999 66.734 11.4147C66.9664 11.5167 67.1214 11.6564 67.2121 11.8216C67.3028 11.9874 67.3543 12.2928 67.3543 12.7385L67.3415 13.9349C67.3415 14.2787 67.3543 14.5331 67.393 14.6861C67.4317 14.8386 67.4837 15.0293 67.5867 15.2078H66.5526C66.5125 15.108 66.4781 15.006 66.4496 14.9023C66.4364 14.8386 66.4236 14.8008 66.4104 14.7881C66.2417 14.9439 66.0498 15.0726 65.8416 15.1696C65.6372 15.2558 65.4172 15.2992 65.1954 15.2971C64.7948 15.2971 64.4716 15.1951 64.226 14.9661C63.9931 14.7499 63.8769 14.4699 63.8769 14.1389C63.8769 13.9222 63.9289 13.7187 64.0323 13.553C64.1353 13.3877 64.2907 13.2475 64.4844 13.1588C64.6786 13.0695 64.9497 12.993 65.3121 12.9165C65.8029 12.8278 66.1392 12.7385 66.3329 12.6621V12.5601C66.3329 12.3566 66.2814 12.2168 66.178 12.1404C66.0745 12.0511 65.8936 12.0129 65.6092 12.0129C65.4283 12.0129 65.2728 12.0511 65.1699 12.1149C65.0664 12.1786 64.9885 12.3316 64.9242 12.5223ZM64.4717 10.638V9.75983H65.3636V10.638H64.4717ZM66.3202 13.3495C66.1907 13.3877 65.9711 13.4515 65.6867 13.5025C65.4023 13.5662 65.2086 13.6167 65.1179 13.6805C64.9757 13.7824 64.911 13.8967 64.911 14.0369C64.911 14.1767 64.963 14.3042 65.0792 14.4061C65.1826 14.5076 65.3248 14.5586 65.493 14.5586C65.6867 14.5586 65.8676 14.4949 66.0358 14.3806C66.1652 14.2914 66.2427 14.1767 66.2814 14.0369C66.3074 13.9477 66.3202 13.782 66.3202 13.5402V13.3495ZM66.0745 10.638V9.75983H66.9792V10.638H66.0745ZM68.3879 10.8042V9.84956H69.4352V10.8042H68.3879ZM68.3879 15.2211V11.3259H69.4352V15.2211H68.3879ZM70.1334 14.1134L71.1803 13.9604C71.219 14.1644 71.3097 14.3169 71.4519 14.4189C71.5941 14.5209 71.775 14.5714 72.0207 14.5714C72.2923 14.5714 72.4987 14.5209 72.6282 14.4189C72.6729 14.3873 72.7092 14.3453 72.734 14.2965C72.7588 14.2477 72.7713 14.1936 72.7704 14.1389C72.7713 14.1034 72.7649 14.0681 72.7516 14.0352C72.7383 14.0023 72.7183 13.9725 72.6929 13.9477C72.6409 13.8972 72.5247 13.8589 72.3438 13.8079C71.5034 13.6295 70.9606 13.4515 70.7409 13.3112C70.4306 13.095 70.2756 12.815 70.2756 12.4331C70.2756 12.0898 70.4051 11.8094 70.6762 11.5799C70.9478 11.3509 71.3612 11.2367 71.93 11.2367C72.4987 11.2367 72.8738 11.3254 73.1322 11.5039C73.3911 11.6819 73.5721 11.9369 73.6755 12.2806L72.6929 12.4586C72.6577 12.3169 72.5699 12.194 72.4473 12.1149C72.331 12.0384 72.1629 12.0001 71.9432 12.0001C71.6716 12.0001 71.4646 12.0384 71.3484 12.1149C71.3135 12.1363 71.2846 12.1661 71.2643 12.2017C71.244 12.2373 71.2329 12.2774 71.2322 12.3183C71.2322 12.3948 71.271 12.4586 71.3357 12.5096C71.4259 12.5733 71.749 12.6748 72.3178 12.8023C72.8738 12.9298 73.2617 13.0823 73.4814 13.2603C73.701 13.4387 73.8045 13.6932 73.8045 14.0242C73.8045 14.3806 73.6495 14.6861 73.3519 14.9411C73.0548 15.1956 72.6022 15.3226 72.0079 15.3226C71.4646 15.3226 71.0381 15.2211 70.7282 15.0043C70.4178 14.7881 70.2369 14.4826 70.1334 14.1134ZM78.1865 12.4841L77.1524 12.6625C77.1137 12.4586 77.0357 12.3061 76.9195 12.2041C76.8033 12.1026 76.6351 12.0516 76.4414 12.0516C76.1825 12.0516 75.9761 12.1404 75.8207 12.3188C75.6657 12.4968 75.5883 12.7895 75.5883 13.2097C75.5883 13.6682 75.6657 13.9992 75.8207 14.1904C75.9761 14.3811 76.1958 14.4699 76.4542 14.4699C76.6479 14.4699 76.816 14.4189 76.9455 14.3046C77.0744 14.1899 77.1652 13.9992 77.2166 13.7319L78.2512 13.8972C78.1478 14.3679 77.9409 14.7121 77.6305 14.9538C77.3201 15.1956 76.9195 15.3103 76.4154 15.3103C75.8339 15.3103 75.3814 15.1318 75.0322 14.7758C74.6831 14.4189 74.515 13.9227 74.515 13.2862C74.515 12.6498 74.6831 12.1404 75.0322 11.7839C75.3814 11.4274 75.8467 11.2494 76.4282 11.2494C76.9068 11.2494 77.2946 11.3514 77.579 11.5549C77.8634 11.7461 78.0698 12.0644 78.1865 12.4841ZM80.0223 9.84956V11.8226C80.3581 11.4279 80.7587 11.2367 81.2373 11.2367C81.4829 11.2367 81.6899 11.2749 81.8835 11.3642C82.0772 11.4534 82.2194 11.5677 82.3229 11.7074C82.4229 11.8444 82.4933 12.0007 82.5298 12.1663C82.5685 12.3316 82.5818 12.5861 82.5818 12.9425V15.2338H81.5344V13.1715C81.5344 12.7645 81.5084 12.5096 81.4697 12.3953C81.4356 12.2842 81.3622 12.1892 81.2633 12.1281C81.1501 12.0602 81.0202 12.0249 80.8882 12.0261C80.724 12.0229 80.5625 12.0672 80.4229 12.1536C80.2807 12.2423 80.19 12.3571 80.1257 12.5223C80.061 12.688 80.035 12.9425 80.035 13.2607V15.2083H78.9882V9.84907L80.0223 9.84956ZM85.9297 13.9864L86.9765 14.1517C86.8643 14.5009 86.6423 14.8047 86.3435 15.0176C86.0591 15.2211 85.6968 15.3103 85.2575 15.3103C84.5725 15.3103 84.0552 15.0936 83.7321 14.6484C83.4737 14.2919 83.3442 13.8462 83.3442 13.3117C83.3442 12.6625 83.5124 12.1658 83.8615 11.7966C84.2106 11.4274 84.6372 11.2494 85.154 11.2494C85.736 11.2494 86.2013 11.4407 86.55 11.8221C86.8991 12.2046 87.0545 12.7895 87.0413 13.579H84.417C84.4303 13.8844 84.5078 14.1262 84.6759 14.2919C84.8436 14.4571 85.0378 14.5464 85.2834 14.5464C85.4516 14.5464 85.5806 14.5081 85.6968 14.4189C85.8135 14.3301 85.8782 14.1772 85.9297 13.9864ZM85.9944 12.942C85.9812 12.6498 85.9037 12.4203 85.7615 12.2678C85.6193 12.1149 85.4384 12.0389 85.2187 12.0389C84.9858 12.0389 84.8049 12.1149 84.65 12.2806C84.495 12.4458 84.4303 12.6625 84.4303 12.9425H85.9944V12.942ZM91.488 15.2211H90.4407V13.2352C90.4407 12.815 90.4147 12.5478 90.376 12.4203C90.3372 12.2928 90.2597 12.2041 90.1563 12.1276C90.0528 12.0511 89.9366 12.0256 89.7944 12.0256C89.6135 12.0256 89.4453 12.0766 89.3031 12.1786C89.1609 12.2801 89.0575 12.4076 89.006 12.5733C88.954 12.7385 88.9285 13.0313 88.9285 13.4642V15.2333H87.8812V11.3254H88.851V11.8986C89.1997 11.4529 89.6262 11.2367 90.1563 11.2367C90.3892 11.2367 90.5961 11.2749 90.7898 11.3642C90.9835 11.4402 91.1257 11.5549 91.2291 11.6819C91.3326 11.8094 91.3973 11.9496 91.436 12.1149C91.4748 12.2806 91.5008 12.5096 91.5008 12.8023L91.488 15.2211ZM94.6678 9.84956H95.7666V12.7645C95.7666 13.2225 95.7793 13.528 95.8053 13.6682C95.8568 13.8844 95.9603 14.0629 96.1417 14.2027C96.3226 14.3429 96.555 14.4066 96.8654 14.4066C97.1758 14.4066 97.4082 14.3429 97.5764 14.2154C97.7313 14.0879 97.8348 13.9359 97.8607 13.7574C97.8867 13.579 97.9122 13.2735 97.9122 12.8405V9.84956H99.0111V12.6753C99.0111 13.3245 98.9851 13.7829 98.9208 14.0502C98.8561 14.3174 98.7526 14.5464 98.5977 14.7248C98.4211 14.9201 98.1989 15.0687 97.951 15.1573C97.6798 15.2593 97.3307 15.323 96.9041 15.323C96.3868 15.323 95.9862 15.2593 95.7151 15.1446C95.4435 15.0303 95.2365 14.8773 95.0816 14.6866C94.9358 14.5122 94.8298 14.308 94.7712 14.0884C94.6937 13.7829 94.6678 13.3245 94.6678 12.7263V9.84956ZM103.769 15.2211H102.721V13.2352C102.721 12.815 102.695 12.5478 102.657 12.4203C102.618 12.2928 102.54 12.2041 102.437 12.1276C102.333 12.0511 102.217 12.0256 102.075 12.0256C101.894 12.0256 101.726 12.0766 101.584 12.1786C101.442 12.2801 101.338 12.4076 101.287 12.5733C101.235 12.7385 101.209 13.0313 101.209 13.4642V15.2333H100.162V11.3254H101.131V11.8986C101.48 11.4529 101.907 11.2367 102.437 11.2367C102.67 11.2367 102.876 11.2749 103.07 11.3642C103.264 11.4402 103.406 11.5549 103.51 11.6819C103.613 11.8094 103.678 11.9496 103.717 12.1149C103.755 12.2806 103.781 12.5096 103.781 12.8023L103.769 15.2211ZM104.828 10.8042V9.84956H105.875V10.8042H104.828ZM104.828 15.2211V11.3259H105.875V15.2211H104.828ZM106.703 13.2225C106.703 12.8788 106.793 12.5478 106.961 12.2296C107.126 11.9187 107.378 11.6623 107.685 11.4912C108.008 11.3204 108.367 11.2327 108.732 11.2362C109.327 11.2362 109.818 11.4274 110.206 11.8094C110.593 12.1913 110.774 12.6748 110.774 13.2607C110.774 13.8462 110.581 14.3424 110.193 14.7244C109.805 15.1063 109.314 15.3098 108.732 15.3098C108.37 15.3098 108.021 15.2338 107.698 15.0681C107.375 14.9023 107.117 14.6734 106.948 14.3551C106.793 14.0497 106.703 13.6677 106.703 13.2225ZM107.776 13.2735C107.776 13.655 107.866 13.9604 108.06 14.1644C108.254 14.3679 108.474 14.4699 108.745 14.4699C109.017 14.4699 109.25 14.3679 109.43 14.1644C109.611 13.9604 109.715 13.655 109.715 13.273C109.715 12.8915 109.624 12.5988 109.43 12.3953C109.346 12.2972 109.24 12.2189 109.122 12.166C109.003 12.1131 108.875 12.0869 108.745 12.0894C108.474 12.0894 108.241 12.1913 108.06 12.3948C107.879 12.5988 107.776 12.892 107.776 13.2735ZM115.208 15.2211H114.161V13.2352C114.161 12.815 114.135 12.5478 114.096 12.4203C114.058 12.2928 113.98 12.2041 113.877 12.1276C113.773 12.0511 113.657 12.0256 113.515 12.0256C113.334 12.0256 113.166 12.0766 113.024 12.1786C112.881 12.2801 112.778 12.4076 112.726 12.5733C112.674 12.7385 112.649 13.0313 112.649 13.4642V15.2333H111.602V11.3254H112.571V11.8986C112.92 11.4529 113.347 11.2367 113.877 11.2367C114.11 11.2367 114.317 11.2749 114.51 11.3642C114.704 11.4402 114.846 11.5549 114.95 11.6819C115.053 11.8094 115.118 11.9496 115.156 12.1149C115.195 12.2806 115.221 12.5096 115.221 12.8023L115.208 15.2211Z" fill="#034EA2"/>
<path d="M42.1212 24.8957V20.2503H42.7675L45.2495 23.9032V20.2503H45.8442V24.8961H45.198L42.716 21.2432V24.8961L42.1212 24.8957ZM49.1539 23.8135L49.7482 23.89C49.6575 24.2332 49.4766 24.5009 49.2182 24.6917C48.9598 24.8829 48.6366 24.9717 48.2356 24.9717C47.7315 24.9717 47.3437 24.8192 47.0465 24.5137C46.7494 24.2082 46.6067 23.788 46.6067 23.2403C46.6067 22.6804 46.7489 22.2352 47.0465 21.9164C47.3437 21.5987 47.7315 21.4457 48.1968 21.4457C48.6494 21.4457 49.0245 21.5987 49.3216 21.9042C49.606 22.2097 49.761 22.6421 49.761 23.2026V23.3551H47.2147C47.2402 23.7243 47.3437 24.0042 47.5378 24.2082C47.7315 24.399 47.9644 24.5009 48.2488 24.5009C48.4552 24.5009 48.6361 24.4499 48.7916 24.3352C48.9465 24.2337 49.0637 24.0552 49.1539 23.8135ZM47.2534 22.8843H49.1662C49.1407 22.6039 49.0632 22.3876 48.9465 22.2479C48.7656 22.0312 48.5199 21.9169 48.2228 21.9169C47.9512 21.9169 47.7315 22.0057 47.5506 22.1842C47.3692 22.3621 47.2662 22.5911 47.2534 22.8843ZM50.0973 24.8957L51.3511 23.1521L50.2008 21.5355H50.9245L51.4545 22.3249C51.558 22.4769 51.6355 22.6044 51.6869 22.7064C51.7777 22.5661 51.8679 22.4391 51.9458 22.3371L52.5274 21.5355H53.2256L52.0493 23.1266L53.3158 24.9084H52.6048L51.9071 23.8645L51.7257 23.585L50.8338 24.9089H50.0973V24.8957ZM55.0481 24.3867L55.1256 24.8957C54.9816 24.9293 54.8342 24.9464 54.6863 24.9466C54.4793 24.9466 54.3112 24.9084 54.195 24.8447C54.0887 24.7873 54.0029 24.6984 53.9493 24.5902C53.8978 24.4882 53.8846 24.2592 53.8846 23.9155V21.9812H53.458V21.5355H53.8846V20.7083L54.4666 20.3646V21.5355H55.0481V21.9812H54.4666V23.9415C54.4666 24.1072 54.4793 24.2087 54.4921 24.2597C54.5181 24.3107 54.5441 24.3489 54.5955 24.3744C54.6565 24.4018 54.7229 24.4149 54.7897 24.4127C54.8539 24.4127 54.9319 24.3994 55.0481 24.3867ZM57.8915 23.0751V22.5279H59.8955V24.2465C59.609 24.4736 59.291 24.6579 58.9516 24.7937C58.6285 24.9211 58.2926 24.9721 57.9435 24.9721C57.5041 24.9751 57.0701 24.8748 56.6765 24.6794C56.2886 24.4882 56.0175 24.1955 55.8233 23.8263C55.6296 23.457 55.5389 23.0368 55.5389 22.5916C55.5389 22.1332 55.6296 21.7134 55.8233 21.3315C56.0175 20.9368 56.2886 20.6441 56.651 20.4533C57.0128 20.2621 57.4262 20.1729 57.8915 20.1729C58.2279 20.1729 58.5382 20.2238 58.8226 20.3386C59.0938 20.4528 59.3134 20.5931 59.4689 20.7965C59.6238 20.9878 59.74 21.2422 59.8307 21.5605L59.262 21.7135C59.2123 21.5119 59.1246 21.3217 59.0036 21.153C58.9001 21.0133 58.7447 20.9113 58.551 20.822C58.3455 20.7395 58.1262 20.6962 57.9047 20.6946C57.6204 20.6946 57.3747 20.7333 57.1678 20.822C56.9876 20.8957 56.8239 21.0046 56.6863 21.1423C56.5487 21.2801 56.44 21.4439 56.3666 21.6242C56.2469 21.9194 56.1853 22.2349 56.1852 22.5534C56.1852 22.9736 56.2631 23.3173 56.4053 23.5973C56.5475 23.8772 56.7672 24.0807 57.0383 24.221C57.3108 24.3585 57.6123 24.4283 57.9175 24.4245C58.1891 24.4245 58.4475 24.3735 58.7059 24.272C58.9648 24.17 59.1585 24.0552 59.2879 23.941V23.0746L57.8915 23.0751ZM63.0757 23.8135L63.67 23.89C63.5798 24.2332 63.3988 24.5009 63.1399 24.6917C62.8815 24.8829 62.5584 24.9717 62.1578 24.9717C61.6538 24.9717 61.2659 24.8192 60.9683 24.5137C60.6712 24.2082 60.529 23.788 60.529 23.2403C60.529 22.6804 60.6712 22.2352 60.9683 21.9164C61.2659 21.5987 61.6538 21.4457 62.1191 21.4457C62.5712 21.4457 62.9463 21.5987 63.2434 21.9042C63.5278 22.2097 63.6832 22.6421 63.6832 23.2026V23.3551H61.1365C61.1625 23.7243 61.2659 24.0042 61.4596 24.2082C61.6538 24.399 61.8862 24.5009 62.1706 24.5009C62.3775 24.5009 62.5584 24.4499 62.7134 24.3352C62.8688 24.2337 62.985 24.0552 63.0757 23.8135ZM61.1752 22.8843H63.0884C63.0625 22.6039 62.985 22.3876 62.8688 22.2479C62.6879 22.0312 62.4422 21.9169 62.1446 21.9169C61.8734 21.9169 61.6538 22.0057 61.4728 22.1842C61.2919 22.3621 61.1884 22.5911 61.1752 22.8843ZM64.4064 24.8957V21.535H64.9237V22.0189C65.1694 21.6497 65.5312 21.4585 66.0093 21.4585C66.2049 21.4558 66.3988 21.4949 66.5781 21.5732C66.7463 21.6497 66.8757 21.7385 66.9659 21.8659C67.0566 21.9807 67.1081 22.1209 67.1469 22.2861C67.1728 22.3881 67.1728 22.5789 67.1728 22.8461V24.9211H66.5913V22.8716C66.5913 22.6426 66.5653 22.4646 66.5266 22.3499C66.4879 22.2352 66.3972 22.1459 66.281 22.0694C66.1584 22.0016 66.0204 21.9666 65.8804 21.9679C65.6347 21.9679 65.415 22.0444 65.2469 22.1969C65.0659 22.3499 64.9752 22.6426 64.9752 23.0751V24.9084H64.4064V24.8957ZM70.4046 23.8135L70.9993 23.89C70.9086 24.2332 70.7277 24.5009 70.4693 24.6917C70.2104 24.8829 69.8873 24.9717 69.4867 24.9717C68.9826 24.9717 68.5948 24.8192 68.2976 24.5137C68 24.2082 67.8578 23.788 67.8578 23.2403C67.8578 22.6804 68 22.2352 68.2976 21.9164C68.5948 21.5987 68.9826 21.4457 69.448 21.4457C69.9005 21.4457 70.2751 21.5987 70.5728 21.9042C70.8571 22.2097 71.0121 22.6421 71.0121 23.2026V23.3551H68.4653C68.4913 23.7243 68.5948 24.0042 68.7885 24.2082C68.9826 24.399 69.215 24.5009 69.4994 24.5009C69.7064 24.5009 69.8873 24.4499 70.0427 24.3352C70.1977 24.221 70.3271 24.0552 70.4046 23.8135ZM68.5046 22.8843H70.4173C70.3918 22.6039 70.3139 22.3876 70.1977 22.2479C70.0167 22.0312 69.7711 21.9169 69.4739 21.9169C69.2023 21.9169 68.9826 22.0057 68.8017 22.1842C68.6208 22.3621 68.5301 22.5911 68.5046 22.8843ZM71.7231 24.8957V21.535H72.2403V22.0444C72.3693 21.8022 72.4987 21.6497 72.615 21.5732C72.7312 21.4967 72.8479 21.4585 72.9901 21.4585C73.1837 21.4585 73.3779 21.5222 73.5843 21.637L73.3906 22.1714C73.2485 22.0949 73.1063 22.0439 72.9641 22.0439C72.842 22.0407 72.7228 22.0814 72.6282 22.1587C72.5247 22.2352 72.46 22.3371 72.408 22.4774C72.344 22.692 72.3136 22.9153 72.3178 23.1393V24.8957H71.7231ZM76.1571 24.4754C75.9374 24.6539 75.7305 24.7809 75.5368 24.8574C75.3345 24.9345 75.1197 24.9734 74.9033 24.9721C74.5287 24.9721 74.2443 24.8829 74.0374 24.7044C73.8305 24.5264 73.7398 24.2975 73.7398 24.0175C73.7398 23.8518 73.779 23.6988 73.8565 23.5713C73.9339 23.4315 74.0374 23.33 74.1536 23.2408C74.284 23.1618 74.4228 23.0977 74.5674 23.0496C74.6836 23.0246 74.8518 22.9858 75.0842 22.9608C75.5495 22.9098 75.8986 22.8461 76.1183 22.7696V22.6171C76.1183 22.3876 76.0668 22.2224 75.9506 22.1204C75.8084 21.9929 75.5883 21.9292 75.2911 21.9292C75.0195 21.9292 74.8131 21.9807 74.6836 22.0694C74.5542 22.1587 74.464 22.3244 74.3992 22.5661L73.8305 22.4896C73.882 22.2479 73.9727 22.0567 74.0889 21.9169C74.2051 21.7767 74.3732 21.662 74.6062 21.5732C74.8258 21.4967 75.0842 21.4585 75.3818 21.4585C75.679 21.4585 75.9114 21.4967 76.0928 21.5605C76.2738 21.6242 76.4027 21.7135 76.4934 21.8154C76.5836 21.9169 76.6356 22.0444 76.6743 22.2097C76.6871 22.3116 76.7003 22.4769 76.7003 22.7319V23.4953C76.7003 24.0297 76.7131 24.3612 76.7391 24.5009C76.7646 24.6412 76.8165 24.7809 76.8813 24.9079H76.2737C76.2181 24.7688 76.1789 24.6237 76.1571 24.4754ZM76.1183 23.2026C75.9114 23.2918 75.5883 23.3555 75.1749 23.4188C74.942 23.457 74.7738 23.4953 74.6709 23.5335C74.5728 23.5672 74.4901 23.6351 74.438 23.7248C74.3856 23.8039 74.3586 23.8971 74.3605 23.992C74.3605 24.1445 74.4252 24.2715 74.5414 24.3735C74.6576 24.4754 74.8258 24.5264 75.0582 24.5264C75.2784 24.5264 75.4848 24.4754 75.653 24.3862C75.8212 24.2847 75.9506 24.1572 76.0408 23.992C76.1056 23.8645 76.1316 23.6733 76.1316 23.4188V23.2026H76.1183ZM78.8587 24.3867L78.9367 24.8957C78.7925 24.9293 78.645 24.9464 78.4969 24.9466C78.29 24.9466 78.1223 24.9084 78.0056 24.8447C77.8995 24.7871 77.8137 24.6983 77.7599 24.5902C77.7084 24.4882 77.6957 24.2592 77.6957 23.9155V21.9812H77.2691V21.5355H77.6957V20.7083L78.2772 20.3646V21.5355H78.8587V21.9812H78.2772V23.9415C78.2772 24.1072 78.29 24.2087 78.3032 24.2597C78.3287 24.3107 78.3547 24.3489 78.4067 24.3744C78.4674 24.4018 78.5337 24.4149 78.6003 24.4127C78.6778 24.4127 78.7553 24.3994 78.8587 24.3867ZM79.4275 20.899V20.2498H80.009V20.9118H79.4275V20.899ZM79.4275 24.8957V21.5355H80.009V24.8957H79.4275ZM80.6818 23.2153C80.6818 22.5916 80.8627 22.1332 81.2118 21.8277C81.5089 21.5732 81.858 21.4585 82.2846 21.4585C82.7499 21.4585 83.1378 21.6115 83.4349 21.9169C83.7321 22.2224 83.8875 22.6426 83.8875 23.1771C83.8875 23.61 83.8228 23.9537 83.6933 24.1955C83.5644 24.4504 83.3702 24.6412 83.1118 24.7682C82.858 24.9056 82.5732 24.9758 82.2846 24.9721C81.8061 24.9721 81.4182 24.8192 81.1211 24.5137C80.824 24.2082 80.6818 23.7753 80.6818 23.2153ZM81.276 23.2153C81.276 23.6483 81.3667 23.9665 81.5604 24.1827C81.7546 24.399 81.987 24.5014 82.2846 24.5014C82.569 24.5014 82.8147 24.399 83.0083 24.1827C83.2025 23.9665 83.2927 23.6355 83.2927 23.2026C83.2927 22.7824 83.2025 22.4769 83.0083 22.2607C82.921 22.158 82.8119 22.0761 82.6889 22.021C82.5659 21.9658 82.4321 21.9388 82.2974 21.9419C82.013 21.9419 81.7673 22.0444 81.5737 22.2607C81.3795 22.4769 81.276 22.7824 81.276 23.2153ZM84.5592 24.8957V21.535H85.076V22.0189C85.3217 21.6497 85.6836 21.4585 86.1621 21.4585C86.369 21.4585 86.5627 21.4967 86.7309 21.5732C86.8991 21.6497 87.028 21.7385 87.1187 21.8659C87.209 21.9807 87.2609 22.1209 87.2997 22.2861C87.3256 22.3881 87.3257 22.5789 87.3257 22.8461V24.9211H86.7436V22.8716C86.7436 22.6426 86.7181 22.4646 86.6789 22.3499C86.6402 22.2352 86.55 22.1459 86.4338 22.0694C86.311 22.0016 86.1729 21.9666 86.0327 21.9679C85.787 21.9679 85.5674 22.0444 85.3992 22.1969C85.2182 22.3499 85.128 22.6426 85.128 23.0751V24.9084H84.5592V24.8957ZM88.3078 24.8957V20.2503H91.7204V20.7975H88.9413V22.2229H91.5527V22.7706H88.9413V24.3489H91.8371V24.8961L88.3078 24.8957ZM95.7926 20.2498H96.4133V22.9353C96.4133 23.406 96.3613 23.7758 96.2579 24.043C96.1544 24.3102 95.9607 24.5392 95.6764 24.7177C95.392 24.8957 95.0301 24.9726 94.5775 24.9726C94.1382 24.9726 93.7759 24.8957 93.4915 24.7432C93.2217 24.6013 93.0076 24.3726 92.884 24.094C92.7678 23.814 92.703 23.4193 92.703 22.9226V20.2503H93.3238V22.9358C93.3238 23.3433 93.3625 23.636 93.44 23.8272C93.5175 24.018 93.6469 24.1705 93.8278 24.2724C94.0088 24.3744 94.2412 24.4254 94.5128 24.4254C94.9781 24.4254 95.3013 24.3234 95.4954 24.12C95.6891 23.916 95.7926 23.5218 95.7926 22.9358V20.2498Z" fill="#58595B"/>
</g>
<defs>
<clipPath id="clip0_845_28932">
<rect width="115.226" height="25.4968" fill="white" transform="translate(0.199951 0.136719)"/>
</clipPath>
</defs>
</svg>
