<svg width="94" height="68" viewBox="0 0 94 68" fill="none" xmlns="http://www.w3.org/2000/svg">
<g clip-path="url(#clip0_845_28926)">
<rect width="93.1616" height="66.1937" transform="translate(0.199951 0.942383)" fill="white"/>
<path d="M34.3554 22.219C34.3554 22.4352 34.3338 22.6304 34.2691 22.8035C34.226 22.9766 34.1397 23.1065 34.0534 23.2364C33.9728 23.3577 33.861 23.455 33.7297 23.5179C33.6043 23.5847 33.4744 23.6427 33.3409 23.6914V23.713C33.5135 23.7346 33.6645 23.7998 33.7945 23.8861C33.9455 23.9729 34.0534 24.0813 34.1612 24.2112C34.2691 24.3411 34.3554 24.4926 34.4201 24.6657C34.4848 24.8388 34.5064 25.034 34.5064 25.2286C34.5064 25.4669 34.4633 25.7052 34.377 25.9219C34.2907 26.1382 34.1612 26.3117 33.9886 26.4633C33.816 26.6153 33.5782 26.7231 33.3193 26.8099C33.0389 26.8962 32.7153 26.9398 32.3485 26.9398H31.0751V20.6377H32.2838C32.6505 20.6377 32.9742 20.6814 33.233 20.7461C33.4919 20.8329 33.7082 20.9412 33.8803 21.0712C34.0534 21.2011 34.1828 21.3742 34.2475 21.5693C34.3123 21.764 34.3554 21.9807 34.3554 22.219ZM33.5567 22.2406C33.5567 21.9371 33.4488 21.6988 33.2546 21.5257C33.0605 21.331 32.7153 21.2442 32.2838 21.2442H31.8739V23.41H32.2838C32.7153 23.41 33.0389 23.3016 33.2546 23.1065C33.4488 22.8903 33.5567 22.6083 33.5567 22.2406ZM33.6861 25.1423C33.6861 24.7957 33.5782 24.5358 33.3625 24.3411C33.1468 24.146 32.8231 24.0376 32.4132 24.0376H31.8739V26.2465H32.3701C32.8447 26.2465 33.1683 26.1602 33.3841 25.9651C33.5998 25.7704 33.6861 25.5106 33.6861 25.1423ZM38.5634 26.9178H37.8946V26.4201H37.873C37.8514 26.4633 37.8083 26.5064 37.7435 26.5716C37.6735 26.6468 37.5937 26.7123 37.5062 26.7663C37.4199 26.8315 37.2905 26.8962 37.1605 26.9398C37.014 26.9856 36.861 27.0075 36.7075 27.0046C36.5133 27.0046 36.3407 26.983 36.1897 26.9178C36.0393 26.8569 35.906 26.7603 35.8014 26.6363C35.6843 26.4912 35.603 26.3205 35.564 26.1382C35.4993 25.9435 35.4777 25.6836 35.4777 25.3806V22.5005H36.2113V25.3154C36.2113 25.6836 36.276 25.943 36.3839 26.095C36.5133 26.247 36.6859 26.3333 36.9448 26.3333C37.1605 26.3333 37.3336 26.2902 37.4842 26.1813C37.6357 26.0734 37.7435 25.9656 37.8298 25.8783V22.522H38.5634V26.9178ZM42.0809 26.9178V24.1028C42.0809 23.7351 42.0162 23.4752 41.8868 23.3016C41.7573 23.1281 41.5632 23.0633 41.3258 23.0633C41.1101 23.0633 40.9154 23.1281 40.7865 23.2364C40.6566 23.3448 40.5271 23.4532 40.4408 23.5615V26.9398H39.7073V22.5652H40.3761V23.0633H40.3977C40.4192 23.0202 40.4624 22.9766 40.5055 22.9113C40.5703 22.8466 40.635 22.7819 40.7428 22.7167C40.8507 22.652 40.9586 22.5867 41.088 22.5436C41.2175 22.5005 41.369 22.4784 41.5416 22.4784C41.7358 22.4784 41.9083 22.5005 42.0809 22.5652C42.232 22.6304 42.383 22.7172 42.4909 22.8466C42.5987 22.9766 42.685 23.1501 42.7497 23.3448C42.8145 23.5399 42.836 23.7998 42.836 24.1028V26.983L42.0809 26.9178ZM43.7211 24.7957C43.7211 24.3411 43.7858 23.9729 43.8937 23.6914C44.0015 23.3879 44.1526 23.1501 44.3467 22.9766C44.5409 22.8035 44.7351 22.6735 44.9724 22.5868C45.2102 22.5005 45.4259 22.4789 45.6632 22.4789C45.7927 22.4789 45.9221 22.5005 46.03 22.5005C46.1379 22.522 46.2242 22.5436 46.2889 22.5868V20.4862L47.0229 20.3999V26.9398H46.3536V26.4417H46.3321C46.3059 26.4985 46.2693 26.5499 46.2242 26.5932C46.181 26.6579 46.1163 26.7231 46.03 26.7878C45.9322 26.8628 45.8229 26.9214 45.7064 26.9614C45.5598 27.0072 45.4069 27.029 45.2533 27.0261C45.0376 27.0261 44.8429 26.983 44.6703 26.8962C44.4762 26.8099 44.3252 26.68 44.1741 26.5064C44.0231 26.3333 43.9152 26.095 43.8505 25.8136C43.7858 25.5321 43.7211 25.186 43.7211 24.7957ZM45.447 26.3549C45.5549 26.3549 45.6628 26.3333 45.7495 26.3117C45.8358 26.2902 45.9221 26.2465 45.9869 26.2034C46.0516 26.1602 46.1163 26.1166 46.1595 26.0734C46.2026 26.0303 46.2458 25.9867 46.2673 25.9435V23.2369C46.1948 23.1878 46.1146 23.151 46.03 23.1281C45.9244 23.1002 45.8157 23.0857 45.7064 23.0849C45.5338 23.0849 45.3828 23.1065 45.2318 23.1717C45.0807 23.2364 44.9513 23.3232 44.8429 23.4532C44.7351 23.5831 44.6488 23.7562 44.584 23.9729C44.5193 24.1896 44.4978 24.4495 44.4978 24.7525C44.4978 25.0555 44.5193 25.3154 44.584 25.5106C44.6488 25.7052 44.7135 25.8783 44.7998 26.0082C44.8866 26.1382 44.9944 26.225 45.1023 26.2681C45.1886 26.3333 45.3176 26.3549 45.447 26.3549ZM50.9288 24.016C50.9288 24.2112 50.9288 24.3627 50.9073 24.5142C50.8857 24.6441 50.8857 24.7741 50.8641 24.882H48.641C48.6626 25.4017 48.7704 25.7704 48.9646 26.0303C49.1593 26.2681 49.4397 26.398 49.8065 26.398C49.9359 26.398 50.0438 26.3765 50.1517 26.3549C50.2595 26.3333 50.3458 26.2902 50.4106 26.247C50.4969 26.2029 50.54 26.1602 50.6052 26.1166L50.7131 26.0087L50.9936 26.5285L50.8641 26.6579C50.7994 26.7231 50.7131 26.7663 50.6268 26.8315C50.54 26.8962 50.389 26.9394 50.238 26.983C50.087 27.0261 49.9144 27.0477 49.6986 27.0477C49.4181 27.0477 49.1808 27.0046 48.9651 26.9178C48.743 26.8256 48.5492 26.6762 48.4037 26.4848C48.2349 26.2654 48.1103 26.0153 48.0369 25.7484C47.9506 25.4453 47.9075 25.0987 47.9075 24.6873C47.9075 24.2975 47.9506 23.9513 48.0369 23.6699C48.1232 23.3879 48.2526 23.1501 48.4037 22.9766C48.5547 22.8035 48.7273 22.652 48.943 22.5652C49.1473 22.4765 49.3681 22.4322 49.5907 22.4352C50.0007 22.4352 50.3458 22.5652 50.5832 22.825C50.7994 23.0849 50.9288 23.4747 50.9288 24.0165V24.016ZM49.5476 23.0202C49.2887 23.0202 49.073 23.1281 48.9219 23.3448C48.7704 23.5615 48.6841 23.8861 48.641 24.2975H50.238C50.238 24.2759 50.238 24.2328 50.2595 24.1676V23.9729C50.2595 23.6699 50.1948 23.4316 50.087 23.258C49.9575 23.1065 49.7849 23.0202 49.5476 23.0202ZM53.7987 23.41C53.7556 23.3664 53.6693 23.2801 53.5398 23.1933C53.393 23.0949 53.2204 23.0421 53.0436 23.0413C52.8494 23.0413 52.6984 23.0854 52.5905 23.1717C52.5411 23.2097 52.5016 23.2591 52.4752 23.3155C52.4489 23.372 52.4365 23.434 52.439 23.4963C52.439 23.6699 52.4822 23.7998 52.569 23.9082C52.6553 24.016 52.8063 24.1244 53.0005 24.2543L53.2809 24.4274C53.583 24.601 53.8203 24.7957 53.9713 24.9908C54.1439 25.1855 54.2302 25.4669 54.2302 25.7704C54.2302 26.1166 54.1007 26.4201 53.8634 26.6579C53.6261 26.8962 53.2809 27.0046 52.8279 27.0046C52.6553 27.0046 52.5042 26.983 52.3743 26.9614C52.2567 26.9253 52.1414 26.8819 52.0291 26.8315C51.9213 26.7878 51.835 26.7231 51.7702 26.6795C51.7055 26.6148 51.6408 26.5716 51.5976 26.528L51.9428 25.9435L52.0723 26.0734C52.1154 26.1166 52.1801 26.1602 52.2664 26.2034C52.3312 26.2465 52.4175 26.2902 52.5042 26.3113C52.5905 26.3333 52.6984 26.3554 52.8279 26.3554C53.0436 26.3554 53.2162 26.3113 53.3241 26.2034C53.3767 26.162 53.4195 26.1094 53.4493 26.0494C53.4792 25.9895 53.4953 25.9237 53.4967 25.8567C53.4967 25.7488 53.4751 25.6621 53.4535 25.5968C53.4369 25.5178 53.3906 25.4481 53.3241 25.4022C53.2593 25.3586 53.1946 25.2723 53.1299 25.2286C53.0436 25.1855 52.9573 25.1207 52.8494 25.0555L52.569 24.8824C52.288 24.7089 52.0723 24.5142 51.9213 24.3196C51.7702 24.1244 51.6839 23.8645 51.6839 23.5615C51.6839 23.3879 51.7055 23.258 51.7918 23.1065C51.8565 22.9766 51.9428 22.8466 52.0507 22.7603C52.1586 22.652 52.288 22.5868 52.4606 22.522C52.6121 22.4568 52.7847 22.4352 52.9573 22.4352C53.1299 22.4352 53.2809 22.4568 53.3888 22.4784C53.4967 22.5005 53.6045 22.5652 53.7124 22.6083C53.7987 22.652 53.885 22.7167 53.9282 22.7603C53.9816 22.792 54.0261 22.8367 54.0576 22.8903L53.7987 23.41ZM57.4026 26.8962V24.0813C57.4026 23.713 57.3594 23.4532 57.2516 23.3016C57.1437 23.1496 56.9927 23.0633 56.7554 23.0633C56.6259 23.0633 56.518 23.0849 56.4317 23.1065C56.3417 23.1333 56.2547 23.1696 56.1724 23.2149C56.1025 23.2586 56.0375 23.3096 55.9782 23.3669C55.9135 23.4316 55.8703 23.4747 55.8488 23.5179V26.8962H55.1152V22.522H55.784V23.0202H55.8056C55.8272 22.9766 55.8919 22.9118 55.935 22.8466C55.9998 22.7819 56.0645 22.7167 56.1724 22.652C56.2587 22.5868 56.367 22.5436 56.4965 22.5C56.6259 22.4568 56.7554 22.4352 56.9064 22.4352C57.4026 22.4352 57.7478 22.6304 57.9635 23.0202C58.0067 22.955 58.0714 22.8903 58.1361 22.825C58.2013 22.7603 58.2876 22.6951 58.3955 22.6304C58.5034 22.5652 58.6112 22.522 58.7191 22.5005C58.8486 22.4568 58.978 22.4568 59.129 22.4568C60.0136 22.4568 60.4671 22.9766 60.4671 24.016V26.9614H59.7331V24.146C59.7331 23.7782 59.6684 23.5184 59.5389 23.3664C59.4095 23.2149 59.2153 23.1281 58.978 23.1281C58.7623 23.1281 58.5897 23.1717 58.4602 23.2801C58.3308 23.3879 58.2229 23.4747 58.1361 23.5615C58.1577 23.6262 58.1577 23.6915 58.1577 23.7777V26.9614L57.4026 26.8962ZM62.2583 26.8962H61.5242V22.522H62.2583V26.8962ZM61.891 21.461C61.74 21.461 61.6105 21.4173 61.5242 21.309C61.438 21.2011 61.3948 21.0927 61.3948 20.9196C61.3948 20.7461 61.438 20.6377 61.5242 20.5514C61.6105 20.4646 61.74 20.3994 61.891 20.3994C62.0425 20.3994 62.1504 20.4431 62.2583 20.5514C62.3446 20.6377 62.3877 20.7676 62.3877 20.9192C62.3877 21.0712 62.3446 21.2011 62.2583 21.309C62.172 21.4173 62.0425 21.461 61.891 21.461ZM65.7758 26.8962V24.0813C65.7758 23.713 65.7106 23.4532 65.5812 23.2801C65.4517 23.1065 65.2576 23.0418 65.0203 23.0418C64.8045 23.0418 64.6103 23.1065 64.4809 23.2149C64.3299 23.3227 64.222 23.4316 64.1357 23.5399V26.9183H63.4017V22.5436H64.071V23.0418H64.0926C64.1141 22.9981 64.1573 22.955 64.2004 22.8898C64.2652 22.825 64.3299 22.7603 64.4378 22.6951C64.5456 22.6304 64.6535 22.5652 64.7829 22.522C64.9124 22.4784 65.0634 22.4568 65.236 22.4568C65.4302 22.4568 65.6028 22.4784 65.7543 22.5436C65.9053 22.6088 66.0563 22.6956 66.1642 22.825C66.2721 22.955 66.3584 23.1281 66.4231 23.3232C66.4878 23.5179 66.5094 23.7777 66.5094 24.0813V26.9614L65.7758 26.8962ZM68.3437 26.8962H67.6097V22.522H68.3437V26.8962ZM67.9769 21.461C67.8259 21.461 67.6964 21.4173 67.6097 21.309C67.5234 21.2227 67.4802 21.0927 67.4802 20.9196C67.4802 20.7461 67.5234 20.6377 67.6097 20.5514C67.6964 20.4646 67.8259 20.3994 67.9769 20.3994C68.1279 20.3994 68.2358 20.4431 68.3437 20.5514C68.43 20.6377 68.4731 20.7676 68.4731 20.9192C68.4731 21.0712 68.43 21.2011 68.3437 21.309C68.2574 21.4173 68.1279 21.461 67.9769 21.461ZM71.3646 23.41C71.3214 23.3664 71.2351 23.2801 71.1057 23.1933C70.9588 23.0949 70.7862 23.0421 70.6095 23.0413C70.4153 23.0413 70.2643 23.0854 70.1564 23.1717C70.1072 23.2098 70.0678 23.2592 70.0415 23.3157C70.0152 23.3721 70.0028 23.4341 70.0054 23.4963C70.0054 23.6699 70.0485 23.7998 70.1348 23.9082C70.2211 24.016 70.3721 24.1244 70.5663 24.2543L70.8468 24.4274C71.1488 24.601 71.3866 24.7957 71.5376 24.9908C71.7102 25.1855 71.7965 25.4669 71.7965 25.7704C71.7965 26.1166 71.6671 26.4201 71.4298 26.6579C71.192 26.8962 70.8468 27.0046 70.3937 27.0046C70.2211 27.0046 70.0701 26.983 69.9407 26.9614C69.823 26.9253 69.7077 26.8819 69.5955 26.8315C69.5063 26.7856 69.4197 26.7348 69.3361 26.6795C69.2714 26.6148 69.2066 26.5716 69.1635 26.528L69.5092 25.9435L69.6386 26.0734C69.6818 26.1166 69.7465 26.1602 69.8328 26.2034C69.8975 26.2465 69.9838 26.2902 70.0701 26.3113C70.1564 26.3333 70.2643 26.3554 70.3937 26.3554C70.6095 26.3554 70.7821 26.3113 70.8899 26.2034C70.9978 26.0955 71.0625 25.9867 71.0625 25.8567C71.0625 25.7488 71.0409 25.6621 71.0194 25.5968C71.0028 25.5178 70.9564 25.4481 70.8899 25.4022C70.8468 25.337 70.7605 25.2723 70.6958 25.2286C70.631 25.1855 70.5232 25.1207 70.4153 25.0555L70.1348 24.8824C69.8544 24.7089 69.6386 24.5142 69.4871 24.3196C69.3361 24.1244 69.2498 23.8645 69.2498 23.5615C69.2498 23.3879 69.2714 23.258 69.3361 23.1065C69.4008 22.9766 69.4871 22.8466 69.5955 22.7603C69.7033 22.652 69.8544 22.5868 70.0054 22.522C70.1564 22.4568 70.329 22.4352 70.5016 22.4352C70.6742 22.4352 70.8252 22.4568 70.9331 22.4784C71.0625 22.5005 71.1488 22.5652 71.2567 22.6083C71.343 22.652 71.4082 22.7167 71.4729 22.7603C71.5263 22.792 71.5709 22.8367 71.6024 22.8903L71.3646 23.41ZM74.537 23.1281H73.5877V25.5537C73.5877 25.8567 73.6308 26.0734 73.6956 26.1813C73.7819 26.2902 73.9113 26.3549 74.1055 26.3549C74.2133 26.3549 74.3212 26.3333 74.3859 26.3117C74.4722 26.2902 74.5154 26.2465 74.5585 26.225L74.6664 26.8099C74.6448 26.8315 74.5585 26.8746 74.4507 26.9178C74.3428 26.9614 74.1918 27.0046 73.9976 27.0046C73.6308 27.0046 73.3504 26.8967 73.1557 26.7015C72.9615 26.5064 72.8752 26.1382 72.8752 25.6621V23.1281H72.3575V22.6304L72.8752 22.522L72.9615 21.309H73.6093V22.522H74.6664L74.537 23.1281ZM78.1193 23.9945C78.1193 24.1896 78.1193 24.3411 78.0977 24.4926C78.0977 24.6226 78.0761 24.7525 78.0545 24.8604H75.8319C75.8535 25.3801 75.9613 25.7484 76.1555 26.0082C76.3497 26.2465 76.6301 26.3765 76.9969 26.3765C77.1268 26.3765 77.2347 26.3549 77.3426 26.3333C77.4505 26.3117 77.5368 26.2681 77.6015 26.2254C77.6878 26.1813 77.7309 26.1382 77.7956 26.095L77.9035 25.9871L78.184 26.5069L78.0545 26.6363C77.9898 26.7015 77.9035 26.7447 77.8172 26.8099C77.7094 26.8746 77.5799 26.9178 77.4289 26.9614C77.2779 27.0046 77.1053 27.0261 76.889 27.0261C76.6086 27.0261 76.3713 26.983 76.1555 26.8962C75.9335 26.804 75.74 26.6546 75.5946 26.4633C75.4257 26.2439 75.3012 25.9937 75.2278 25.7268C75.141 25.4238 75.0979 25.0771 75.0979 24.6657C75.0979 24.2759 75.141 23.9297 75.2278 23.6478C75.3141 23.3664 75.4436 23.1281 75.5946 22.955C75.7456 22.7819 75.9182 22.6304 76.1124 22.5436C76.3165 22.4549 76.5371 22.4106 76.7596 22.4137C77.17 22.4137 77.5152 22.5436 77.7525 22.8035C77.9898 23.0849 78.0977 23.4752 78.1193 23.9945ZM76.7164 23.0202C76.4576 23.0202 76.2418 23.1281 76.0908 23.3448C75.9398 23.5615 75.8319 23.8861 75.8103 24.2975H77.4073C77.4073 24.2759 77.4289 24.2328 77.4289 24.1676V23.9729C77.4289 23.6699 77.3642 23.4316 77.2347 23.258C77.1053 23.0849 76.9538 23.0202 76.7164 23.0202ZM81.0112 23.1717C80.9896 23.1501 80.9465 23.1501 80.9033 23.1281C80.8386 23.1065 80.7518 23.1065 80.6655 23.1065C80.4282 23.1065 80.2556 23.1717 80.1262 23.3016C79.9967 23.4316 79.9104 23.5615 79.8457 23.713V26.9394H79.1122V22.5657H79.781V23.1501H79.8025C79.8241 23.0633 79.8673 22.9766 79.9104 22.8903C79.9536 22.8035 80.0183 22.7383 80.083 22.6735C80.1693 22.6083 80.234 22.5657 80.3419 22.5215C80.4498 22.4784 80.5576 22.4568 80.7087 22.4568C80.8165 22.4568 80.9033 22.4568 80.968 22.4784C81.0328 22.5005 81.0759 22.5005 81.1191 22.522L81.0112 23.1717ZM82.4782 26.8962H81.7447V22.522H82.4782V26.8962ZM82.1115 21.461C81.9605 21.461 81.831 21.4173 81.7447 21.309C81.6584 21.2011 81.6153 21.0927 81.6153 20.9196C81.6153 20.7461 81.6584 20.6377 81.7447 20.5514C81.831 20.4646 81.9605 20.3994 82.1115 20.3994C82.2625 20.3994 82.3704 20.4431 82.4567 20.5514C82.543 20.6593 82.5861 20.7676 82.5861 20.9192C82.5861 21.0712 82.543 21.2011 82.4567 21.309C82.3704 21.4173 82.2625 21.461 82.1115 21.461ZM86.6651 26.8962H85.9958V26.398H85.9743C85.9527 26.4417 85.9095 26.4848 85.8664 26.55C85.8017 26.6148 85.7369 26.68 85.6291 26.7447C85.5428 26.8099 85.4133 26.8746 85.2839 26.9178C85.1373 26.9637 84.9844 26.9857 84.8308 26.983C84.6367 26.983 84.4636 26.9614 84.3125 26.8962C84.1622 26.8353 84.0289 26.7387 83.9242 26.6148C83.8163 26.4848 83.73 26.3117 83.6653 26.1166C83.6006 25.9219 83.579 25.6621 83.579 25.3586V22.4789H84.3125V25.2938C84.3125 25.6616 84.3773 25.9214 84.4851 26.0734C84.593 26.2254 84.7877 26.3117 85.0466 26.3117C85.2623 26.3117 85.4349 26.2681 85.5859 26.1597C85.7369 26.0519 85.8448 25.9435 85.9311 25.8567V22.5005H86.6651V26.8962ZM90.0959 26.8962V24.0813C90.0959 23.713 90.0528 23.4532 89.9449 23.3016C89.837 23.1496 89.686 23.0633 89.4487 23.0633C89.3192 23.0633 89.2114 23.0849 89.1251 23.1065C89.0405 23.1293 88.9604 23.1659 88.8878 23.2149C88.8179 23.2586 88.7528 23.3096 88.6936 23.3669C88.6289 23.4316 88.5857 23.4747 88.5641 23.5179V26.8962H87.8301V22.522H88.4994V23.0202H88.521C88.5426 22.9766 88.6073 22.9118 88.6504 22.8466C88.7152 22.7819 88.7799 22.7167 88.8878 22.652C88.9741 22.5868 89.0819 22.5436 89.2114 22.5C89.3408 22.4568 89.4703 22.4352 89.6213 22.4352C90.1175 22.4352 90.4632 22.6304 90.6789 23.0202C90.7221 22.955 90.7868 22.8903 90.8515 22.825C90.9162 22.7603 91.0025 22.6951 91.1104 22.6304C91.2183 22.5652 91.3261 22.522 91.434 22.5005C91.5419 22.4784 91.6929 22.4568 91.8439 22.4568C92.729 22.4568 93.182 22.9766 93.182 24.016V26.9614H92.4485V24.146C92.4485 23.7782 92.3838 23.5184 92.2543 23.3664C92.1244 23.2149 91.9302 23.1281 91.6929 23.1281C91.4772 23.1281 91.3046 23.1717 91.1751 23.2801C91.0457 23.3879 90.9378 23.4747 90.8515 23.5615C90.8515 23.6262 90.8731 23.6915 90.8731 23.7777V26.9614L90.0959 26.8962ZM32.7584 32.3324H31.8739V36.1221H31.1394V32.3319H30.6216V31.8343L31.1394 31.7264V30.8369C31.1394 30.5991 31.1609 30.404 31.2472 30.2309C31.3023 30.0763 31.3906 29.9357 31.5061 29.819C31.614 29.7112 31.7439 29.6244 31.895 29.5812C32.0422 29.5384 32.1947 29.5164 32.348 29.516C32.499 29.516 32.6501 29.5376 32.7579 29.5812C32.8658 29.6244 32.9305 29.6675 32.9737 29.6891L32.8226 30.2956C32.7795 30.274 32.7363 30.2525 32.6716 30.2093C32.5953 30.1825 32.5152 30.1677 32.4343 30.1657C32.2617 30.1657 32.1323 30.2093 32.0244 30.3393C31.9165 30.4687 31.895 30.6423 31.895 30.9453V31.7249H32.8874L32.7579 32.3314L32.7584 32.3324ZM36.5349 36.1221H35.8661V35.624H35.8445C35.8229 35.6671 35.7798 35.7108 35.7151 35.7755C35.6451 35.8509 35.5653 35.9165 35.4777 35.9706C35.391 36.0354 35.262 36.1006 35.1321 36.1437C34.9855 36.1895 34.8325 36.2113 34.679 36.2084C34.4848 36.2084 34.3123 36.1869 34.1612 36.1221C34.0108 36.0611 33.8775 35.9643 33.7729 35.8402C33.665 35.7108 33.5782 35.5372 33.5135 35.3425C33.4488 35.1474 33.4272 34.8875 33.4272 34.5845V31.7043H34.1612V34.5193C34.1612 34.8875 34.226 35.1474 34.3338 35.2989C34.4633 35.4509 34.6359 35.5372 34.8948 35.5372C35.1105 35.5372 35.2831 35.494 35.4341 35.3857C35.5856 35.2778 35.6935 35.169 35.7798 35.0611V31.7043H36.5133L36.5349 36.1221ZM34.7222 30.4692C34.7222 30.5996 34.679 30.7291 34.5927 30.8159C34.5535 30.8565 34.5066 30.8889 34.4548 30.9112C34.4029 30.9335 34.3471 30.9453 34.2907 30.9458C34.2342 30.9453 34.1784 30.9335 34.1266 30.9112C34.0747 30.8889 34.0278 30.8565 33.9886 30.8159C33.9023 30.7296 33.8592 30.6212 33.8592 30.4697C33.8592 30.3177 33.9023 30.2098 33.9886 30.123C34.0278 30.0824 34.0747 30.05 34.1266 30.0277C34.1784 30.0054 34.2342 29.9936 34.2907 29.9931C34.3985 29.9931 34.5064 30.0362 34.5927 30.123C34.679 30.2093 34.7222 30.3393 34.7222 30.4692ZM36.1245 30.4692C36.1245 30.5996 36.0818 30.7291 35.9955 30.8159C35.9563 30.8565 35.9094 30.8889 35.8576 30.9112C35.8057 30.9335 35.7499 30.9453 35.6935 30.9458C35.637 30.9453 35.5811 30.9336 35.5291 30.9113C35.4772 30.889 35.4302 30.8565 35.391 30.8159C35.3047 30.7296 35.2615 30.6212 35.2615 30.4697C35.2615 30.3177 35.3047 30.2098 35.391 30.123C35.4302 30.0823 35.4772 30.0499 35.5291 30.0276C35.5811 30.0053 35.637 29.9935 35.6935 29.9931C35.8014 29.9931 35.9092 30.0362 35.9955 30.123C36.0818 30.2093 36.1245 30.3393 36.1245 30.4692ZM39.5994 32.3751C39.5778 32.3535 39.5347 32.3535 39.4915 32.3319C39.4268 32.3104 39.3405 32.3104 39.2542 32.3104C39.0164 32.3104 38.8438 32.3751 38.7149 32.505C38.5849 32.635 38.4991 32.7649 38.4339 32.9169V36.1432H37.7004V31.7686H38.3692V32.3535H38.3908C38.4123 32.2667 38.4555 32.1804 38.4986 32.1152C38.5418 32.0284 38.6065 31.9632 38.6712 31.8985C38.736 31.8338 38.8222 31.7906 38.9301 31.747C39.038 31.7038 39.1459 31.7038 39.2969 31.7038C39.4048 31.7038 39.4915 31.7254 39.5563 31.7254C39.621 31.747 39.6641 31.747 39.7073 31.7686L39.5994 32.3751ZM45.4907 31.4224C45.4907 31.6386 45.4691 31.8338 45.4044 32.0069C45.3612 32.1804 45.2749 32.3104 45.1886 32.4403C45.1081 32.5616 44.9963 32.6588 44.865 32.7217C44.7396 32.7884 44.6097 32.8463 44.4762 32.8948V32.9164C44.6488 32.938 44.7998 33.0032 44.9297 33.0895C45.0807 33.1763 45.1886 33.2846 45.2965 33.4146C45.4044 33.5445 45.4907 33.696 45.5554 33.8691C45.6201 34.0427 45.6417 34.2373 45.6417 34.4325C45.6417 34.6708 45.5985 34.9086 45.5122 35.1253C45.4259 35.342 45.2965 35.5151 45.1239 35.6666C44.9513 35.8186 44.7135 35.9265 44.4546 36.0133C44.1741 36.1001 43.8505 36.1432 43.4838 36.1432H42.2104V29.8416H43.419C43.7858 29.8416 44.1094 29.8847 44.3683 29.9495C44.6272 30.0362 44.8434 30.1446 45.0155 30.2745C45.1886 30.4045 45.3181 30.5776 45.3828 30.7727C45.4475 30.9674 45.4907 31.1841 45.4907 31.4224ZM44.6919 31.444C44.6919 31.1409 44.584 30.9026 44.3899 30.7296C44.1741 30.5344 43.8505 30.4476 43.419 30.4476H43.0086V32.6134H43.419C43.8505 32.6134 44.1741 32.5055 44.3899 32.3104C44.584 32.0936 44.6919 31.8122 44.6919 31.444ZM44.8214 34.3457C44.8214 33.999 44.7135 33.7392 44.4978 33.5445C44.282 33.3494 43.9584 33.2415 43.5485 33.2415H43.0091V35.4504H43.5053C43.98 35.4504 44.3036 35.3636 44.5193 35.1685C44.7351 34.9738 44.7998 34.7139 44.8214 34.3457ZM47.3681 36.1217H46.6336V31.747H47.3676L47.3681 36.1217ZM47.0013 30.6643C46.8498 30.6643 46.7204 30.6212 46.6341 30.5123C46.5478 30.4045 46.5046 30.2966 46.5046 30.123C46.5046 29.9495 46.5478 29.8416 46.6341 29.7548C46.7204 29.668 46.8498 29.6028 47.0013 29.6028C47.1524 29.6028 47.2602 29.6469 47.3465 29.7548C47.4328 29.8627 47.476 29.9715 47.476 30.1225C47.476 30.2745 47.4328 30.4045 47.3465 30.5128C47.2602 30.6207 47.1524 30.6643 47.0013 30.6643ZM49.224 35.0822C49.224 35.2552 49.2456 35.3852 49.3103 35.472C49.3534 35.5367 49.4397 35.5798 49.5692 35.5798C49.6339 35.5798 49.6986 35.5798 49.7418 35.5583C49.7849 35.5367 49.8281 35.5367 49.8496 35.5151L49.9144 36.0564C49.8712 36.078 49.8065 36.1001 49.7202 36.1217C49.6123 36.1432 49.4829 36.1648 49.3319 36.1648C49.0945 36.1648 48.8788 36.078 48.7273 35.9265C48.5763 35.775 48.5115 35.4935 48.5115 35.1037V29.6033L49.2456 29.5165L49.224 35.0822ZM50.3674 33.9775C50.3674 33.5229 50.4321 33.1547 50.54 32.8733C50.6484 32.5697 50.7994 32.3319 50.9936 32.1584C51.1711 31.9843 51.3847 31.8512 51.6192 31.7686C51.8565 31.6823 52.0723 31.6607 52.3096 31.6607C52.439 31.6607 52.569 31.6823 52.6768 31.6823C52.7847 31.7038 52.871 31.7254 52.9357 31.7686V29.668L53.6693 29.5817V36.1217H53.0005V35.6666H52.9573C52.9357 35.7103 52.9142 35.7534 52.8494 35.8186C52.8063 35.8834 52.7416 35.9481 52.6553 36.0133C52.569 36.078 52.4606 36.1212 52.3312 36.1864C52.1846 36.2323 52.0316 36.2543 51.8781 36.2516C51.6624 36.2516 51.4682 36.2079 51.2956 36.1217C51.1059 36.0357 50.9422 35.9012 50.821 35.7318C50.6665 35.5254 50.5561 35.2894 50.4969 35.0385C50.4106 34.7355 50.3674 34.3888 50.3674 33.9775ZM52.0938 35.5803C52.2017 35.5803 52.3096 35.5583 52.3959 35.5367C52.4822 35.5151 52.569 35.472 52.6337 35.4288C52.6984 35.3852 52.7631 35.342 52.8063 35.2768C52.8494 35.2337 52.8926 35.1905 52.9142 35.1469V32.4403C52.8416 32.3914 52.7614 32.3548 52.6768 32.3319C52.5711 32.3039 52.4622 32.2892 52.3527 32.2883C52.1801 32.2883 52.0291 32.3104 51.8781 32.3751C51.7271 32.4403 51.5976 32.5271 51.4898 32.6565C51.3819 32.7865 51.2956 32.9596 51.2309 33.1763C51.1573 33.4295 51.1209 33.6922 51.123 33.9559C51.123 34.2589 51.1446 34.5188 51.2093 34.7139C51.274 34.9086 51.3387 35.0817 51.425 35.2121C51.5113 35.342 51.6192 35.4283 51.7271 35.472C51.835 35.5151 51.9644 35.5588 52.0938 35.5803ZM57.8341 36.1217H57.1653V35.6235H57.1437C57.1221 35.6666 57.079 35.7103 57.0358 35.775C56.9658 35.8504 56.886 35.916 56.7985 35.9701C56.7122 36.0349 56.5828 36.1001 56.4533 36.1432C56.3066 36.189 56.1534 36.2109 55.9998 36.208C55.8056 36.208 55.633 36.1864 55.482 36.1217C55.3316 36.0606 55.1983 35.9639 55.0937 35.8397C54.9858 35.7103 54.8995 35.5367 54.8348 35.342C54.77 35.1469 54.7485 34.887 54.7485 34.584V31.7038H55.482V34.5188C55.482 34.887 55.5467 35.1469 55.6546 35.2984C55.7625 35.4504 55.9566 35.5367 56.1939 35.5367C56.4102 35.5367 56.5828 35.4935 56.7338 35.3852C56.8848 35.2773 56.9927 35.1685 57.079 35.0606V31.7038H57.8125L57.8341 36.1217ZM61.3517 36.1217V33.3062C61.3517 32.9385 61.2869 32.6786 61.1575 32.505C61.028 32.3319 60.8339 32.2667 60.5966 32.2667C60.3808 32.2667 60.1866 32.3104 60.0567 32.4403C59.9057 32.5482 59.7978 32.6565 59.7115 32.7649V36.1432H58.978V31.7686H59.6468V32.2667H59.6684C59.6899 32.2236 59.7331 32.1804 59.7762 32.1152C59.8194 32.0505 59.9057 31.9853 60.0136 31.9206C60.1219 31.8553 60.2298 31.7906 60.3592 31.747C60.4887 31.7038 60.6397 31.6823 60.8123 31.6823C61.0065 31.6823 61.1791 31.7038 61.3517 31.7686C61.5027 31.8338 61.6321 31.9206 61.7616 32.0505C61.8694 32.1804 61.9562 32.3535 62.0209 32.5482C62.0857 32.7433 62.1072 33.0032 62.1072 33.3062V36.1864L61.3517 36.1217ZM66.3368 32.3104H65.7974C65.9269 32.5482 66.0132 32.808 66.0132 33.09C66.0132 33.3278 65.97 33.5229 65.9053 33.7176C65.819 33.9127 65.7327 34.0643 65.5812 34.1942C65.4517 34.3241 65.2791 34.4109 65.1066 34.4972C64.9124 34.5624 64.7182 34.6056 64.5025 34.6056H64.2867C64.222 34.6271 64.1357 34.6924 64.0494 34.7576C63.9631 34.8223 63.9415 34.9086 63.9415 35.0174C63.9415 35.1037 63.9847 35.1905 64.0494 35.2332C64.1141 35.2984 64.2436 35.3205 64.3946 35.3205H64.9555C65.1713 35.3205 65.3439 35.342 65.538 35.3852C65.7106 35.4283 65.8621 35.4931 65.9916 35.5803C66.121 35.6666 66.2289 35.7966 66.2936 35.9481C66.3584 36.1001 66.4015 36.2732 66.4015 36.4678C66.4015 36.7061 66.3583 36.9228 66.2505 37.1175C66.1426 37.3126 66.0132 37.4857 65.819 37.6157C65.6243 37.7456 65.4086 37.8755 65.1497 37.9408C64.8707 38.0293 64.5794 38.0732 64.2867 38.0707C63.8116 38.0707 63.4664 37.9623 63.2291 37.7672C62.9918 37.5725 62.8623 37.269 62.8623 36.8797C62.8623 36.7061 62.8839 36.5762 62.9486 36.4462C63.0134 36.3163 63.0781 36.23 63.1644 36.1432C63.2507 36.0564 63.3154 35.9912 63.4017 35.9265C63.488 35.8834 63.5527 35.8402 63.5959 35.7966V35.775C63.4017 35.6451 63.3154 35.4283 63.3154 35.1685C63.3154 35.0606 63.337 34.9522 63.3801 34.8654C63.4233 34.7787 63.488 34.7134 63.5311 34.6487C63.5959 34.6056 63.639 34.5408 63.7037 34.5188C63.7685 34.4972 63.8116 34.4541 63.8332 34.4541V34.4325C63.6174 34.3241 63.4233 34.1726 63.2938 33.9343C63.1644 33.7176 63.0781 33.4361 63.0781 33.0895C63.0781 32.8517 63.1212 32.635 63.186 32.4403C63.2723 32.2451 63.3801 32.0936 63.5096 31.9853C63.639 31.8553 63.79 31.7686 63.9847 31.7038C64.1573 31.6386 64.3515 31.617 64.5672 31.617C64.7829 31.617 64.9771 31.6607 65.1497 31.7254H66.4878L66.3368 32.3104ZM64.2867 35.9701C64.1573 35.9701 64.0494 35.9701 63.9415 35.9481C63.8984 35.9696 63.8337 36.0133 63.79 36.0564C63.7469 36.1001 63.6822 36.1432 63.639 36.2084C63.5959 36.2732 63.5527 36.3379 63.5311 36.4247C63.5096 36.5115 63.488 36.5978 63.488 36.7061C63.488 37.1827 63.7469 37.3989 64.2652 37.3989C64.7182 37.3989 65.0418 37.3126 65.2576 37.1391C65.4733 36.966 65.5812 36.7713 65.5812 36.533C65.5812 36.2947 65.5165 36.1648 65.387 36.078C65.2576 35.9917 65.0634 35.9481 64.8477 35.9481L64.2867 35.9701ZM65.2792 33.09C65.2792 32.7649 65.1929 32.5482 65.0634 32.4182C64.9208 32.2916 64.7364 32.2222 64.5456 32.2236C64.3299 32.2236 64.1573 32.2883 64.0063 32.4182C63.8552 32.5482 63.7685 32.7865 63.7685 33.09C63.7685 33.393 63.8552 33.6313 64.0063 33.7612C64.1573 33.8912 64.3299 33.9559 64.524 33.9559C64.7398 33.9559 64.9124 33.8912 65.0634 33.7612C65.1929 33.6313 65.2576 33.4151 65.2792 33.09ZM33.9671 45.325H33.2978V44.8269H33.2762C33.2546 44.8705 33.2115 44.9136 33.1468 44.9789C33.082 45.0436 33.0173 45.1083 32.9094 45.1735C32.8231 45.2382 32.6937 45.3035 32.5642 45.3466C32.4177 45.3925 32.2647 45.4146 32.1112 45.4118C31.917 45.4118 31.7444 45.3902 31.5929 45.325C31.4425 45.2641 31.3093 45.1675 31.2046 45.0436C31.0967 44.9137 31.0104 44.7406 30.9457 44.5454C30.881 44.3508 30.8594 44.0909 30.8594 43.7874V40.9072H31.5929V43.7227C31.5929 44.0904 31.6576 44.3503 31.7655 44.5023C31.8954 44.6538 32.068 44.7406 32.3269 44.7406C32.5427 44.7406 32.7153 44.6969 32.8663 44.5886C33.0173 44.4807 33.1252 44.3723 33.2115 44.264V40.9072H33.9455L33.9671 45.325ZM37.4846 45.325V42.5096C37.4846 42.1418 37.4199 41.882 37.29 41.7084C37.1605 41.5353 36.9879 41.4701 36.7291 41.4701C36.5133 41.4701 36.3191 41.5137 36.1897 41.6437C36.0599 41.7351 35.9437 41.8444 35.8445 41.9683V45.3466H35.1105V40.9724H35.7798V41.4701H35.8014C35.8229 41.427 35.8661 41.3838 35.9092 41.3186C35.9524 41.2539 36.0387 41.1887 36.1466 41.1239C36.2328 41.0587 36.3623 40.994 36.4917 40.9509C36.6212 40.9072 36.7722 40.8856 36.9448 40.8856C37.139 40.8856 37.3121 40.9072 37.4626 40.9724C37.6141 41.0371 37.7651 41.1239 37.873 41.2539C37.9809 41.3838 38.0672 41.5569 38.1319 41.752C38.1966 41.9467 38.2182 42.2066 38.2182 42.5101V45.3898L37.4846 45.325ZM39.1243 43.2029C39.1243 42.7479 39.189 42.3801 39.2969 42.0982C39.4048 41.8168 39.5563 41.5569 39.7504 41.3838C39.923 41.2102 40.1388 41.0587 40.3761 40.994C40.6134 40.9072 40.8291 40.8861 41.0665 40.8861C41.1959 40.8861 41.3258 40.8861 41.4337 40.9072C41.5416 40.9288 41.6279 40.9509 41.6926 40.994V38.893L42.4261 38.8062V45.3461H41.7358V44.8916H41.7142C41.6926 44.9347 41.671 44.9779 41.6063 45.0431C41.5632 45.1078 41.4984 45.173 41.4121 45.2378C41.3258 45.303 41.2175 45.3461 41.0885 45.4113C40.9418 45.4572 40.7887 45.479 40.635 45.476C40.4192 45.476 40.2251 45.4329 40.0525 45.3461C39.8583 45.2593 39.7073 45.1299 39.5563 44.9563C39.402 44.75 39.2919 44.5142 39.2327 44.2635C39.1614 43.9143 39.1253 43.5588 39.1248 43.2024L39.1243 43.2029ZM40.8507 44.7837C40.9586 44.7837 41.0665 44.7621 41.1528 44.7406C41.2391 44.7185 41.3258 44.6754 41.3906 44.6322C41.4553 44.5886 41.52 44.5454 41.5632 44.4802C41.6063 44.4371 41.6495 44.3939 41.671 44.3508V41.6437C41.5984 41.5948 41.5182 41.5581 41.4337 41.5353C41.3281 41.5074 41.2194 41.4929 41.1101 41.4922C40.937 41.4922 40.7865 41.5137 40.635 41.5785C40.484 41.6437 40.3545 41.7305 40.2466 41.8604C40.1388 41.9899 40.0525 42.1634 39.9878 42.3801C39.923 42.5964 39.9015 42.8562 39.9015 43.1598C39.9015 43.4628 39.923 43.7227 39.9878 43.9173C40.0309 44.1125 40.1172 44.2855 40.2035 44.4155C40.2898 44.5454 40.3977 44.6322 40.5055 44.6754C40.6134 44.7185 40.7213 44.7837 40.8507 44.7837ZM45.6201 45.325V39.0234H48.7062L48.6626 39.651H46.4183V41.9899H48.49V42.618H46.4183V45.325H45.6201ZM49.2671 43.1382C49.2671 42.7263 49.3103 42.3797 49.4181 42.0987C49.5044 41.7952 49.6339 41.5569 49.8065 41.3838C49.9791 41.2102 50.1517 41.0587 50.3674 40.9719C50.5799 40.8855 50.8073 40.8415 51.0367 40.8425C51.274 40.8425 51.5113 40.8856 51.7055 40.9724C51.9213 41.0587 52.0938 41.1887 52.2449 41.3838C52.3959 41.5785 52.5258 41.8168 52.6121 42.0982C52.6984 42.3801 52.7416 42.7479 52.7416 43.1377C52.7416 43.5275 52.6984 43.8957 52.6121 44.1988C52.5356 44.4623 52.4029 44.7062 52.2233 44.9137C52.0769 45.0989 51.883 45.241 51.6624 45.325C51.4466 45.4118 51.2309 45.455 50.9936 45.455C50.7562 45.455 50.5184 45.4118 50.3243 45.325C50.1099 45.2402 49.9232 45.0977 49.7849 44.9132C49.6204 44.6992 49.4961 44.4571 49.4181 44.1988C49.3103 43.8957 49.2671 43.5496 49.2671 43.1382ZM51.9644 43.1382C51.9644 42.5532 51.8781 42.1198 51.7055 41.8599C51.5329 41.6 51.2956 41.4706 50.9936 41.4706C50.6915 41.4706 50.4537 41.6 50.2811 41.8599C50.1085 42.1198 50.0222 42.5532 50.0222 43.1377C50.0222 43.7227 50.1085 44.134 50.2811 44.3939C50.4537 44.6538 50.6915 44.7837 50.9936 44.7837C51.2956 44.7837 51.5329 44.6538 51.7055 44.3939C51.8781 44.134 51.9644 43.7227 51.9644 43.1382ZM55.5683 41.6C55.5467 41.5785 55.5036 41.5785 55.4604 41.5569C55.3957 41.5353 55.3094 41.5353 55.2231 41.5353C54.9858 41.5353 54.8132 41.6 54.6837 41.73C54.564 41.8474 54.4686 41.9874 54.4033 42.1418V45.3682H53.6693V40.9504H54.3381V41.5353H54.3596C54.3812 41.4485 54.4248 41.3622 54.468 41.2754C54.5111 41.1887 54.5759 41.1234 54.6406 41.0587C54.7053 40.994 54.7916 40.9509 54.8995 40.9072C55.0074 40.8641 55.1152 40.8641 55.2662 40.8641C55.3741 40.8641 55.4604 40.8641 55.5251 40.8856C55.5899 40.9072 55.633 40.9072 55.6762 40.9288L55.5683 41.6ZM58.1577 41.8383C58.1145 41.7952 58.0282 41.7084 57.8988 41.6221C57.7694 41.5353 57.5968 41.4922 57.4026 41.4922C57.2084 41.4922 57.0574 41.5353 56.9495 41.6221C56.9003 41.6602 56.8609 41.7096 56.8346 41.7661C56.8083 41.8225 56.796 41.8845 56.7985 41.9467C56.7985 42.1198 56.8417 42.2497 56.9495 42.3586C57.0358 42.4664 57.1868 42.5748 57.381 42.7047L57.6615 42.8778C57.9635 43.0514 58.2013 43.2461 58.3739 43.4412C58.5465 43.6359 58.6328 43.8957 58.6328 44.2208C58.6328 44.567 58.5034 44.8705 58.266 45.0867C58.0282 45.325 57.6831 45.4334 57.23 45.4334C57.078 45.4317 56.9264 45.4171 56.7769 45.3898C56.6475 45.3466 56.518 45.3035 56.4317 45.2598C56.3426 45.214 56.256 45.1635 56.1724 45.1083C56.1076 45.0436 56.0429 45.0004 55.9998 44.9568L56.3454 44.3723L56.4749 44.5023C56.518 44.5454 56.5828 44.6101 56.6691 44.6538C56.7338 44.6969 56.8201 44.7406 56.9064 44.7617C56.9927 44.7837 57.1005 44.8053 57.23 44.8053C57.4457 44.8053 57.6183 44.7621 57.7262 44.6533C57.8341 44.5454 57.8988 44.4375 57.8988 44.3071C57.8988 44.1992 57.8772 44.1125 57.8556 44.0472C57.839 43.9682 57.7927 43.8985 57.7262 43.8526C57.6831 43.7874 57.5968 43.7442 57.532 43.679C57.4457 43.6359 57.3594 43.5711 57.2516 43.5059L56.9711 43.3328C56.6906 43.1593 56.4965 42.9646 56.3239 42.7695C56.1724 42.5748 56.0861 42.3149 56.0861 42.0119C56.0861 41.8383 56.1076 41.6868 56.1724 41.5569C56.2371 41.427 56.3239 41.297 56.4317 41.2102C56.5396 41.1024 56.6691 41.0371 56.8417 40.9724C56.9927 40.9072 57.1653 40.8856 57.3379 40.8856C57.5105 40.8856 57.6615 40.9072 57.7694 40.9288C57.8988 40.9509 57.9851 41.0156 58.093 41.0587C58.1797 41.1024 58.266 41.1671 58.3092 41.2107C58.3739 41.2539 58.4171 41.3186 58.4386 41.3402L58.1577 41.8383ZM61.8694 41.7952L61.7831 41.7084C61.74 41.6653 61.6968 41.6437 61.6321 41.6005C61.5674 41.5569 61.5027 41.5353 61.4164 41.4922C61.3252 41.4654 61.2309 41.4508 61.1359 41.4485C60.9849 41.4485 60.8339 41.4701 60.7044 41.5353C60.575 41.6 60.4455 41.6873 60.3592 41.8168C60.2514 41.9467 60.1866 42.1198 60.1219 42.3149C60.0572 42.5317 60.0351 42.7695 60.0351 43.0514C60.0351 43.376 60.0572 43.6359 60.1219 43.8742C60.1651 44.0909 60.2514 44.264 60.3377 44.3939C60.424 44.5238 60.5318 44.6106 60.6613 44.6754C60.7907 44.7406 60.9417 44.7621 61.0928 44.7621C61.3085 44.7621 61.4811 44.7185 61.6105 44.6538C61.7184 44.567 61.8047 44.5018 61.8694 44.4586L62.172 44.9784C62.1504 45.022 62.0857 45.0652 62.0425 45.1083C61.9778 45.1519 61.9126 45.2167 61.8263 45.2603C61.7215 45.3109 61.6134 45.3541 61.5027 45.3898C61.3532 45.4171 61.2016 45.4317 61.0496 45.4334C60.8123 45.4334 60.575 45.3898 60.3592 45.325C60.1439 45.2413 59.9515 45.1077 59.7978 44.9352C59.6468 44.7621 59.5174 44.5234 59.4311 44.2208C59.3448 43.9173 59.3016 43.5711 59.3016 43.1377C59.3016 42.7047 59.3448 42.3581 59.4742 42.0766C59.6036 41.7952 59.7331 41.5569 59.9057 41.3622C60.0714 41.1939 60.2698 41.0612 60.4887 40.9724C60.6941 40.8879 60.9138 40.8438 61.1359 40.8425C61.3085 40.8425 61.438 40.8641 61.5674 40.8856C61.6968 40.9072 61.8047 40.9509 61.891 40.9935C61.9778 41.0376 62.0425 41.0808 62.1072 41.1455C62.172 41.1887 62.2151 41.2323 62.2583 41.2754L61.8694 41.7952ZM65.3439 45.325V42.5096C65.3439 42.1418 65.2791 41.882 65.1497 41.7084C65.0203 41.5353 64.8261 41.4701 64.5888 41.4701C64.373 41.4701 64.1789 41.5137 64.0494 41.6437C63.8984 41.7516 63.79 41.8599 63.7037 41.9683V45.3466H62.9702V38.8935L63.7037 38.8067V41.4054H63.7253C63.7469 41.3622 63.79 41.3186 63.8332 41.2534C63.8768 41.1887 63.9631 41.1239 64.0494 41.0808C64.1357 41.0156 64.2436 40.9724 64.373 40.9288C64.5025 40.8856 64.6535 40.8641 64.8261 40.8641C65.2144 40.8641 65.5165 40.994 65.7327 41.2318C65.9484 41.4917 66.0779 41.9036 66.0779 42.4664V45.3466L65.3439 45.325ZM70.2427 45.325H69.5739V44.8269H69.5523C69.5308 44.8705 69.4871 44.9136 69.444 44.9789C69.3792 45.0436 69.3145 45.1083 69.2066 45.1735C69.1203 45.2382 68.9909 45.3035 68.8615 45.3466C68.7149 45.3926 68.5619 45.4146 68.4084 45.4118C68.2142 45.4118 68.0416 45.3902 67.8906 45.325C67.7401 45.2642 67.6066 45.1676 67.5018 45.0436C67.3939 44.9137 67.3076 44.7406 67.2429 44.5454C67.1782 44.3508 67.1566 44.0909 67.1566 43.7874V40.9509H67.8906V43.7658C67.8906 44.1335 67.9553 44.3934 68.0632 44.5454C68.1711 44.6974 68.3652 44.7837 68.6026 44.7837C68.8183 44.7837 68.9909 44.7406 69.1419 44.6317C69.2929 44.5238 69.4008 44.4155 69.4871 44.3071V40.9509H70.2211L70.2427 45.325ZM73.7603 45.325V42.5096C73.7603 42.1418 73.6956 41.882 73.5661 41.7084C73.4367 41.5353 73.242 41.4701 73.0047 41.4701C72.789 41.4701 72.5948 41.5137 72.4653 41.6437C72.3143 41.7516 72.2064 41.8599 72.1201 41.9683V45.3466H71.3861V40.9509H72.0554V41.4485H72.077C72.0986 41.4054 72.1417 41.3622 72.1849 41.297C72.2496 41.2323 72.3143 41.1671 72.4222 41.1024C72.5301 41.0371 72.6379 40.9724 72.7674 40.9288C72.8968 40.8856 73.0478 40.8641 73.2204 40.8641C73.4151 40.8641 73.5877 40.8856 73.7603 40.9509C73.9113 41.0156 74.0623 41.1024 74.1702 41.2323C74.2781 41.3622 74.3644 41.5353 74.4291 41.73C74.4938 41.9251 74.5154 42.185 74.5154 42.488V45.3682L73.7603 45.325ZM78.7233 41.5137H78.184C78.3134 41.752 78.3997 42.0119 78.3997 42.2934C78.3997 42.5317 78.3566 42.7263 78.2919 42.921C78.2056 43.1161 78.1193 43.2676 77.9682 43.3976C77.8388 43.5275 77.6662 43.6143 77.4936 43.7011C77.2994 43.7658 77.1053 43.809 76.889 43.809H76.6733C76.587 43.831 76.5223 43.8957 76.436 43.961C76.3497 44.0257 76.3281 44.1125 76.3281 44.2208C76.3281 44.3071 76.3713 44.3939 76.436 44.4371C76.5007 44.5023 76.6301 44.5238 76.7812 44.5238H77.3426C77.5583 44.5238 77.7525 44.5454 77.9251 44.5886C78.0977 44.6322 78.2487 44.6969 78.3782 44.7837C78.5076 44.8705 78.6155 45.0004 78.6802 45.1515C78.7449 45.3035 78.7881 45.4765 78.7881 45.6712C78.7881 45.9095 78.7449 46.1262 78.637 46.3214C78.5292 46.516 78.3997 46.6891 78.2056 46.819C78.033 46.949 77.7956 47.0573 77.5368 47.1441C77.2779 47.2309 76.9753 47.252 76.6733 47.252C76.1987 47.252 75.8535 47.1441 75.6162 46.949C75.3788 46.7543 75.2494 46.4513 75.2494 46.0615C75.2494 45.8879 75.271 45.758 75.3357 45.6281C75.4004 45.5202 75.4651 45.4118 75.5514 45.325C75.6377 45.2382 75.7025 45.173 75.7887 45.1083C75.875 45.0652 75.9398 45.022 75.9829 44.9784V44.9568C75.7888 44.8269 75.7025 44.6106 75.7025 44.3508C75.7025 44.2424 75.724 44.134 75.7672 44.0472C75.8103 43.9605 75.875 43.8957 75.9182 43.831C75.9829 43.7874 76.0261 43.7227 76.0908 43.7011C76.1555 43.679 76.1987 43.6359 76.2202 43.6359V43.6143C76.0045 43.5064 75.8103 43.3544 75.6809 43.1161C75.5514 42.8994 75.4651 42.618 75.4651 42.2497C75.4651 42.0119 75.5083 41.7952 75.573 41.6C75.6593 41.4054 75.7672 41.2539 75.8966 41.1455C76.0261 41.0376 76.1987 40.9288 76.3713 40.8641C76.5438 40.7989 76.738 40.7773 76.9538 40.7773C77.17 40.7773 77.3642 40.8209 77.5368 40.8856H78.8744L78.7233 41.5137ZM76.6949 45.1951C76.5654 45.1951 76.4576 45.1951 76.3497 45.1735C76.285 45.1951 76.2418 45.2382 76.1987 45.2814C76.1555 45.325 76.0908 45.3682 76.0692 45.4334C76.0261 45.4981 75.9829 45.5633 75.9613 45.6496C75.9348 45.7413 75.9203 45.8361 75.9182 45.9316C75.9182 46.4077 76.1771 46.6244 76.6949 46.6244C77.1484 46.6244 77.472 46.5376 77.6878 46.3645C77.9035 46.1914 78.0114 45.9968 78.0114 45.758C78.0114 45.5197 77.9467 45.3902 77.8172 45.3035C77.6878 45.2167 77.5152 45.1735 77.2779 45.1735H76.6949V45.1951ZM77.6662 42.2934C77.6662 41.9683 77.6015 41.752 77.4505 41.6216C77.3077 41.4949 77.1231 41.4255 76.9322 41.427C76.7164 41.427 76.5439 41.4922 76.3928 41.6221C76.2418 41.752 76.1555 41.9898 76.1555 42.2934C76.1555 42.5964 76.2418 42.8347 76.3928 42.9646C76.5439 43.0945 76.7164 43.1593 76.9106 43.1593C77.1269 43.1593 77.2994 43.0945 77.4505 42.9646C77.6015 42.8567 77.6662 42.6184 77.6662 42.2934Z" fill="#181716"/>
<path d="M24.2347 51.4756H25.3786V66.8291H22.7029V51.4756H24.2347Z" fill="#F8D200"/>
<path d="M24.2347 36.0576H25.3786V51.4763H22.7029V36.0576H24.2347Z" fill="#E3000B"/>
<path d="M15.732 26.1393C16.5092 27.3735 17.1348 27.3519 18.063 27.3519C17.2858 26.767 16.7896 26.0094 16.5523 25.6196L15.1279 23.3239C14.9951 22.6018 14.6224 21.9456 14.0703 21.4617C14.2649 21.3964 14.416 21.3097 14.5018 21.2449C13.5741 21.2449 12.6464 20.7688 12.1286 20.7688C11.805 20.7688 11.5892 20.9635 11.5892 21.2234C11.6103 21.5048 11.9129 21.8078 12.4522 21.8078C12.5817 21.8078 12.7327 21.7862 12.9053 21.7647C13.2073 22.1765 13.4446 22.5443 13.4446 23.0856C13.4446 24.0819 12.2365 24.8831 11.0273 24.8831H10.8337C10.7258 24.6448 10.359 24.2114 10.359 23.7358C10.359 22.9341 10.8768 22.2844 10.8768 21.4832C10.8768 20.9851 10.6395 20.682 10.5532 20.5516C10.7042 20.4222 10.8552 20.2491 10.8984 20.1187C10.8121 20.1623 10.7042 20.1623 10.5532 20.1623C9.9702 20.1623 9.49556 20.0103 9.04251 20.0103C8.78361 20.0103 8.71889 20.0971 8.71889 20.1623C8.71889 20.1839 8.71889 20.227 8.74047 20.227C8.64289 20.1883 8.54172 20.1594 8.43843 20.1407C8.29603 20.1144 8.15172 20.0998 8.00694 20.0971C7.44552 20.0971 7.25135 20.3354 7.25135 20.5305C7.25135 20.7036 7.3808 21.0066 7.53182 21.2449C7.74756 21.1371 8.00645 21.0503 8.1359 21.0503C8.43843 21.0503 8.69732 21.3317 8.82676 21.6779C8.63259 21.6999 8.58945 21.6999 8.39528 21.6999C7.85592 21.6999 7.48867 21.5048 7.40237 21.5048C7.40237 21.5048 7.3808 21.5048 7.3808 21.5264C7.3808 21.6132 7.53182 21.8078 7.83386 21.9162C8.24377 22.0682 8.82676 22.1329 8.93463 22.1329C8.93463 22.1545 8.82676 22.3491 8.71889 22.3712H8.65417C8.24377 22.2844 8.11481 22.2628 7.59654 22.0461C7.57497 22.0461 7.57497 22.0461 7.57497 22.0677C7.57497 22.2844 8.11432 22.7394 8.61102 22.9125C8.20062 23.4323 7.70441 23.9736 7.44552 24.7748H7.25135C6.0427 24.7748 4.83405 23.9952 4.83405 22.9772C4.83405 22.4359 5.07186 22.0677 5.37341 21.6563C5.5465 21.6779 5.69752 21.6999 5.82696 21.6999C6.36632 21.6999 6.66885 21.3964 6.68993 21.115C6.68993 20.8551 6.47419 20.6605 6.15057 20.6605C5.63279 20.6605 4.72667 21.1366 3.77741 21.1366C3.86321 21.2018 4.01423 21.2886 4.20889 21.3533C3.67154 21.8492 3.30189 22.5 3.15126 23.2155L1.72687 25.5112C1.48956 25.901 0.971774 26.6586 0.216675 27.2436C1.14437 27.2436 1.74845 27.2651 2.54669 26.031L3.28071 24.8616C3.32386 25.0131 3.41015 25.1646 3.47488 25.3161L2.00734 27.6549C1.77002 28.0447 1.27381 28.7812 0.49714 29.3872C1.42483 29.3872 2.02891 29.4088 2.82765 28.1747L4.07896 26.1609C4.16525 26.2688 4.27312 26.3556 4.381 26.4639L2.61142 29.3009C2.3741 29.6908 1.87789 30.4267 1.10122 31.0333C2.02891 31.0333 2.63299 31.0548 3.43173 29.8207L5.15767 27.0484C5.26554 27.1136 5.39548 27.2004 5.50335 27.2651L3.38858 30.6435C3.15126 31.0333 2.65457 31.7697 1.87838 32.3758C2.80608 32.3758 3.41015 32.3973 4.2084 31.1632L6.38789 27.677L6.77672 27.8064L4.31627 31.7477C4.07896 32.1375 3.56117 32.8955 2.80608 33.4805C3.73377 33.4805 4.33785 33.502 5.13658 32.2674L7.74756 28.0663C7.76913 28.0663 7.79071 28.0663 7.83386 28.0879C7.89858 28.3262 7.9633 28.5213 7.9633 28.7376C7.9633 30.0585 7.10033 31.2284 6.06428 32.1159C6.129 32.1375 6.23687 32.1595 6.34474 32.1595C6.56049 32.1595 6.69042 32.1375 6.79829 32.1375C6.56098 32.6788 6.04319 33.3937 5.78381 33.7619C5.40626 33.6947 5.02384 33.6584 4.64038 33.6536C4.31676 33.6536 4.27312 33.8482 4.27312 34.0213C4.27312 34.3248 4.42414 34.5847 4.57565 34.7146C4.64038 34.5626 4.76982 34.3469 5.39548 34.3469H5.4602C5.2876 34.5415 4.7051 35.0176 4.7051 35.3864C4.7051 35.6242 4.96399 36.014 5.33075 36.014C5.30918 35.9272 5.30918 35.862 5.30918 35.7973C5.30918 35.4942 5.56807 35.1476 5.80539 34.8877V35.0397C5.80539 35.7541 5.87011 36.0792 6.32317 36.0792C6.53891 36.0792 6.69042 35.9488 6.75465 35.9272C6.45261 35.6457 6.45261 35.4511 6.45261 35.0397V34.693C6.45261 34.6063 6.45261 34.4763 6.43153 34.39C6.60412 34.368 6.66885 34.368 6.77672 34.368C6.77672 34.368 7.42395 34.3248 7.57497 34.6499C7.74756 34.4979 8.00645 34.2596 8.00645 34.0218C8.00645 33.8482 7.92015 33.6751 7.59654 33.6751C7.46709 33.6751 7.07876 33.7619 6.75514 33.7619C6.84144 33.5668 7.22978 32.9823 7.57497 32.5704C7.61811 32.744 7.70441 32.9171 7.87701 33.047C7.89858 32.7872 8.0496 31.9212 8.48157 31.4231C8.52472 31.7692 8.58945 32.1159 8.58945 32.8303C8.58945 34.6063 8.15796 35.9272 7.25086 36.1655C7.35922 36.3606 7.6186 36.5553 7.87701 36.5553C8.20062 36.5553 8.39479 36.1875 8.56787 35.8188C8.65417 36.0787 8.93463 36.7284 9.19352 36.7284C9.45242 36.7284 9.71131 36.0787 9.81918 35.8188C9.99177 36.1655 10.1859 36.5553 10.51 36.5553C10.7689 36.5553 11.0063 36.3606 11.1357 36.1655C10.2291 35.9272 9.7976 34.6063 9.7976 32.8308C9.7976 32.0943 9.86233 31.7477 9.90548 31.4231C10.337 31.9212 10.4885 32.7656 10.51 33.047C10.6826 32.8955 10.7689 32.7224 10.8121 32.5709C11.1573 32.9823 11.5456 33.5668 11.6319 33.7619C11.3083 33.7619 10.8984 33.6751 10.7905 33.6751C10.4669 33.6751 10.3806 33.8698 10.3806 34.0218C10.3806 34.2601 10.6395 34.4979 10.8121 34.6494C10.9631 34.3248 11.6103 34.368 11.6103 34.368C11.7398 34.368 11.8045 34.368 11.9555 34.3895C11.9339 34.4763 11.9339 34.6063 11.9339 34.693V35.0397C11.9339 35.4511 11.9124 35.6457 11.6319 35.9272C11.6751 35.9708 11.8261 36.0792 12.0634 36.0792C12.5169 36.0792 12.5817 35.7541 12.5817 35.0397V34.8877C12.7974 35.126 13.0779 35.4942 13.0779 35.7973C13.0779 35.8409 13.0779 35.9272 13.0563 36.014C13.4015 36.014 13.682 35.6462 13.682 35.3864C13.682 35.0176 13.121 34.5415 12.9269 34.3469H12.9916C13.6172 34.3469 13.7467 34.5626 13.8114 34.7146C13.984 34.5847 14.1139 34.3248 14.1139 34.0218C14.1139 33.8482 14.0708 33.6536 13.7467 33.6536C13.4231 33.6536 12.9269 33.6967 12.5817 33.7614C12.3228 33.3937 11.8045 32.7009 11.5672 32.1375C11.6535 32.159 11.8045 32.159 12.0207 32.159C12.1286 32.159 12.2365 32.159 12.3012 32.1159C11.2651 31.2284 10.4022 30.0585 10.4022 28.7376C10.4022 28.5213 10.4453 28.3262 10.5316 28.0879C10.5532 28.0879 10.5748 28.0879 10.6179 28.0663L13.2289 32.2674C14.0061 33.502 14.6312 33.4805 15.5594 33.4805C14.8043 32.8955 14.2865 32.1375 14.0492 31.7477L11.524 27.8717L11.9124 27.7417L14.0919 31.2279C14.869 32.4626 15.4947 32.441 16.4229 32.441C15.6457 31.856 15.1495 31.098 14.9122 30.7082L12.7974 27.3298C12.9269 27.2651 13.0347 27.2004 13.1426 27.1136L14.869 29.8854C15.6457 31.1196 16.2714 31.098 17.1995 31.098C16.4229 30.5135 15.9267 29.7555 15.6893 29.3657L13.9193 26.5287C14.0271 26.4424 14.1139 26.334 14.2218 26.2256L15.4731 28.2399C16.2503 29.474 16.8759 29.4525 17.8041 29.4525C17.0269 28.8675 16.5307 28.1095 16.2934 27.7201L14.8259 25.3813C14.9122 25.2293 14.9769 25.0778 15.02 24.9263L15.732 26.1393ZM4.01472 23.4533C4.01472 22.5869 4.64087 21.8941 4.87769 21.6995C4.92133 21.721 4.98557 21.721 5.0292 21.7426C4.79189 22.0456 4.38198 22.5222 4.38198 23.1719C4.38198 24.4497 5.74115 25.5539 7.29499 25.5539C7.27342 25.6618 7.27342 25.7706 7.27342 25.9006C7.27342 26.0952 7.29499 26.2683 7.29499 26.4203C5.56856 26.3982 4.01472 24.9689 4.01472 23.4533ZM6.38838 33.9345L6.3673 33.9561H6.38838C6.88508 33.9561 7.1224 33.9129 7.27342 33.8914C7.35971 33.8914 7.42444 33.8698 7.48916 33.8698C7.6186 33.8698 7.7049 33.8914 7.7049 34.0429C7.7049 34.1507 7.57546 34.3243 7.46758 34.4106C7.29499 34.2375 7.0361 34.216 6.66934 34.216C6.49674 34.216 6.28051 34.2375 6.15107 34.2591H6.10792V34.3243C6.12949 34.4322 6.15107 34.5626 6.15107 34.7362V35.0824C6.15107 35.4937 6.21579 35.732 6.34523 35.9267C6.30208 35.9483 6.23736 35.9483 6.21579 35.9483C5.9569 35.9483 5.8706 35.8404 5.8706 35.0824C5.8706 34.9304 5.8706 34.7793 5.84903 34.6926V34.5626L5.80588 34.5842C5.41754 34.8872 5.0292 35.407 5.00763 35.7968C4.89976 35.7105 4.77031 35.5585 4.77031 35.429C4.77031 35.2123 5.09393 34.8872 5.46069 34.5195L5.67643 34.3027L5.69801 34.2812L5.63328 34.2596C5.54699 34.2375 5.39597 34.1944 5.28809 34.1944C4.87818 34.1944 4.61929 34.2812 4.44621 34.4543C4.38149 34.3675 4.33834 34.1728 4.33834 34.0644C4.33834 33.9992 4.35991 33.9345 4.38149 33.9124C4.42463 33.8693 4.46778 33.8693 4.53251 33.8693H4.55408C5.00763 33.8693 5.56856 33.9561 5.78479 33.9777H5.80588C5.84903 33.9345 6.71249 32.7651 6.9498 32.137C7.00925 32.1048 7.07649 32.0899 7.14397 32.0938C7.31657 32.0938 7.35971 32.2017 7.40286 32.3969C6.86351 33.0686 6.51783 33.5883 6.38838 33.9345ZM11.1146 32.0938C11.2009 32.0938 11.2441 32.1154 11.3088 32.137C11.5461 32.7651 12.4096 33.9345 12.4527 33.9777V33.9992H12.4743C12.69 33.9561 13.2294 33.8698 13.704 33.8698H13.7256C13.7687 33.8698 13.8335 33.8698 13.8766 33.9129C13.8982 33.9345 13.9198 33.9997 13.9198 34.0644C13.9198 34.1723 13.8766 34.3675 13.8119 34.4543C13.6393 34.2812 13.3804 34.1944 12.9705 34.1944C12.841 34.1944 12.69 34.2375 12.6253 34.2596H12.6037L12.5606 34.2812L12.7979 34.5195C13.1647 34.8872 13.4883 35.2123 13.4883 35.4285C13.4883 35.5585 13.3588 35.732 13.251 35.7968C13.2294 35.407 12.841 34.8872 12.4527 34.5842L12.4311 34.5626V34.6926C12.4311 34.7793 12.4096 34.9309 12.4096 35.0824C12.4096 35.8183 12.3233 35.9483 12.0859 35.9483C12.0428 35.9483 11.9781 35.9267 11.956 35.9267C12.107 35.7536 12.1502 35.5153 12.1502 35.0824V34.7357C12.1502 34.5626 12.1722 34.4327 12.1722 34.3243V34.2596H12.1291C11.9576 34.2325 11.7844 34.2179 11.6108 34.216C11.2441 34.216 10.9852 34.2375 10.8126 34.4111C10.6831 34.3243 10.5753 34.1512 10.5753 34.0429C10.5753 33.8909 10.6616 33.8698 10.791 33.8698C10.8557 33.8698 10.9204 33.8698 11.0067 33.8914C11.1578 33.9129 11.3951 33.9561 11.8913 33.9561H11.9129V33.9345C11.7834 33.5879 11.4382 33.0681 10.8989 32.3969C10.8989 32.2238 10.942 32.0938 11.1146 32.0938ZM9.08614 21.8941C9.043 21.6558 8.91355 21.4396 8.76253 21.2665C8.63308 21.1145 8.39577 20.9198 8.09324 20.9198C7.96379 20.9198 7.72648 20.9846 7.57546 21.0498C7.51073 20.9414 7.40286 20.7031 7.40286 20.5948C7.40286 20.4869 7.59703 20.378 7.94222 20.378C8.74096 20.378 9.19402 20.7247 9.19402 21.3312C9.23716 21.5259 9.15087 21.721 9.08614 21.8941ZM9.43133 21.1145C9.41225 20.9473 9.34477 20.7893 9.23716 20.66C9.23716 20.508 9.30189 20.3565 9.56078 20.4864C9.43133 20.6163 9.5392 20.8762 9.5392 20.8762C9.5392 20.8762 9.81967 20.7463 9.75495 20.5732C10.1653 20.6384 9.86282 21.2008 9.43133 21.1145ZM10.9852 26.3982C11.0067 26.2251 11.0067 26.0521 11.0067 25.8785C11.0067 25.7706 11.0067 25.6623 10.9852 25.5323C12.5174 25.5107 13.855 24.406 13.855 23.1503C13.855 22.5006 13.4451 22.0241 13.2078 21.721C13.251 21.6995 13.3157 21.6995 13.3804 21.6774C13.5961 21.8725 14.2434 22.5654 14.2434 23.4318C14.2223 24.9694 12.7116 26.3767 10.9852 26.3982ZM25.3786 20.7688V36.1223H22.7029V20.7688H25.3786ZM31.011 5.45846V1.45251H32.3054C32.8669 1.45251 33.0394 1.64717 33.1905 1.8634C33.3199 2.08013 33.3415 2.31842 33.3415 2.38315C33.3415 2.88132 33.1689 3.20591 32.6511 3.33585V3.35791C33.212 3.42263 33.4709 3.76929 33.4709 4.31061C33.4709 5.32852 32.7374 5.43639 32.2628 5.43639H31.011V5.45846ZM31.5288 3.14119H32.2628C32.6511 3.14119 32.8453 2.88132 32.8453 2.51357C32.8453 2.18849 32.6511 1.90704 32.2412 1.90704H31.5288V3.14119ZM31.5288 5.00344H32.2412C32.7806 5.00344 32.9747 4.61363 32.9747 4.33218C32.9747 3.70457 32.5864 3.59572 32.0681 3.59572H31.5288V5.00344ZM34.3339 5.45846V1.45251H36.3839V1.90704H34.8301V3.18434H36.2766V3.61778H34.8301V5.00344H36.4055V5.45846H34.3339ZM37.9814 1.45251H38.6287L39.9231 5.43639H39.3622L39.0817 4.48369H37.5494L37.2474 5.43639H36.7296L37.9814 1.45251ZM38.2835 1.92813L37.6578 4.05123H38.9307L38.2835 1.92813ZM40.4409 1.45251H40.9592V4.0071C40.9592 4.8735 41.2181 5.1118 41.7143 5.1118C42.2105 5.1118 42.4694 4.89508 42.4694 4.00759V1.45202H42.9876V3.98553C42.9876 5.09023 42.5772 5.52318 41.7358 5.52318C40.8944 5.52318 40.484 5.09023 40.484 3.98553L40.4409 1.45251ZM43.7864 5.45846V1.45251H45.7501V1.90704H44.3037V3.18434H45.6854V3.61778H44.3041V5.45846H43.7864ZM48.5116 1.45251V1.90704H47.4545V5.45846H46.9583V1.90704H45.9007V1.45202H48.5121L48.5116 1.45251ZM49.5261 3.61778V5.45846H49.0083V1.45251H50.3896C51.1015 1.45251 51.3388 1.95019 51.3388 2.44787C51.3388 2.92446 51.0799 3.27112 50.6053 3.35791V3.37948C51.0584 3.44421 51.231 3.61778 51.2525 4.41897C51.2525 4.59206 51.3173 5.22016 51.382 5.45846H50.8426C50.6916 5.17701 50.7347 4.65727 50.6916 4.13753C50.6485 3.66093 50.2601 3.63936 50.0875 3.63936L49.5261 3.61778ZM49.5261 3.16276H50.2817C50.6485 3.16276 50.821 2.85974 50.821 2.49151C50.821 2.21006 50.67 1.88498 50.2817 1.88498H49.5261V3.16276ZM53.0005 1.45251H53.6483L54.9432 5.43639H54.3818L54.1013 4.48369H52.5691L52.267 5.43639H51.7492L53.0005 1.45251ZM53.3031 1.92813L52.6769 4.05074H53.9503L53.3031 1.92813ZM57.3811 2.51308C57.3811 2.03649 57.1869 1.79819 56.6691 1.79819C56.5181 1.79819 55.9351 1.82026 55.9351 2.66459V4.0071C55.9351 4.8735 56.1945 5.1118 56.6691 5.1118C57.0359 5.1118 57.2732 5.00344 57.3811 4.93823V3.74723H56.6476V3.2927H57.8994V5.24174C57.5286 5.44347 57.1128 5.54774 56.6907 5.54476C55.8488 5.54476 55.4389 5.1118 55.4389 4.0071V2.68617C55.4389 1.88498 55.8488 1.38681 56.6907 1.38681C57.5321 1.38681 57.9641 1.69032 57.9209 2.53466H57.3811V2.51308ZM61.0718 1.45251V1.90704H60.0141V5.45846H59.5179V1.90704H58.4603V1.45202L61.0718 1.45251ZM64.2005 5.45846H63.5964L62.4309 1.45251H62.9919L63.8985 4.96029H63.9201L64.8477 1.45202H65.366L64.2005 5.45846ZM65.8622 3.98553V2.66459C65.8622 1.8634 66.2721 1.36523 67.114 1.36523C67.9554 1.36523 68.3653 1.8634 68.3653 2.66459V3.98553C68.3653 5.09023 67.9554 5.52318 67.114 5.52318C66.2721 5.52318 65.8622 5.09023 65.8622 3.98553ZM67.8475 4.0071V2.66459C67.8475 1.82026 67.265 1.79868 67.114 1.79868C66.963 1.79868 66.38 1.82026 66.38 2.66459V4.0071C66.38 4.8735 66.6389 5.1118 67.114 5.1118C67.5887 5.1118 67.8475 4.8735 67.8475 4.0071ZM69.725 5.45846H69.2504V1.45251H70.0707L71.0847 4.80878L72.0991 1.45202H72.9405V5.45797H72.4228V1.90753L71.3004 5.45895H70.8258L69.7466 1.90753H69.725V5.45846Z" fill="#181716"/>
</g>
<defs>
<clipPath id="clip0_845_28926">
<rect width="93.1616" height="66.1937" fill="white" transform="translate(0.199951 0.942383)"/>
</clipPath>
</defs>
</svg>
