<svg width="116" height="27" viewBox="0 0 116 27" fill="none" xmlns="http://www.w3.org/2000/svg">
<g clip-path="url(#clip0_845_28932)">
<rect width="115.226" height="25.4968" transform="translate(0 0.942383)" fill="white"/>
<path d="M38.1335 0.942383H0V26.4392H38.1335V0.942383Z" fill="white"/>
<path d="M37.3838 1.64258H0.724243V25.7136H37.3838V1.64258Z" fill="#034EA2"/>
<path d="M18.2782 6.88682L19.0539 6.32638L19.8296 6.88682L19.532 5.98266L20.3077 5.43546H19.3516L19.0539 4.51855L18.7568 5.43546H17.7869L18.5754 5.98266L18.2782 6.88682ZM14.2708 7.94347L15.0465 7.38352L15.8222 7.94347L15.5251 7.05255L16.3135 6.49211H15.3441L15.0465 5.57569L14.7494 6.4926H13.78L14.5684 7.05255L14.2708 7.94347ZM12.1124 8.46517L11.8148 9.38159H10.8587L11.6339 9.94154L11.3495 10.8329L12.1124 10.2725L12.8881 10.8329L12.5905 9.94154L13.3789 9.38159H12.41L12.1129 8.46468L12.1124 8.46517ZM11.0391 14.2186L11.8148 14.7786L11.5176 13.8749L12.3061 13.315H11.3362L11.0386 12.4113L10.7415 13.315H9.77209L10.5605 13.8749L10.2629 14.7786L11.0391 14.2186ZM12.41 17.2611L12.1124 16.3574L11.8148 17.2611H10.8587L11.6339 17.821L11.3495 18.7247L12.1124 18.1648L12.8881 18.7247L12.5905 17.821L13.3789 17.2611H12.41ZM15.3441 20.1506L15.0465 19.2469L14.7621 20.1506H13.7928L14.5684 20.711L14.2841 21.6147L15.0465 21.0547L15.8222 21.6147L15.5378 20.711L16.3135 20.1506H15.3441ZM19.3511 21.2072L19.0539 20.2903L18.7568 21.2072H17.7869L18.5754 21.7549L18.2782 22.6586L19.0539 22.0981L19.8296 22.6586L19.532 21.7549L20.3209 21.2072H19.3511ZM23.3457 20.1506L23.0486 19.2469L22.751 20.1506H21.7816L22.57 20.711L22.2729 21.6147L23.0486 21.0547L23.8238 21.6147L23.5267 20.711L24.3151 20.1506H23.3457ZM26.2798 17.2611L25.9827 16.3574L25.6856 17.2611H24.7157L25.5041 17.821L25.207 18.7247L25.9827 18.1648L26.7584 18.7247L26.4608 17.821L27.2492 17.2611H26.2798ZM28.3093 13.3027H27.3394L27.0423 12.3986L26.7451 13.3027H25.7753L26.5637 13.8627L26.2793 14.7663L27.0423 14.2064L27.818 14.7663L27.5203 13.8627L28.3093 13.3027ZM25.207 10.8202L25.9827 10.273L26.7584 10.8202L26.4608 9.92928L27.2492 9.36933H26.2798L25.9827 8.45242L25.6856 9.36933H24.7157L25.5041 9.92928L25.207 10.8202ZM23.0613 5.57569L22.7637 6.4926H21.7948L22.5833 7.05255L22.2861 7.94347L23.0618 7.38352L23.8375 7.94347L23.5399 7.05255L24.3283 6.49211H23.359L23.0613 5.57569Z" fill="#FFF200"/>
<path d="M41.9213 7.01408V1.64258H45.6698V2.54575H43.0328V3.81864H45.3079V4.72279H43.0328V7.01408H41.9213ZM46.5749 2.59724V1.64258H47.6223V2.59724H46.5749ZM46.5749 7.01408V3.11943H47.6223V7.01457L46.5749 7.01408ZM52.2887 7.01457H51.2413V5.02875C51.2413 4.60855 51.2154 4.34132 51.1766 4.21384C51.1338 4.09675 51.0574 3.99491 50.957 3.92111C50.8535 3.84462 50.7373 3.81913 50.5951 3.81913C50.4142 3.81913 50.246 3.87012 50.1038 3.95936C49.964 4.04893 49.8591 4.18375 49.8067 4.34132C49.7547 4.49381 49.7292 4.79928 49.7292 5.23224V7.00182H48.6819V3.11943H49.6512V3.69213C50.0003 3.24643 50.4269 3.03019 50.957 3.03019C51.1899 3.03019 51.3963 3.06844 51.5905 3.15768C51.7841 3.23368 51.9263 3.34842 52.0298 3.47541C52.1332 3.60289 52.198 3.74313 52.2367 3.90837C52.2754 4.07409 52.3014 4.30308 52.3014 4.5958L52.2887 7.01457ZM54.124 4.31582L53.1678 4.15009C53.2708 3.76813 53.4522 3.50091 53.7234 3.30968C53.9818 3.13169 54.3696 3.04245 54.8869 3.04245C55.3522 3.04245 55.7013 3.09345 55.9337 3.20818C56.1666 3.32243 56.3216 3.44991 56.4123 3.61515C56.5025 3.78088 56.5545 4.08635 56.5545 4.53206L56.5413 5.72845C56.5413 6.07167 56.5545 6.32664 56.5932 6.49237C56.632 6.65761 56.6834 6.8356 56.7869 7.01408H55.7528C55.7125 6.91431 55.678 6.81232 55.6494 6.70861C55.6423 6.66455 55.6293 6.62166 55.6106 6.58112C55.442 6.73728 55.2501 6.8663 55.0418 6.96357C54.8349 7.05183 54.6153 7.09057 54.3956 7.09057C53.995 7.09057 53.6719 6.98858 53.4262 6.7596C53.1933 6.54288 53.0771 6.2629 53.0771 5.93193C53.0771 5.7157 53.1286 5.51221 53.2321 5.34649C53.3355 5.18125 53.4909 5.04101 53.6846 4.95177C53.8788 4.86303 54.1499 4.77379 54.5118 4.71004C55.0031 4.62081 55.3395 4.53206 55.5331 4.45508V4.37957C55.5331 4.17608 55.4817 4.03634 55.391 3.95936C55.2875 3.87061 55.1066 3.83187 54.8222 3.83187C54.6412 3.83187 54.4863 3.87061 54.3828 3.94661C54.2794 4.0231 54.1887 4.12509 54.124 4.31582ZM55.5331 5.143C55.325 5.2058 55.1135 5.25671 54.8996 5.29549C54.6153 5.35923 54.4216 5.42298 54.3309 5.47397C54.1887 5.57547 54.124 5.6902 54.124 5.83043C54.124 5.97018 54.1759 6.09766 54.2921 6.19965C54.3956 6.30115 54.5378 6.35214 54.706 6.35214C54.8996 6.35214 55.0806 6.2884 55.2488 6.17415C55.3782 6.08491 55.4557 5.97018 55.4944 5.83043C55.5204 5.7412 55.5331 5.57547 55.5331 5.32099V5.143ZM61.1817 7.01457H60.1348V5.02875C60.1348 4.60855 60.1089 4.34132 60.0701 4.21384C60.0273 4.09675 59.9509 3.99491 59.8505 3.92111C59.747 3.84462 59.6308 3.81913 59.4886 3.81913C59.3077 3.81913 59.1395 3.87012 58.9973 3.95936C58.8551 4.0486 58.7516 4.18834 58.6997 4.34132C58.6482 4.49381 58.6222 4.79928 58.6222 5.23224V7.00182H57.5881V3.11943H58.5575V3.69213C58.9066 3.24643 59.3332 3.03019 59.8632 3.03019C60.0961 3.03019 60.303 3.06844 60.4967 3.15768C60.6904 3.23368 60.8326 3.34842 60.936 3.47541C61.0395 3.60289 61.1042 3.74313 61.1429 3.90837C61.1817 4.07409 61.2077 4.30308 61.2077 4.5958L61.1817 7.01457ZM61.8284 7.01408V6.2124L63.3146 4.53206C63.5602 4.26483 63.7412 4.06135 63.8579 3.94661C63.7412 3.95936 63.5735 3.95936 63.3793 3.95936L61.9834 3.97211V3.11894H65.2538V3.84462L63.7412 5.56321L63.2116 6.13591C63.496 6.12316 63.6769 6.11041 63.7544 6.11041H65.37V7.01457L61.8284 7.01408ZM66.0555 2.59724V1.64258H67.1023V2.59724H66.0555ZM66.0555 7.01408V3.11943H67.1023V7.01457L66.0555 7.01408ZM70.4763 5.77944L71.5231 5.94468C71.4105 6.29392 71.1884 6.59758 70.8896 6.81059C70.6052 7.01408 70.2434 7.10332 69.804 7.10332C69.1186 7.10332 68.6017 6.88659 68.2786 6.44138C68.0202 6.08491 67.8908 5.63921 67.8908 5.10476C67.8908 4.45557 68.059 3.95887 68.4076 3.58965C68.7567 3.22093 69.1833 3.04245 69.7006 3.04245C70.2821 3.04245 70.7474 3.23368 71.0965 3.61515C71.4456 3.9976 71.6006 4.58256 71.5878 5.37198H68.9636C68.9764 5.67745 69.0543 5.91918 69.222 6.08491C69.3774 6.25015 69.5844 6.33988 69.8295 6.33988C69.9977 6.33988 70.1271 6.30115 70.2434 6.2124C70.3596 6.12316 70.4115 5.97018 70.4763 5.77944ZM70.5277 4.73554C70.515 4.44282 70.4375 4.21384 70.2953 4.06086C70.1531 3.90837 69.9717 3.83187 69.7521 3.83187C69.5196 3.83187 69.3387 3.90837 69.1833 4.0736C69.0283 4.23933 68.9636 4.45557 68.9636 4.73554H70.5277ZM73.4236 7.01457H72.3763V3.11943H73.3461V3.67938C73.5138 3.42442 73.656 3.24643 73.7982 3.15719C73.9277 3.08119 74.0826 3.0297 74.2508 3.0297C74.4837 3.0297 74.7161 3.09345 74.9358 3.22093L74.6126 4.1246C74.4317 4.01035 74.2768 3.95936 74.1213 3.95936C73.9664 3.95936 73.8502 3.9976 73.7467 4.07409C73.6433 4.15009 73.5658 4.30308 73.5011 4.50656C73.4363 4.71054 73.4104 5.143 73.4104 5.81769L73.4236 7.01457ZM77.1981 3.11943V3.93337H76.4871V5.49898C76.4871 5.81769 76.4871 6.00842 76.5126 6.05942C76.5386 6.10992 76.5519 6.16091 76.6033 6.1869C76.6584 6.21871 76.7207 6.23608 76.7843 6.2374C76.8877 6.2374 77.0172 6.19916 77.2109 6.13542L77.3016 6.93759C77.0559 7.03908 76.7843 7.09008 76.4739 7.09008C76.2802 7.09008 76.112 7.06507 75.9571 7.00133C75.8017 6.93759 75.6987 6.8611 75.6207 6.75911C75.5447 6.63522 75.4962 6.49642 75.4785 6.35214C75.453 6.2374 75.4398 5.99567 75.4398 5.62646V3.94661H74.9617V3.11943H75.4398V2.34276L76.4871 1.74457V3.11943H77.1981ZM81.1408 7.01408L79.5507 3.11894H80.6495L81.3992 5.10476L81.6189 5.76669C81.6708 5.60145 81.7096 5.48721 81.7223 5.43572C81.7611 5.32148 81.7998 5.21949 81.839 5.10476L82.5887 3.11894H83.6616L82.0842 7.01408H81.1408ZM84.0494 5.01601C84.0494 4.67229 84.1401 4.34132 84.3078 4.0231C84.4729 3.71224 84.7244 3.45578 85.032 3.28467C85.3543 3.11388 85.7141 3.02624 86.0789 3.0297C86.6736 3.0297 87.1649 3.22093 87.5528 3.60338C87.9401 3.98486 88.1215 4.46831 88.1215 5.05425C88.1215 5.6397 87.9274 6.13591 87.5395 6.51787C87.1517 6.89983 86.6604 7.10332 86.0789 7.10332C85.717 7.10332 85.3679 7.02732 85.0448 6.86159C84.7216 6.69635 84.4632 6.46688 84.2951 6.14866C84.1401 5.84318 84.0494 5.46122 84.0494 5.01601ZM85.1222 5.067C85.1222 5.44847 85.2129 5.75394 85.4066 5.95792C85.6008 6.1614 85.8205 6.26339 86.0916 6.26339C86.3632 6.26339 86.5961 6.1614 86.7771 5.95792C86.958 5.75394 87.0615 5.44847 87.0615 5.067C87.0615 4.68455 86.9708 4.39231 86.7771 4.18834C86.6922 4.09026 86.5868 4.01205 86.4684 3.95926C86.3499 3.90647 86.2213 3.88039 86.0916 3.88287C85.8205 3.88287 85.5876 3.98486 85.4066 4.18834C85.2257 4.39231 85.1222 4.68504 85.1222 5.067ZM92.5418 7.01457H91.495V5.02875C91.495 4.60855 91.469 4.34132 91.4302 4.21384C91.3915 4.08635 91.314 3.9976 91.2106 3.92111C91.1071 3.84462 90.9909 3.81913 90.8487 3.81913C90.6678 3.81913 90.4996 3.87012 90.3574 3.95936C90.2152 4.06135 90.1118 4.18834 90.0598 4.34132C90.0083 4.49381 89.9823 4.79928 89.9823 5.23224V7.00182H88.9355V3.11943H89.9049V3.69213C90.254 3.24643 90.6805 3.03019 91.2106 3.03019C91.443 3.03019 91.6499 3.06844 91.8441 3.15768C92.0378 3.23368 92.18 3.34842 92.2834 3.47541C92.3869 3.60289 92.4516 3.74313 92.4903 3.90837C92.5291 4.07409 92.5551 4.30308 92.5551 4.5958L92.5418 7.01457ZM99.3544 7.01408H98.3845V6.44138C98.2406 6.65263 98.045 6.82347 97.8162 6.93759C97.5961 7.03957 97.3764 7.10332 97.1567 7.10332C96.7042 7.10332 96.3163 6.92533 95.9932 6.56886C95.6701 6.2124 95.5019 5.70295 95.5019 5.06651C95.5019 4.43007 95.6573 3.90837 95.9805 3.56465C96.3036 3.22093 96.6914 3.04245 97.1695 3.04245C97.6093 3.04245 97.9972 3.22093 98.3203 3.59014V1.64258H99.3671L99.3544 7.01408ZM96.562 4.99002C96.562 5.41023 96.6267 5.70295 96.7302 5.89418C96.8983 6.1614 97.1308 6.30115 97.4411 6.30115C97.6868 6.30115 97.8937 6.19965 98.0614 5.99567C98.2296 5.79219 98.3203 5.48672 98.3203 5.09201C98.3203 4.64679 98.2423 4.32857 98.0746 4.1246C97.9065 3.92111 97.6995 3.83187 97.4411 3.83187C97.1827 3.83187 96.9886 3.93386 96.8209 4.1246C96.6527 4.31582 96.562 4.59531 96.562 4.99002ZM102.677 5.77944L103.724 5.94468C103.611 6.29392 103.389 6.59758 103.09 6.81059C102.806 7.01408 102.444 7.10332 102.005 7.10332C101.319 7.10332 100.802 6.88659 100.479 6.44138C100.22 6.08491 100.091 5.63921 100.091 5.10476C100.091 4.45557 100.26 3.95887 100.608 3.58965C100.957 3.22093 101.384 3.04245 101.901 3.04245C102.483 3.04245 102.948 3.23368 103.297 3.61515C103.646 3.9976 103.801 4.58256 103.788 5.37198H101.151C101.164 5.67745 101.242 5.91918 101.41 6.08491C101.565 6.25015 101.772 6.33988 102.017 6.33988C102.186 6.33988 102.314 6.30115 102.431 6.2124C102.547 6.12316 102.612 5.97018 102.677 5.77944ZM102.728 4.73554C102.716 4.44282 102.638 4.21384 102.495 4.06086C102.353 3.90837 102.172 3.83187 101.953 3.83187C101.72 3.83187 101.539 3.90837 101.384 4.0736C101.229 4.23933 101.164 4.45557 101.164 4.73554H102.728ZM105.624 7.01457H104.576V3.11943H105.546V3.67938C105.714 3.42442 105.856 3.24643 105.998 3.15719C106.128 3.08119 106.283 3.0297 106.451 3.0297C106.684 3.0297 106.916 3.09345 107.136 3.22093L106.813 4.1246C106.632 4.01035 106.477 3.95936 106.321 3.95936C106.166 3.95936 106.05 3.9976 105.947 4.07409C105.843 4.15009 105.766 4.30308 105.701 4.50656C105.636 4.71054 105.61 5.143 105.61 5.81769L105.624 7.01457ZM41.9213 16.0267V10.6557H45.9674V11.5594H43.0201V12.7558H45.7605V13.6594H43.0201V15.1235H46.0709V16.0272L41.9213 16.0267ZM49.5997 16.0262V15.4413C49.4575 15.6452 49.2639 15.8105 49.031 15.938C48.7984 16.055 48.5416 16.116 48.2813 16.116C48.0101 16.116 47.7772 16.065 47.5703 15.9507C47.3704 15.8436 47.2115 15.6735 47.1182 15.4668C47.0275 15.2633 46.976 14.9706 46.976 14.6013V12.1316H48.0229V13.9262C48.0229 14.4739 48.0356 14.8048 48.0876 14.9323C48.1391 15.0598 48.1905 15.1486 48.2945 15.225C48.3975 15.3015 48.5269 15.327 48.6819 15.327C48.8633 15.327 49.0182 15.276 49.1604 15.1868C49.3026 15.0976 49.3933 14.9706 49.4448 14.8303C49.4968 14.6906 49.5223 14.3341 49.5223 13.7864V12.1316H50.5696V16.0267L49.5997 16.0262ZM52.6633 16.0267H51.6164V12.1316H52.5858V12.6788C52.754 12.4116 52.8962 12.2463 53.0384 12.1571C53.1673 12.0678 53.3228 12.0296 53.4905 12.0296C53.7234 12.0296 53.9558 12.0933 54.1759 12.2208L53.8523 13.1245C53.6714 13.0098 53.5164 12.9593 53.3615 12.9593C53.2061 12.9593 53.0899 12.997 52.9864 13.0735C52.8829 13.15 52.8055 13.3025 52.7408 13.5065C52.676 13.7099 52.6505 14.1556 52.6505 14.8176L52.6633 16.0267ZM54.3824 14.0282C54.3824 13.6844 54.4731 13.3535 54.6408 13.0353C54.8059 12.7244 55.0574 12.4679 55.365 12.2968C55.6873 12.126 56.0471 12.0384 56.4118 12.0419C57.0066 12.0419 57.4979 12.2331 57.8857 12.615C58.2736 12.997 58.4545 13.4805 58.4545 14.0664C58.4545 14.6519 58.2603 15.1481 57.8725 15.53C57.4846 15.912 56.9938 16.1155 56.4118 16.1155C56.0499 16.1155 55.7008 16.0395 55.3777 15.8737C55.0546 15.708 54.7962 15.479 54.628 15.1608C54.4731 14.8553 54.3824 14.4734 54.3824 14.0282ZM55.4552 14.0792C55.4552 14.4606 55.5459 14.7661 55.7396 14.9701C55.9337 15.1736 56.1534 15.2755 56.425 15.2755C56.6962 15.2755 56.9291 15.1736 57.11 14.9701C57.291 14.7661 57.3812 14.4606 57.3812 14.0787C57.3812 13.6972 57.291 13.4045 57.11 13.201C57.0253 13.1029 56.92 13.0246 56.8016 12.9717C56.6832 12.9188 56.5547 12.8926 56.425 12.895C56.1534 12.895 55.9205 12.997 55.7396 13.2005C55.5459 13.4045 55.4552 13.6977 55.4552 14.0792ZM59.2562 12.1316H60.2255V12.7043C60.3584 12.5055 60.5353 12.3399 60.7423 12.2203C60.9625 12.0929 61.1949 12.0423 61.4666 12.0423C61.9186 12.0423 62.3197 12.2203 62.6296 12.5768C62.9532 12.9333 63.1082 13.43 63.1082 14.0532C63.1082 14.6774 62.9532 15.2118 62.6296 15.5683C62.3065 15.9247 61.9186 16.1027 61.4533 16.1027C61.2337 16.1027 61.04 16.0645 60.859 15.9752C60.6781 15.8865 60.4967 15.7463 60.303 15.53V17.4903H59.2562V12.1316ZM60.2903 14.0154C60.2903 14.4479 60.3805 14.7788 60.5487 14.9828C60.7296 15.1863 60.9365 15.301 61.1949 15.301C61.4533 15.301 61.6475 15.1991 61.8024 15.0083C61.9579 14.8171 62.0481 14.4989 62.0481 14.0659C62.0481 13.6589 61.9706 13.3535 61.8024 13.1622C61.7291 13.0684 61.6348 12.993 61.5271 12.9422C61.4194 12.8914 61.3012 12.8665 61.1822 12.8695C60.9365 12.8695 60.7169 12.9715 60.5487 13.1622C60.3805 13.3535 60.2903 13.633 60.2903 14.0154ZM64.7243 13.328L63.7676 13.1622C63.8711 12.7803 64.052 12.5003 64.3232 12.3223C64.5821 12.1438 64.9699 12.0546 65.4867 12.0546C65.952 12.0546 66.3012 12.1056 66.5341 12.2203C66.7665 12.3223 66.9214 12.4621 67.0121 12.6273C67.1028 12.793 67.1543 13.0985 67.1543 13.5442L67.1416 14.7406C67.1416 15.0843 67.1543 15.3388 67.193 15.4918C67.2318 15.6443 67.2838 15.835 67.3867 16.0135H66.3526C66.3125 15.9137 66.2782 15.8117 66.2497 15.708C66.2364 15.6443 66.2237 15.6065 66.2104 15.5938C66.0417 15.7496 65.8498 15.8783 65.6417 15.9752C65.4372 16.0615 65.2173 16.1048 64.9954 16.1027C64.5948 16.1027 64.2717 16.0007 64.026 15.7718C63.7931 15.5555 63.6769 15.2755 63.6769 14.9446C63.6769 14.7279 63.7289 14.5244 63.8324 14.3586C63.9353 14.1934 64.0908 14.0532 64.2844 13.9644C64.4786 13.8752 64.7498 13.7987 65.1121 13.7222C65.6029 13.6334 65.9393 13.5442 66.133 13.4677V13.3657C66.133 13.1622 66.0815 13.0225 65.978 12.946C65.8746 12.8568 65.6936 12.8185 65.4092 12.8185C65.2283 12.8185 65.0729 12.8568 64.9699 12.9205C64.8665 12.9843 64.7885 13.1372 64.7243 13.328ZM64.2717 11.4437V10.5655H65.1636V11.4437H64.2717ZM66.1202 14.1552C65.9908 14.1934 65.7711 14.2571 65.4867 14.3081C65.2023 14.3719 65.0087 14.4224 64.9179 14.4861C64.7757 14.5881 64.711 14.7024 64.711 14.8426C64.711 14.9823 64.763 15.1098 64.8792 15.2118C64.9827 15.3133 65.1249 15.3643 65.293 15.3643C65.4867 15.3643 65.6677 15.3006 65.8358 15.1863C65.9653 15.0971 66.0427 14.9823 66.0815 14.8426C66.1075 14.7534 66.1202 14.5876 66.1202 14.3459V14.1552ZM65.8746 11.4437V10.5655H66.7792V11.4437H65.8746ZM68.1879 11.6099V10.6552H69.2353V11.6099H68.1879ZM68.1879 16.0267V12.1316H69.2353V16.0267H68.1879ZM69.9335 14.9191L70.9803 14.7661C71.019 14.9701 71.1098 15.1226 71.2519 15.2246C71.3941 15.3265 71.5751 15.377 71.8207 15.377C72.0924 15.377 72.2988 15.3265 72.4282 15.2246C72.473 15.193 72.5093 15.151 72.5341 15.1022C72.5588 15.0534 72.5713 14.9993 72.5704 14.9446C72.5714 14.9091 72.565 14.8738 72.5517 14.8409C72.5383 14.808 72.5183 14.7782 72.493 14.7534C72.441 14.7028 72.3248 14.6646 72.1438 14.6136C71.3034 14.4351 70.7606 14.2571 70.541 14.1169C70.2306 13.9007 70.0757 13.6207 70.0757 13.2387C70.0757 12.8955 70.2051 12.615 70.4763 12.3856C70.7479 12.1566 71.1612 12.0423 71.73 12.0423C72.2988 12.0423 72.6739 12.1311 72.9323 12.3096C73.1912 12.4876 73.3721 12.7425 73.4756 13.0862L72.493 13.2642C72.4578 13.1226 72.3699 12.9997 72.2473 12.9205C72.1311 12.844 71.9629 12.8058 71.7433 12.8058C71.4716 12.8058 71.2647 12.844 71.1485 12.9205C71.1136 12.9419 71.0846 12.9718 71.0643 13.0074C71.044 13.0429 71.033 13.0831 71.0323 13.124C71.0323 13.2005 71.071 13.2642 71.1357 13.3152C71.226 13.379 71.5491 13.4805 72.1179 13.608C72.6739 13.7354 73.0617 13.8879 73.2814 14.0659C73.5011 14.2444 73.6045 14.4989 73.6045 14.8298C73.6045 15.1863 73.4496 15.4918 73.152 15.7467C72.8548 16.0012 72.4023 16.1282 71.808 16.1282C71.2647 16.1282 70.8381 16.0267 70.5282 15.81C70.2179 15.5938 70.0369 15.2883 69.9335 14.9191ZM77.9865 13.2897L76.9525 13.4682C76.9137 13.2642 76.8358 13.1117 76.7196 13.0098C76.6033 12.9083 76.4352 12.8573 76.2415 12.8573C75.9826 12.8573 75.7762 12.946 75.6207 13.1245C75.4658 13.3025 75.3883 13.5952 75.3883 14.0154C75.3883 14.4739 75.4658 14.8048 75.6207 14.9961C75.7762 15.1868 75.9958 15.2755 76.2542 15.2755C76.4479 15.2755 76.6161 15.2246 76.7455 15.1103C76.8745 14.9956 76.9652 14.8048 77.0167 14.5376L78.0513 14.7028C77.9478 15.1736 77.7409 15.5178 77.4305 15.7595C77.1202 16.0012 76.7196 16.116 76.2155 16.116C75.634 16.116 75.1814 15.9375 74.8323 15.5815C74.4832 15.2246 74.315 14.7283 74.315 14.0919C74.315 13.4555 74.4832 12.946 74.8323 12.5896C75.1814 12.2331 75.6467 12.0551 76.2282 12.0551C76.7068 12.0551 77.0947 12.1571 77.379 12.3606C77.6634 12.5518 77.8699 12.87 77.9865 13.2897ZM79.8223 10.6552V12.6283C80.1582 12.2336 80.5588 12.0423 81.0373 12.0423C81.283 12.0423 81.4899 12.0806 81.6836 12.1698C81.8773 12.2591 82.0195 12.3733 82.1229 12.5131C82.2229 12.6501 82.2934 12.8064 82.3298 12.972C82.3686 13.1372 82.3818 13.3917 82.3818 13.7482V16.0395H81.3345V13.9772C81.3345 13.5702 81.3085 13.3152 81.2698 13.201C81.2356 13.0898 81.1623 12.9949 81.0633 12.9338C80.9501 12.8658 80.8203 12.8305 80.6882 12.8318C80.5241 12.8286 80.3625 12.8729 80.2229 12.9593C80.0807 13.048 79.99 13.1627 79.9258 13.328C79.8611 13.4937 79.8351 13.7482 79.8351 14.0664V16.014H78.7882V10.6547L79.8223 10.6552ZM85.7297 14.7921L86.7766 14.9573C86.6644 15.3066 86.4423 15.6103 86.1436 15.8232C85.8592 16.0267 85.4968 16.116 85.0575 16.116C84.3725 16.116 83.8552 15.8992 83.5321 15.454C83.2737 15.0976 83.1443 14.6519 83.1443 14.1174C83.1443 13.4682 83.3125 12.9715 83.6616 12.6023C84.0107 12.2331 84.4373 12.0551 84.9541 12.0551C85.5361 12.0551 86.0014 12.2463 86.35 12.6278C86.6991 13.0102 86.8545 13.5952 86.8413 14.3846H84.2171C84.2303 14.6901 84.3078 14.9318 84.476 15.0976C84.6437 15.2628 84.8378 15.352 85.0835 15.352C85.2517 15.352 85.3806 15.3138 85.4968 15.2246C85.6135 15.1358 85.6783 14.9828 85.7297 14.7921ZM85.7945 13.7477C85.7812 13.4555 85.7038 13.226 85.5616 13.0735C85.4194 12.9205 85.2384 12.8445 85.0188 12.8445C84.7859 12.8445 84.6049 12.9205 84.45 13.0862C84.2951 13.2515 84.2303 13.4682 84.2303 13.7482H85.7945V13.7477ZM91.2881 16.0267H90.2407V14.0409C90.2407 13.6207 90.2147 13.3535 90.176 13.226C90.1373 13.0985 90.0598 13.0098 89.9563 12.9333C89.8529 12.8568 89.7367 12.8313 89.5945 12.8313C89.4136 12.8313 89.2454 12.8823 89.1032 12.9843C88.961 13.0858 88.8575 13.2132 88.806 13.379C88.7541 13.5442 88.7286 13.8369 88.7286 14.2699V16.039H87.6812V12.1311H88.6511V12.7043C88.9997 12.2586 89.4263 12.0423 89.9563 12.0423C90.1892 12.0423 90.3962 12.0806 90.5898 12.1698C90.7835 12.2458 90.9257 12.3606 91.0292 12.4876C91.1326 12.615 91.1973 12.7553 91.2361 12.9205C91.2748 13.0862 91.3008 13.3152 91.3008 13.608L91.2881 16.0267ZM94.4678 10.6552H95.5666V13.5702C95.5666 14.0282 95.5794 14.3336 95.6054 14.4739C95.6568 14.6901 95.7603 14.8686 95.9417 15.0083C96.1227 15.1486 96.3551 15.2123 96.6654 15.2123C96.9758 15.2123 97.2082 15.1486 97.3764 15.0211C97.5313 14.8936 97.6348 14.7416 97.6608 14.5631C97.6868 14.3846 97.7123 14.0792 97.7123 13.6462V10.6552H98.8111V13.481C98.8111 14.1301 98.7851 14.5886 98.7209 14.8558C98.6562 15.1231 98.5527 15.352 98.3978 15.5305C98.2211 15.7258 97.999 15.8744 97.751 15.963C97.4799 16.065 97.1308 16.1287 96.7042 16.1287C96.1869 16.1287 95.7863 16.065 95.5151 15.9502C95.2435 15.836 95.0366 15.683 94.8816 15.4923C94.7358 15.3179 94.6299 15.1137 94.5713 14.8941C94.4938 14.5886 94.4678 14.1301 94.4678 13.532V10.6552ZM103.569 16.0267H102.521V14.0409C102.521 13.6207 102.495 13.3535 102.457 13.226C102.418 13.0985 102.34 13.0098 102.237 12.9333C102.134 12.8568 102.017 12.8313 101.875 12.8313C101.694 12.8313 101.526 12.8823 101.384 12.9843C101.242 13.0858 101.138 13.2132 101.087 13.379C101.035 13.5442 101.009 13.8369 101.009 14.2699V16.039H99.9619V12.1311H100.931V12.7043C101.28 12.2586 101.707 12.0423 102.237 12.0423C102.47 12.0423 102.676 12.0806 102.87 12.1698C103.064 12.2458 103.206 12.3606 103.31 12.4876C103.413 12.615 103.478 12.7553 103.517 12.9205C103.555 13.0862 103.581 13.3152 103.581 13.608L103.569 16.0267ZM104.628 11.6099V10.6552H105.675V11.6099H104.628ZM104.628 16.0267V12.1316H105.675V16.0267H104.628ZM106.503 14.0282C106.503 13.6844 106.594 13.3535 106.761 13.0353C106.926 12.7244 107.178 12.4679 107.485 12.2968C107.808 12.126 108.168 12.0384 108.532 12.0419C109.127 12.0419 109.618 12.2331 110.006 12.615C110.394 12.997 110.574 13.4805 110.574 14.0664C110.574 14.6519 110.381 15.1481 109.993 15.53C109.605 15.912 109.114 16.1155 108.532 16.1155C108.17 16.1155 107.821 16.0395 107.498 15.8737C107.175 15.708 106.917 15.479 106.748 15.1608C106.594 14.8553 106.503 14.4734 106.503 14.0282ZM107.576 14.0792C107.576 14.4606 107.666 14.7661 107.86 14.9701C108.054 15.1736 108.274 15.2755 108.545 15.2755C108.817 15.2755 109.05 15.1736 109.23 14.9701C109.411 14.7661 109.515 14.4606 109.515 14.0787C109.515 13.6972 109.424 13.4045 109.23 13.201C109.146 13.1028 109.04 13.0245 108.922 12.9716C108.803 12.9188 108.675 12.8926 108.545 12.895C108.274 12.895 108.041 12.997 107.86 13.2005C107.679 13.4045 107.576 13.6977 107.576 14.0792ZM115.008 16.0267H113.961V14.0409C113.961 13.6207 113.935 13.3535 113.896 13.226C113.858 13.0985 113.78 13.0098 113.677 12.9333C113.573 12.8568 113.457 12.8313 113.315 12.8313C113.134 12.8313 112.966 12.8823 112.824 12.9843C112.681 13.0858 112.578 13.2132 112.526 13.379C112.474 13.5442 112.449 13.8369 112.449 14.2699V16.039H111.402V12.1311H112.371V12.7043C112.72 12.2586 113.147 12.0423 113.677 12.0423C113.91 12.0423 114.117 12.0806 114.31 12.1698C114.504 12.2458 114.646 12.3606 114.75 12.4876C114.853 12.615 114.918 12.7553 114.956 12.9205C114.995 13.0862 115.021 13.3152 115.021 13.608L115.008 16.0267Z" fill="#034EA2"/>
<path d="M41.9213 25.7013V21.056H42.5675L45.0495 24.7089V21.056H45.6443V25.7018H44.998L42.516 22.0489V25.7018L41.9213 25.7013ZM48.954 24.6192L49.5483 24.6957C49.4575 25.0389 49.2766 25.3066 49.0182 25.4973C48.7598 25.6886 48.4367 25.7773 48.0356 25.7773C47.5316 25.7773 47.1437 25.6248 46.8466 25.3194C46.5494 25.0139 46.4067 24.5937 46.4067 24.046C46.4067 23.486 46.5489 23.0408 46.8466 22.7221C47.1437 22.4044 47.5316 22.2514 47.9969 22.2514C48.4494 22.2514 48.8245 22.4044 49.1217 22.7099C49.4061 23.0153 49.561 23.4478 49.561 24.0082V24.1607H47.0148C47.0402 24.5299 47.1437 24.8099 47.3379 25.0139C47.5315 25.2046 47.7645 25.3066 48.0488 25.3066C48.2553 25.3066 48.4362 25.2556 48.5916 25.1409C48.7466 25.0394 48.8638 24.8609 48.954 24.6192ZM47.0535 23.69H48.9662C48.9407 23.4095 48.8633 23.1933 48.7466 23.0536C48.5656 22.8368 48.32 22.7226 48.0229 22.7226C47.7512 22.7226 47.5316 22.8113 47.3506 22.9898C47.1692 23.1678 47.0662 23.3968 47.0535 23.69ZM49.8974 25.7013L51.1511 23.9577L50.0008 22.3411H50.7245L51.2546 23.1305C51.358 23.2825 51.4355 23.41 51.487 23.512C51.5777 23.3718 51.6679 23.2448 51.7459 23.1428L52.3274 22.3411H53.0256L51.8493 23.9322L53.1159 25.7141H52.4049L51.7072 24.6702L51.5257 24.3907L50.6338 25.7146H49.8974V25.7013ZM54.8482 25.1924L54.9256 25.7013C54.7816 25.7349 54.6342 25.7521 54.4863 25.7523C54.2794 25.7523 54.1112 25.7141 53.995 25.6503C53.8888 25.593 53.8029 25.504 53.7494 25.3958C53.6979 25.2939 53.6846 25.0649 53.6846 24.7212V22.7868H53.258V22.3411H53.6846V21.5139L54.2666 21.1702V22.3411H54.8482V22.7868H54.2666V24.7471C54.2666 24.9129 54.2794 25.0144 54.2921 25.0654C54.3181 25.1164 54.3441 25.1546 54.3956 25.1801C54.4566 25.2075 54.523 25.2206 54.5898 25.2183C54.654 25.2183 54.732 25.2051 54.8482 25.1924ZM57.6916 23.8807V23.3335H59.6955V25.0521C59.409 25.2792 59.0911 25.4636 58.7516 25.5993C58.4285 25.7268 58.0926 25.7778 57.7435 25.7778C57.3041 25.7807 56.8701 25.6805 56.4765 25.4851C56.0887 25.2939 55.8175 25.0011 55.6234 24.6319C55.4297 24.2627 55.339 23.8425 55.339 23.3973C55.339 22.9388 55.4297 22.5191 55.6234 22.1372C55.8175 21.7424 56.0887 21.4497 56.451 21.259C56.8129 21.0678 57.2262 20.9785 57.6916 20.9785C58.0279 20.9785 58.3383 21.0295 58.6227 21.1442C58.8938 21.2585 59.1135 21.3987 59.2689 21.6022C59.4239 21.7934 59.5401 22.0479 59.6308 22.3661L59.062 22.5191C59.0123 22.3176 58.9246 22.1273 58.8036 21.9587C58.7001 21.8189 58.5447 21.7169 58.351 21.6277C58.1455 21.5451 57.9263 21.5019 57.7048 21.5002C57.4204 21.5002 57.1748 21.539 56.9678 21.6277C56.7876 21.7013 56.6239 21.8102 56.4863 21.948C56.3487 22.0857 56.2401 22.2496 56.1666 22.4299C56.0469 22.725 55.9853 23.0405 55.9852 23.359C55.9852 23.7792 56.0632 24.123 56.2054 24.4029C56.3476 24.6829 56.5672 24.8864 56.8384 25.0266C57.1108 25.1642 57.4124 25.234 57.7175 25.2301C57.9892 25.2301 58.2476 25.1791 58.506 25.0776C58.7649 24.9756 58.9586 24.8609 59.088 24.7467V23.8803L57.6916 23.8807ZM62.8757 24.6192L63.47 24.6957C63.3798 25.0389 63.1989 25.3066 62.94 25.4973C62.6816 25.6886 62.3585 25.7773 61.9579 25.7773C61.4538 25.7773 61.066 25.6248 60.7683 25.3194C60.4712 25.0139 60.329 24.5937 60.329 24.046C60.329 23.486 60.4712 23.0408 60.7683 22.7221C61.066 22.4044 61.4538 22.2514 61.9191 22.2514C62.3712 22.2514 62.7463 22.4044 63.0434 22.7099C63.3278 23.0153 63.4833 23.4478 63.4833 24.0082V24.1607H60.9365C60.9625 24.5299 61.066 24.8099 61.2596 25.0139C61.4538 25.2046 61.6862 25.3066 61.9706 25.3066C62.1775 25.3066 62.3585 25.2556 62.5134 25.1409C62.6688 25.0394 62.785 24.8609 62.8757 24.6192ZM60.9753 23.69H62.8885C62.8625 23.4095 62.785 23.1933 62.6688 23.0536C62.4879 22.8368 62.2423 22.7226 61.9446 22.7226C61.6735 22.7226 61.4538 22.8113 61.2729 22.9898C61.0919 23.1678 60.9885 23.3968 60.9753 23.69ZM64.2065 25.7013V22.3406H64.7238V22.8246C64.9694 22.4554 65.3313 22.2641 65.8094 22.2641C66.005 22.2614 66.1989 22.3006 66.3781 22.3789C66.5463 22.4554 66.6758 22.5441 66.766 22.6716C66.8567 22.7863 66.9082 22.9266 66.9469 23.0918C66.9729 23.1938 66.9729 23.3845 66.9729 23.6518V25.7268H66.3914V23.6773C66.3914 23.4483 66.3654 23.2703 66.3266 23.1556C66.2879 23.0408 66.1972 22.9516 66.081 22.8751C65.9585 22.8073 65.8205 22.7723 65.6804 22.7736C65.4348 22.7736 65.2151 22.8501 65.0469 23.0026C64.866 23.1556 64.7753 23.4483 64.7753 23.8807V25.7141H64.2065V25.7013ZM70.2046 24.6192L70.7994 24.6957C70.7087 25.0389 70.5277 25.3066 70.2693 25.4973C70.0105 25.6886 69.6873 25.7773 69.2867 25.7773C68.7827 25.7773 68.3948 25.6248 68.0977 25.3194C67.8001 25.0139 67.6579 24.5937 67.6579 24.046C67.6579 23.486 67.8001 23.0408 68.0977 22.7221C68.3948 22.4044 68.7827 22.2514 69.248 22.2514C69.7006 22.2514 70.0752 22.4044 70.3728 22.7099C70.6572 23.0153 70.8121 23.4478 70.8121 24.0082V24.1607H68.2654C68.2914 24.5299 68.3948 24.8099 68.5885 25.0139C68.7827 25.2046 69.0151 25.3066 69.2995 25.3066C69.5064 25.3066 69.6873 25.2556 69.8428 25.1409C69.9977 25.0266 70.1271 24.8609 70.2046 24.6192ZM68.3046 23.69H70.2174C70.1919 23.4095 70.1139 23.1933 69.9977 23.0536C69.8168 22.8368 69.5711 22.7226 69.274 22.7226C69.0023 22.7226 68.7827 22.8113 68.6017 22.9898C68.4208 23.1678 68.3301 23.3968 68.3046 23.69ZM71.5231 25.7013V22.3406H72.0404V22.8501C72.1693 22.6079 72.2988 22.4554 72.415 22.3789C72.5312 22.3024 72.6479 22.2641 72.7901 22.2641C72.9838 22.2641 73.1779 22.3279 73.3844 22.4426L73.1907 22.9771C73.0485 22.9006 72.9063 22.8496 72.7641 22.8496C72.642 22.8464 72.5228 22.8871 72.4282 22.9643C72.3248 23.0408 72.2601 23.1428 72.2081 23.283C72.1441 23.4977 72.1136 23.721 72.1179 23.945V25.7013H71.5231ZM75.9571 25.2811C75.7374 25.4596 75.5305 25.5866 75.3368 25.6631C75.1346 25.7402 74.9198 25.7791 74.7033 25.7778C74.3287 25.7778 74.0443 25.6886 73.8374 25.5101C73.6305 25.3321 73.5398 25.1031 73.5398 24.8231C73.5398 24.6574 73.579 24.5044 73.6565 24.377C73.734 24.2372 73.8374 24.1357 73.9536 24.0465C74.084 23.9675 74.2228 23.9034 74.3675 23.8552C74.4837 23.8302 74.6519 23.7915 74.8843 23.7665C75.3496 23.7155 75.6987 23.6518 75.9184 23.5753V23.4228C75.9184 23.1933 75.8669 23.0281 75.7507 22.9261C75.6085 22.7986 75.3883 22.7349 75.0912 22.7349C74.8195 22.7349 74.6131 22.7863 74.4837 22.8751C74.3542 22.9643 74.264 23.1301 74.1993 23.3718L73.6305 23.2953C73.682 23.0536 73.7727 22.8623 73.8889 22.7226C74.0051 22.5824 74.1733 22.4676 74.4062 22.3789C74.6259 22.3024 74.8843 22.2641 75.1819 22.2641C75.479 22.2641 75.7115 22.3024 75.8929 22.3661C76.0738 22.4299 76.2028 22.5191 76.2935 22.6211C76.3837 22.7226 76.4357 22.8501 76.4744 23.0153C76.4871 23.1173 76.5004 23.2825 76.5004 23.5375V24.301C76.5004 24.8354 76.5131 25.1669 76.5391 25.3066C76.5646 25.4468 76.6166 25.5866 76.6813 25.7136H76.0738C76.0181 25.5745 75.9789 25.4293 75.9571 25.2811ZM75.9184 24.0082C75.7114 24.0975 75.3883 24.1612 74.975 24.2245C74.7421 24.2627 74.5739 24.301 74.4709 24.3392C74.3728 24.3729 74.2902 24.4408 74.238 24.5304C74.1856 24.6096 74.1586 24.7028 74.1606 24.7976C74.1606 24.9501 74.2253 25.0771 74.3415 25.1791C74.4577 25.2811 74.6259 25.3321 74.8583 25.3321C75.0784 25.3321 75.2849 25.2811 75.453 25.1919C75.6212 25.0904 75.7507 24.9629 75.8409 24.7976C75.9056 24.6702 75.9316 24.4789 75.9316 24.2245V24.0082H75.9184ZM78.6588 25.1924L78.7367 25.7013C78.5926 25.735 78.445 25.7521 78.2969 25.7523C78.09 25.7523 77.9223 25.7141 77.8056 25.6503C77.6995 25.5928 77.6137 25.5039 77.56 25.3958C77.5085 25.2939 77.4957 25.0649 77.4957 24.7212V22.7868H77.0692V22.3411H77.4957V21.5139L78.0773 21.1702V22.3411H78.6588V22.7868H78.0773V24.7471C78.0773 24.9129 78.09 25.0144 78.1032 25.0654C78.1287 25.1164 78.1547 25.1546 78.2067 25.1801C78.2675 25.2075 78.3338 25.2206 78.4004 25.2183C78.4779 25.2183 78.5553 25.2051 78.6588 25.1924ZM79.2276 21.7047V21.0555H79.8091V21.7174H79.2276V21.7047ZM79.2276 25.7013V22.3411H79.8091V25.7013H79.2276ZM80.4818 24.021C80.4818 23.3973 80.6627 22.9388 81.0118 22.6334C81.309 22.3789 81.6581 22.2641 82.0847 22.2641C82.55 22.2641 82.9378 22.4171 83.235 22.7226C83.5321 23.0281 83.6875 23.4483 83.6875 23.9827C83.6875 24.4157 83.6228 24.7594 83.4934 25.0011C83.3644 25.2561 83.1703 25.4468 82.9119 25.5738C82.658 25.7112 82.3733 25.7814 82.0847 25.7778C81.6061 25.7778 81.2183 25.6248 80.9211 25.3194C80.624 25.0139 80.4818 24.5809 80.4818 24.021ZM81.0761 24.021C81.0761 24.4539 81.1668 24.7722 81.3605 24.9884C81.5546 25.2046 81.7871 25.3071 82.0847 25.3071C82.3691 25.3071 82.6147 25.2046 82.8084 24.9884C83.0026 24.7722 83.0928 24.4412 83.0928 24.0082C83.0928 23.588 83.0026 23.2825 82.8084 23.0663C82.7211 22.9637 82.6119 22.8818 82.4889 22.8266C82.3659 22.7715 82.2322 22.7445 82.0974 22.7476C81.813 22.7476 81.5674 22.8501 81.3737 23.0663C81.1795 23.2825 81.0761 23.588 81.0761 24.021ZM84.3593 25.7013V22.3406H84.8761V22.8246C85.1217 22.4554 85.4836 22.2641 85.9622 22.2641C86.1691 22.2641 86.3628 22.3024 86.5309 22.3789C86.6991 22.4554 86.8281 22.5441 86.9188 22.6716C87.009 22.7863 87.061 22.9266 87.0997 23.0918C87.1257 23.1938 87.1257 23.3845 87.1257 23.6518V25.7268H86.5437V23.6773C86.5437 23.4483 86.5182 23.2703 86.479 23.1556C86.4402 23.0408 86.35 22.9516 86.2338 22.8751C86.1111 22.8073 85.9729 22.7723 85.8327 22.7736C85.5871 22.7736 85.3674 22.8501 85.1992 23.0026C85.0183 23.1556 84.9281 23.4483 84.9281 23.8807V25.7141H84.3593V25.7013ZM88.1078 25.7013V21.056H91.5205V21.6032H88.7413V23.0286H91.3528V23.5763H88.7413V25.1546H91.6372V25.7018L88.1078 25.7013ZM95.5926 21.0555H96.2134V23.741C96.2134 24.2117 96.1614 24.5814 96.0579 24.8486C95.9545 25.1159 95.7608 25.3449 95.4764 25.5233C95.192 25.7013 94.8302 25.7783 94.3776 25.7783C93.9383 25.7783 93.5759 25.7013 93.2915 25.5488C93.0217 25.407 92.8077 25.1782 92.684 24.8996C92.5678 24.6197 92.5031 24.225 92.5031 23.7283V21.056H93.1238V23.7415C93.1238 24.149 93.1626 24.4417 93.24 24.6329C93.3175 24.8236 93.447 24.9761 93.6279 25.0781C93.8088 25.1801 94.0412 25.2311 94.3129 25.2311C94.7782 25.2311 95.1013 25.1291 95.2955 24.9256C95.4892 24.7216 95.5926 24.3274 95.5926 23.7415V21.0555Z" fill="#58595B"/>
</g>
<defs>
<clipPath id="clip0_845_28932">
<rect width="115.226" height="25.4968" fill="white" transform="translate(0 0.942383)"/>
</clipPath>
</defs>
</svg>
