<svg width="156" height="25" viewBox="0 0 156 25" fill="none" xmlns="http://www.w3.org/2000/svg">
<g clip-path="url(#clip0_845_28921)">
<path d="M31.1982 10.5469L32.983 4.08534e-05H35.6847L37.8127 5.62896L40.0682 4.08534e-05H42.7993L44.3781 10.5469H41.647L40.8772 4.4816L38.3373 10.5518H37.2488L34.8119 4.4816L33.9146 10.5518H31.1982V10.5469ZM52.0909 2.32418H48.8401V4.07954H51.9144V6.40367H48.8401V8.21787H52.086V10.542H46.1041V-0.00976562H52.086V2.32418H52.0909ZM56.5578 4.08534e-05V10.5469H53.8267V4.08534e-05H56.5578ZM58.7691 10.5469V4.08534e-05H61.5002L66.5359 6.4527V4.08534e-05H69.267V10.5469H66.5359L61.5002 4.09425V10.5469H58.7691ZM31.6738 24.7026V14.1557H35.7435C36.4986 14.1557 37.3959 14.2636 38.0432 14.9794C38.4109 15.3717 38.6904 16.0189 38.6904 16.9505C38.6904 17.4065 38.607 17.8086 38.3913 18.2499C38.1657 18.6569 37.9353 18.8971 37.5381 19.0736C38.0873 19.1423 38.6413 19.3924 38.9748 19.7062C39.3964 20.1131 39.6808 20.7947 39.6808 21.638C39.6808 22.6383 39.2984 23.31 38.9061 23.7121C38.3422 24.2956 37.3469 24.7124 36.0475 24.7124H31.664L31.6738 24.7026ZM34.4049 18.3185H34.91C35.1944 18.3185 35.6651 18.2842 35.9495 17.9851C36.126 17.8086 36.1995 17.5291 36.1995 17.284C36.1995 17.0192 36.1064 16.7446 35.9495 16.5779C35.773 16.4014 35.4444 16.2592 34.91 16.2592H34.4049V18.3185ZM34.4049 22.5697H35.0179C35.773 22.5697 36.4055 22.4961 36.7046 22.1431C36.8271 22.0009 36.9301 21.7606 36.9301 21.4615C36.9301 21.1281 36.8222 20.8633 36.6653 20.7015C36.3319 20.3681 35.6504 20.3534 34.9786 20.3534H34.4148V22.5697H34.4049ZM44.1477 14.1557V24.7026H41.4166V14.1557H44.1477ZM49.0901 14.1557V22.3833H52.3704V24.7075H46.359V14.1557H49.0901ZM53.7776 24.7026V14.1557H57.357C58.4112 14.1557 60.1813 14.2979 61.5346 15.612C62.7653 16.7936 63.0055 18.3185 63.0055 19.461C63.0055 20.8535 62.6574 22.0842 61.6375 23.1139C60.7991 23.9524 59.3968 24.7124 57.6022 24.7124H53.7825V24.7026H53.7776ZM56.5087 22.3784H57.0677C57.7346 22.3784 58.6613 22.3098 59.3673 21.6184C59.7155 21.285 60.1715 20.6182 60.1715 19.4561C60.1715 18.4754 59.8724 17.6419 59.3477 17.1516C58.7005 16.5534 57.8522 16.4847 57.1707 16.4847H56.5038V22.3882V22.3784H56.5087ZM67.4822 14.1557V20.3975C67.4822 20.8388 67.4969 21.5204 68.0216 22.0303C68.3354 22.3294 68.8453 22.5402 69.316 22.5402C69.7916 22.5402 70.2819 22.349 70.5761 22.0842C71.2087 21.5253 71.189 20.7506 71.189 20.1671V14.1557H73.9202V20.2161C73.9202 21.3242 73.8711 22.4814 72.7434 23.6287C71.8608 24.526 70.7576 24.9428 69.2719 24.9428C67.6097 24.9428 66.4329 24.3789 65.7857 23.6778C64.8737 22.6775 64.7658 21.3389 64.7658 20.2161V14.1557H67.4969H67.4822ZM76.1266 24.7026V14.1557H78.8577L83.8933 20.6084V14.1557H86.6244V24.7026H83.8933L78.8577 18.2499V24.7026H76.1266ZM93.8763 18.7255H99.3091C99.3091 20.8143 98.8874 22.2951 97.6224 23.4718C96.5192 24.4966 95.2541 24.8055 93.9156 24.8055C92.0229 24.8055 90.7284 24.1044 89.8802 23.2414C89.0908 22.452 88.37 21.1673 88.37 19.4267C88.37 17.686 89.0319 16.372 89.9488 15.4698C90.8118 14.6019 92.1749 13.9203 94.0332 13.9203C95.0139 13.9203 96.0681 14.1459 96.8722 14.6264C97.696 15.1363 98.3677 15.965 98.7502 16.7936L96.1514 17.8674C95.9602 17.3771 95.6611 17.0241 95.3963 16.8083C94.9403 16.4259 94.45 16.2837 93.9254 16.2837C93.2781 16.2837 92.6113 16.5191 92.121 17.0094C91.5081 17.6272 91.209 18.6078 91.209 19.4316C91.209 20.3975 91.5571 21.1869 92.0474 21.7116C92.5525 22.2509 93.1703 22.5206 93.9744 22.5206C94.45 22.5206 94.9943 22.4471 95.4846 22.0303C95.7347 21.8244 96.0387 21.4468 96.1318 20.8584H93.891V18.7206L93.8763 18.7255ZM101.746 21.54C102.33 22.0989 103.217 22.6138 104.163 22.6138C104.717 22.6138 105.046 22.4373 105.218 22.246C105.374 22.0891 105.482 21.844 105.482 21.5792C105.482 21.3733 105.409 21.1379 105.183 20.9467C104.918 20.7064 104.502 20.5986 103.83 20.3877L103.124 20.1622C102.683 20.02 102.035 19.7797 101.614 19.3041C101.074 18.7206 101.015 17.9704 101.015 17.4409C101.015 16.1415 101.52 15.3521 101.976 14.8912C102.516 14.3518 103.398 13.8909 104.678 13.8909C105.718 13.8909 106.939 14.2243 107.924 14.749L106.836 16.8819C106.012 16.2347 105.399 16.1758 105.031 16.1758C104.766 16.1758 104.399 16.2445 104.134 16.4945C103.977 16.6514 103.869 16.828 103.869 17.0584C103.869 17.2496 103.903 17.3918 104.011 17.534C104.095 17.6272 104.276 17.8184 104.923 18.0096L105.762 18.2597C106.429 18.4656 107.115 18.701 107.674 19.2992C108.213 19.8631 108.356 20.4564 108.356 21.182C108.356 22.148 108.115 23.0796 107.36 23.8396C106.463 24.7369 105.374 24.9134 104.252 24.9134C103.59 24.9134 102.957 24.8448 102.182 24.5653C102.006 24.4966 101.344 24.2466 100.589 23.7219L101.761 21.5056L101.746 21.54ZM114.318 14.1557C115.107 14.1557 116.122 14.2783 116.892 15.0873C117.49 15.7051 117.789 16.6171 117.789 17.4605C117.789 18.3578 117.476 19.1521 116.951 19.6571C116.544 20.0592 115.99 20.2896 115.5 20.3828L118.799 24.7026H115.411L112.793 20.6574V24.7026H110.062V14.1557H114.318ZM112.793 18.8824H113.318C113.725 18.8824 114.313 18.7745 114.646 18.4558C114.852 18.2499 114.995 17.8969 114.995 17.5733C114.995 17.2496 114.872 16.9064 114.627 16.6907C114.377 16.4406 113.911 16.2837 113.313 16.2837H112.788V18.8873V18.8824H112.793ZM126.37 22.9276H122.55L121.844 24.7026H118.956L122.992 14.1557H125.973L129.935 24.7026H127.017L126.37 22.9276ZM125.649 20.8388L124.468 17.4262L123.315 20.8388H125.649ZM133.887 14.1557V20.3975C133.887 20.8388 133.901 21.5204 134.426 22.0303C134.74 22.3294 135.25 22.5402 135.721 22.5402C136.191 22.5402 136.682 22.349 136.981 22.0842C137.613 21.5253 137.594 20.7506 137.594 20.1671V14.1557H140.325V20.2161C140.325 21.3242 140.276 22.4814 139.143 23.6287C138.26 24.526 137.157 24.9428 135.672 24.9428C134.019 24.9428 132.833 24.3789 132.18 23.6778C131.268 22.6775 131.161 21.3389 131.161 20.2161V14.1557H133.892H133.887ZM142.06 24.7026L143.845 14.1557H146.547L148.675 19.7846L150.935 14.1557H153.666L155.245 24.7026H152.514L151.739 18.6324L149.2 24.7026H148.111L145.674 18.6324L144.777 24.7026H142.06ZM0.199951 13.9203V4.08534e-05H14.0957L9.94269 4.16289H4.35299V9.75749L0.199951 13.9203ZM15.1695 20.5985H20.7494V15.004L24.9025 10.8411V24.7614H11.0165L15.1695 20.5985ZM4.35299 14.4695V20.5985H10.4673L6.31429 24.7614H0.199951V18.6324L4.35299 14.4695Z" fill="white"/>
<path d="M15.1695 20.5985L11.0165 24.7614H16.5964V20.5985H15.1695ZM4.353 8.3257H0.199951V13.9203L4.353 9.75745V8.3257ZM18.7881 0L14.6351 4.16285V10.2919H20.7494L24.9025 6.12905V0H18.7881Z" fill="white"/>
<path d="M18.7882 0L14.6351 4.16285V10.2919H20.7495L24.9025 6.12905V0H18.7882Z" fill="white"/>
</g>
<defs>
<clipPath id="clip0_845_28921">
<rect width="155.045" height="24.9428" fill="white" transform="translate(0.199951)"/>
</clipPath>
</defs>
</svg>
